{"glyphs":{"0":{"ha":758,"x_min":-22,"x_max":656,"o":"m -22 443 q -3 614 -22 532 q 56 760 16 697 q 160 862 96 823 q 317 900 225 900 q 473 862 408 900 q 578 760 538 823 q 637 614 619 697 q 656 443 656 532 q 637 272 656 354 q 579 125 619 189 q 474 23 539 61 q 317 -16 410 -16 q 159 23 224 -16 q 54 125 94 61 q -4 272 14 189 q -22 443 -22 354 m 118 443 q 126 322 118 380 l 473 671 q 413 745 450 717 q 317 774 375 774 q 169 686 220 774 q 118 443 118 599 m 317 111 q 415 140 376 111 q 475 217 453 170 q 506 323 497 264 q 515 443 515 383 q 507 554 515 500 l 163 208 q 222 138 186 164 q 317 111 258 111 z "},"1":{"ha":758,"x_min":0,"x_max":528,"o":"m 528 0 l 103 0 l 103 126 l 245 126 l 245 629 q 213 570 236 596 q 156 527 189 545 q 83 501 123 510 q 0 492 43 492 l 0 632 q 90 647 46 632 q 168 694 134 663 q 224 772 203 725 q 245 885 245 819 l 386 885 l 386 126 l 528 126 l 528 0 z "},"2":{"ha":758,"x_min":16,"x_max":614,"o":"m 614 643 q 581 515 614 581 q 489 392 547 450 l 212 126 l 472 126 l 472 248 l 599 248 l 599 0 l 29 0 l 29 132 l 386 473 q 453 563 432 521 q 473 643 473 604 q 460 703 473 677 q 426 744 447 728 q 379 767 406 760 q 326 774 353 774 q 195 725 243 774 q 147 581 147 676 l 16 581 q 95 815 16 730 q 326 900 175 900 q 435 883 383 900 q 527 835 488 867 q 590 754 567 803 q 614 643 614 705 z "},"3":{"ha":758,"x_min":18,"x_max":624,"o":"m 624 240 q 600 135 624 182 q 537 54 576 87 q 445 3 497 21 q 336 -16 393 -16 q 217 2 272 -16 q 119 55 161 20 q 50 146 77 90 q 18 278 24 201 l 150 300 q 207 162 157 212 q 336 111 257 111 q 443 146 403 111 q 484 240 484 182 q 432 353 484 319 q 252 387 380 387 l 252 514 q 336 523 297 514 q 404 549 375 532 q 450 592 433 567 q 467 650 467 616 q 433 740 467 705 q 336 774 400 774 q 209 729 253 774 q 164 585 164 684 l 31 585 q 53 722 31 663 q 115 820 75 781 q 212 880 155 860 q 336 900 268 900 q 443 883 393 900 q 529 833 492 865 q 586 754 566 800 q 607 650 607 708 q 595 579 607 612 q 561 520 583 546 q 506 478 539 494 q 433 460 473 463 q 515 436 479 456 q 574 387 550 416 q 611 319 599 357 q 624 240 624 281 z "},"4":{"ha":758,"x_min":0,"x_max":632,"o":"m 632 0 l 207 0 l 207 126 l 349 126 l 349 236 l 0 236 l 0 363 l 323 885 l 488 885 l 488 363 l 632 363 l 632 236 l 488 236 l 488 126 l 632 126 l 632 0 m 349 363 l 349 720 l 126 363 l 349 363 z "},"5":{"ha":758,"x_min":3,"x_max":639,"o":"m 639 297 q 612 175 639 232 q 541 76 586 118 q 437 9 496 33 q 313 -16 378 -16 q 195 3 249 -16 q 99 58 140 22 q 33 144 58 93 q 3 262 8 196 l 136 282 q 186 158 143 205 q 313 111 229 111 q 389 126 355 111 q 446 165 422 140 q 482 224 469 191 q 494 297 494 258 q 449 435 494 386 q 328 485 403 485 q 238 465 279 485 q 174 399 197 444 l 33 399 l 33 885 l 587 885 l 587 758 l 174 758 l 174 529 q 355 611 236 611 q 464 589 412 611 q 554 527 515 567 q 616 428 593 486 q 639 297 639 370 z "},"6":{"ha":758,"x_min":-5,"x_max":643,"o":"m 643 301 q 619 170 643 228 q 552 70 595 111 q 452 7 510 29 q 329 -16 395 -16 q 164 23 229 -16 q 62 124 100 61 q 10 270 25 187 q -5 441 -5 353 q 17 614 -5 532 q 85 761 39 697 q 199 863 131 825 q 363 900 268 900 q 488 880 429 900 q 591 821 547 860 l 515 718 q 444 761 481 749 q 363 774 407 774 q 261 751 306 774 q 186 686 216 728 q 141 587 157 644 q 126 463 126 530 q 205 578 147 533 q 359 623 264 623 q 468 598 416 623 q 558 531 519 574 q 620 430 597 489 q 643 301 643 371 m 503 301 q 457 441 503 385 q 325 497 411 497 q 192 445 241 497 q 142 309 142 393 q 153 231 142 267 q 187 169 164 196 q 245 126 210 142 q 330 111 281 111 q 454 161 406 111 q 503 301 503 211 z "},"7":{"ha":758,"x_min":33,"x_max":632,"o":"m 632 758 q 497 588 549 668 q 417 420 446 507 q 378 232 389 334 q 366 0 367 131 l 222 0 q 239 225 224 123 q 288 418 254 328 q 375 591 321 509 q 509 758 429 673 l 158 758 l 158 610 l 33 610 l 33 885 l 632 885 l 632 758 z "},"8":{"ha":758,"x_min":-7,"x_max":637,"o":"m 637 249 q 612 130 637 179 q 544 48 587 81 q 441 0 500 16 q 315 -16 382 -16 q 189 0 248 -16 q 87 48 131 16 q 18 130 43 81 q -7 249 -7 179 q 6 321 -7 285 q 44 390 20 358 q 105 442 69 421 q 183 468 140 463 q 117 492 146 472 q 67 538 87 511 q 36 597 47 566 q 25 657 25 628 q 48 763 25 717 q 112 839 72 808 q 205 885 153 869 q 315 900 258 900 q 425 885 372 900 q 518 839 478 869 q 582 763 558 808 q 606 657 606 717 q 594 597 606 628 q 563 538 583 566 q 513 492 543 511 q 446 468 484 472 q 524 442 489 463 q 585 390 559 421 q 624 321 610 358 q 637 249 637 285 m 465 648 q 426 740 465 707 q 315 774 386 774 q 205 740 244 774 q 165 648 165 707 q 202 561 165 593 q 315 529 239 529 q 429 561 392 529 q 465 648 465 593 m 497 257 q 483 325 497 297 q 443 370 468 353 q 385 395 418 387 q 315 403 353 403 q 245 395 278 403 q 188 370 212 387 q 148 325 163 353 q 134 257 134 297 q 148 192 134 220 q 188 146 163 164 q 245 119 212 127 q 315 111 278 111 q 385 119 353 111 q 443 146 418 127 q 483 192 468 164 q 497 257 497 220 z "},"9":{"ha":758,"x_min":-11,"x_max":637,"o":"m -11 583 q 13 715 -11 657 q 80 815 37 774 q 180 878 122 856 q 302 900 237 900 q 467 862 403 900 q 569 760 532 823 q 622 614 607 696 q 637 443 637 532 q 615 270 637 353 q 547 123 593 187 q 432 22 501 60 q 269 -16 363 -16 q 144 5 203 -16 q 40 64 85 25 l 117 167 q 188 124 151 136 q 269 111 225 111 q 371 134 326 111 q 445 198 415 157 q 490 297 475 240 q 505 422 505 354 q 427 307 485 351 q 272 262 368 262 q 164 287 215 262 q 74 354 113 311 q 12 455 35 396 q -11 583 -11 514 m 129 583 q 175 444 129 500 q 307 387 221 387 q 440 439 390 387 q 490 576 490 492 q 479 653 490 618 q 445 716 468 689 q 387 759 422 743 q 301 774 351 774 q 178 724 227 774 q 129 583 129 673 z "},"\u0000":{"ha":758,"x_min":0,"x_max":0,"o":""},"\r":{"ha":758,"x_min":0,"x_max":0,"o":""}," ":{"ha":758,"x_min":0,"x_max":0,"o":""},"#":{"ha":758,"x_min":0,"x_max":632,"o":"m 632 127 l 505 127 l 505 1 l 379 1 l 379 127 l 253 127 l 253 1 l 126 1 l 126 127 l 0 127 l 0 253 l 126 253 l 126 380 l 0 380 l 0 506 l 126 506 l 126 633 l 253 633 l 253 506 l 379 506 l 379 633 l 505 633 l 505 506 l 632 506 l 632 380 l 505 380 l 505 253 l 632 253 l 632 127 m 379 253 l 379 380 l 253 380 l 253 253 l 379 253 z "},"$":{"ha":758,"x_min":-14,"x_max":631,"o":"m 253 -11 q 66 75 135 4 q -14 253 -3 146 l 117 273 q 253 117 142 143 l 253 414 q 165 453 208 432 q 89 504 122 473 q 36 575 56 534 q 16 673 16 616 q 78 821 16 760 q 253 896 140 882 l 253 1011 l 379 1011 l 379 893 q 476 860 433 884 q 550 802 519 836 q 598 726 581 768 q 618 637 615 684 l 486 623 q 379 764 471 734 l 379 510 q 470 469 425 492 q 551 414 515 447 q 608 337 586 382 q 631 231 631 293 q 613 146 631 186 q 564 73 596 106 q 485 19 532 40 q 379 -11 439 -3 l 379 -126 l 253 -126 l 253 -11 m 490 231 q 459 309 490 279 q 379 363 428 339 l 379 117 q 460 154 431 126 q 490 231 490 182 m 155 675 q 182 608 155 635 q 253 561 210 582 l 253 768 q 181 737 207 760 q 155 675 155 714 z "},"%":{"ha":758,"x_min":-17,"x_max":652,"o":"m 647 852 l 81 -28 l -12 32 l 555 916 l 647 852 m -17 728 q -3 794 -17 762 q 34 849 11 827 q 88 886 57 872 q 155 900 119 900 q 222 886 191 900 q 277 849 254 872 q 314 794 300 827 q 328 728 328 762 q 314 661 328 692 q 277 606 300 629 q 222 569 254 583 q 155 555 191 555 q 88 569 119 555 q 34 606 57 583 q -3 661 11 629 q -17 728 -17 692 m 85 729 q 105 679 85 700 q 155 659 126 659 q 205 679 184 659 q 227 729 227 700 q 205 779 227 758 q 155 800 184 800 q 105 779 126 800 q 85 729 85 758 m 307 157 q 321 224 307 192 q 358 278 335 256 q 412 315 380 301 q 479 329 443 329 q 546 315 514 329 q 601 278 578 301 q 638 224 624 256 q 652 157 652 192 q 638 90 652 121 q 601 35 624 58 q 546 -2 578 12 q 479 -16 514 -16 q 412 -2 443 -16 q 358 35 380 12 q 321 90 335 58 q 307 157 307 121 m 408 158 q 429 108 408 129 q 479 87 450 87 q 529 108 509 87 q 550 158 550 129 q 529 208 550 187 q 479 229 509 229 q 429 208 450 229 q 408 158 408 187 z "},"&":{"ha":758,"x_min":-17,"x_max":672,"o":"m 648 383 q 617 281 637 334 q 566 180 597 229 l 672 82 l 585 -18 l 484 81 q 376 10 435 36 q 248 -16 318 -16 q 143 3 192 -16 q 59 55 94 22 q 3 131 24 87 q -17 227 -17 175 q 16 372 -17 315 q 94 468 49 428 q 35 566 56 517 q 14 672 14 615 q 32 766 14 724 q 80 838 50 808 q 150 884 110 868 q 236 900 191 900 q 322 886 282 900 q 393 846 363 872 q 439 784 422 821 q 456 700 456 747 q 440 618 456 654 q 398 553 424 582 q 340 499 372 524 q 277 453 309 475 l 469 271 q 499 341 486 304 q 521 415 511 378 l 648 383 m 257 111 q 331 126 297 111 q 395 168 366 142 l 182 375 l 180 375 q 139 316 155 349 q 123 243 123 283 q 162 148 123 184 q 257 111 200 111 m 154 672 q 161 605 154 635 q 193 541 168 575 q 240 573 218 557 q 279 610 262 590 q 306 652 296 629 q 315 703 315 675 q 294 754 315 734 q 241 774 272 774 q 178 745 201 774 q 154 672 154 715 z "},"'":{"ha":758,"x_min":232,"x_max":400,"o":"m 400 885 l 370 546 l 262 546 l 232 885 l 400 885 z "},"(":{"ha":758,"x_min":127,"x_max":515,"o":"m 254 385 q 272 230 254 307 q 322 82 289 153 q 404 -52 355 11 q 515 -164 453 -115 l 429 -250 q 300 -121 357 -193 q 206 33 244 -49 q 148 204 168 115 q 127 385 127 293 q 148 565 127 476 q 206 736 168 654 q 300 890 244 818 q 429 1019 357 962 l 515 933 q 404 822 453 885 q 322 687 355 758 q 272 539 289 616 q 254 385 254 463 z "},")":{"ha":758,"x_min":119,"x_max":507,"o":"m 380 383 q 363 538 380 461 q 313 686 346 615 q 231 820 279 757 q 119 932 182 884 l 205 1018 q 333 889 278 961 q 428 735 389 817 q 487 564 467 653 q 507 383 507 475 q 487 203 507 292 q 428 32 467 114 q 333 -122 389 -50 q 205 -252 278 -195 l 119 -165 q 231 -54 182 -117 q 313 80 279 9 q 363 229 346 151 q 380 383 380 306 z "},"*":{"ha":758,"x_min":9,"x_max":623,"o":"m 364 401 l 555 534 l 623 416 l 412 316 l 623 217 l 555 99 l 364 233 l 383 1 l 249 1 l 268 233 l 77 99 l 9 217 l 220 316 l 9 416 l 77 534 l 268 401 l 249 633 l 383 633 l 364 401 z "},"+":{"ha":758,"x_min":0,"x_max":632,"o":"m 632 261 l 379 261 l 379 9 l 253 9 l 253 261 l 0 261 l 0 388 l 253 388 l 253 640 l 379 640 l 379 388 l 632 388 l 632 261 z "},",":{"ha":758,"x_min":142,"x_max":435,"o":"m 435 127 l 249 -252 l 142 -252 l 268 127 l 435 127 z "},"-":{"ha":758,"x_min":0,"x_max":632,"o":"m 0 261 l 0 387 l 632 387 l 632 261 l 0 261 z "},".":{"ha":758,"x_min":231,"x_max":401,"o":"m 401 0 l 231 0 l 231 171 l 401 171 l 401 0 z "},"/":{"ha":758,"x_min":8,"x_max":632,"o":"m 528 926 l 632 875 l 113 -171 l 8 -119 l 528 926 z "},":":{"ha":758,"x_min":231,"x_max":401,"o":"m 401 461 l 231 461 l 231 632 l 401 632 l 401 461 m 401 0 l 231 0 l 231 171 l 401 171 l 401 0 z "},";":{"ha":758,"x_min":142,"x_max":435,"o":"m 401 461 l 231 461 l 231 632 l 401 632 l 401 461 m 435 127 l 249 -252 l 142 -252 l 268 127 l 435 127 z "},"<":{"ha":758,"x_min":135,"x_max":562,"o":"m 562 60 l 482 -22 l 135 326 l 482 673 l 562 591 l 297 326 l 562 60 z "},"=":{"ha":758,"x_min":0,"x_max":632,"o":"m 632 388 l 0 388 l 0 514 l 632 514 l 632 388 m 632 135 l 0 135 l 0 261 l 632 261 l 632 135 z "},">":{"ha":758,"x_min":69,"x_max":497,"o":"m 335 326 l 69 591 l 150 673 l 497 326 l 150 -22 l 69 60 l 335 326 z "},"?":{"ha":758,"x_min":114,"x_max":616,"o":"m 616 681 q 598 593 616 631 q 554 524 581 555 q 496 463 528 492 q 437 404 464 435 q 393 337 411 374 q 375 253 375 300 l 231 253 q 249 352 231 309 q 294 431 267 396 q 353 496 322 467 q 412 555 385 526 q 458 615 440 585 q 476 682 476 646 q 450 750 476 726 q 379 774 424 774 q 282 737 313 774 q 244 635 252 700 l 114 654 q 192 834 126 768 q 378 900 258 900 q 553 840 490 900 q 616 681 616 781 m 401 0 l 231 0 l 231 171 l 401 171 l 401 0 z "},"@":{"ha":758,"x_min":-18,"x_max":661,"o":"m 661 464 q 653 370 661 418 q 626 284 645 323 q 574 222 606 246 q 491 197 541 197 q 455 204 473 197 q 422 225 437 212 q 399 256 408 238 q 391 296 391 275 l 391 303 q 373 261 385 281 q 347 228 362 242 q 312 205 331 214 q 271 197 293 197 q 202 217 230 197 q 157 269 174 237 q 132 343 140 302 q 125 428 125 385 q 136 524 125 478 q 169 605 147 570 q 223 660 191 640 q 296 681 255 681 q 321 677 309 681 q 346 664 334 673 q 367 643 357 656 q 380 613 376 630 l 380 668 l 490 668 l 490 332 q 497 301 490 311 q 515 292 504 292 q 541 305 530 292 q 558 342 551 319 q 568 397 565 366 q 571 464 571 429 q 557 600 571 535 q 514 713 544 664 q 437 790 485 762 q 321 819 389 819 q 205 790 253 819 q 128 709 157 760 q 85 590 98 659 q 72 441 72 521 q 85 295 72 363 q 128 176 98 227 q 205 95 157 125 q 321 66 253 66 q 421 85 377 66 q 501 138 465 105 l 541 72 q 321 -16 454 -16 q 210 2 259 -16 q 123 50 161 19 q 59 124 85 81 q 15 218 32 167 q -10 326 -2 269 q -18 441 -18 382 q -9 559 -18 502 q 16 667 -1 616 q 59 761 33 718 q 124 834 86 804 q 211 883 162 865 q 321 900 260 900 q 432 883 382 900 q 518 835 481 865 q 583 763 556 804 q 627 673 610 722 q 652 571 644 625 q 661 464 661 518 m 380 540 q 351 576 368 566 q 317 587 334 587 q 281 575 296 587 q 257 542 267 563 q 242 491 247 520 q 238 429 238 462 q 242 367 238 392 q 255 328 247 342 q 276 307 264 313 q 304 300 288 300 q 335 312 321 300 q 359 343 349 324 q 375 386 370 362 q 380 433 380 409 l 380 540 z "},"A":{"ha":758,"x_min":-40,"x_max":673,"o":"m 526 0 l 463 211 l 170 211 l 107 0 l -40 0 l 236 885 l 397 885 l 673 0 l 526 0 m 207 335 l 425 335 l 317 700 l 207 335 z "},"B":{"ha":758,"x_min":33,"x_max":631,"o":"m 631 243 q 549 61 631 122 q 315 0 467 0 l 33 0 l 33 885 l 300 885 q 409 876 355 885 q 505 842 463 867 q 574 771 547 817 q 600 654 600 726 q 566 532 600 587 q 463 452 532 476 q 589 378 547 425 q 631 243 631 330 m 461 636 q 447 699 461 675 q 409 737 432 724 q 357 754 386 750 q 300 758 329 758 l 174 758 l 174 514 l 300 514 q 357 518 329 514 q 409 535 386 522 q 447 573 432 549 q 461 636 461 597 m 492 257 q 445 355 492 323 q 315 387 399 387 l 174 387 l 174 126 l 315 126 q 445 158 399 126 q 492 257 492 191 z "},"C":{"ha":758,"x_min":-14,"x_max":646,"o":"m 646 271 q 602 153 629 205 q 536 62 575 100 q 445 5 497 25 q 326 -16 393 -16 q 169 23 233 -16 q 63 125 104 61 q 4 272 22 189 q -14 443 -14 354 q 4 614 -14 532 q 63 760 22 697 q 165 862 103 823 q 318 900 228 900 q 377 892 347 900 q 433 870 407 885 q 478 832 458 854 q 505 781 497 810 l 505 885 l 632 885 l 632 550 l 505 550 q 495 632 505 591 q 463 703 485 672 q 406 754 440 734 q 326 774 372 774 q 229 745 267 774 q 168 668 191 715 q 135 562 144 621 q 126 443 126 503 q 135 323 126 383 q 167 217 144 264 q 228 140 189 170 q 326 111 267 111 q 459 166 412 111 q 533 314 505 221 l 646 271 z "},"D":{"ha":758,"x_min":33,"x_max":661,"o":"m 661 443 q 643 274 661 354 q 583 133 624 193 q 477 36 542 72 q 321 0 412 0 l 33 0 l 33 885 l 321 885 q 476 849 411 885 q 582 752 541 812 q 642 612 623 692 q 661 443 661 532 m 521 443 q 469 677 521 596 q 321 758 416 758 l 174 758 l 174 126 l 321 126 q 469 209 416 126 q 521 443 521 292 z "},"E":{"ha":758,"x_min":33,"x_max":599,"o":"m 599 0 l 33 0 l 33 885 l 599 885 l 599 758 l 174 758 l 174 514 l 505 514 l 505 387 l 174 387 l 174 126 l 599 126 l 599 0 z "},"F":{"ha":758,"x_min":33,"x_max":599,"o":"m 599 758 l 174 758 l 174 514 l 505 514 l 505 387 l 174 387 l 174 0 l 33 0 l 33 885 l 599 885 l 599 758 z "},"G":{"ha":758,"x_min":-14,"x_max":667,"o":"m 667 440 q 649 268 667 350 q 590 123 631 186 q 484 22 549 60 q 326 -16 419 -16 q 169 23 233 -16 q 63 124 104 61 q 4 270 22 187 q -14 441 -14 353 q 4 613 -14 530 q 63 760 22 696 q 169 862 104 823 q 326 900 233 900 q 380 892 353 900 q 433 870 408 885 q 478 832 458 854 q 505 781 497 810 l 505 885 l 632 885 l 632 571 l 505 571 q 492 649 505 612 q 456 714 479 686 q 399 758 432 742 q 326 774 366 774 q 229 744 267 774 q 168 667 191 714 q 135 560 144 619 q 126 441 126 501 q 135 323 126 382 q 167 217 144 264 q 228 140 189 170 q 326 111 267 111 q 465 166 412 111 q 538 336 518 221 l 351 336 l 351 463 l 667 463 l 667 440 z "},"H":{"ha":758,"x_min":33,"x_max":599,"o":"m 599 0 l 458 0 l 458 387 l 174 387 l 174 0 l 33 0 l 33 885 l 174 885 l 174 514 l 458 514 l 458 885 l 599 885 l 599 0 z "},"I":{"ha":758,"x_min":106,"x_max":530,"o":"m 530 0 l 106 0 l 106 126 l 245 126 l 245 758 l 106 758 l 106 885 l 530 885 l 530 758 l 386 758 l 386 126 l 530 126 l 530 0 z "},"J":{"ha":758,"x_min":-1,"x_max":599,"o":"m 599 338 q 527 77 599 170 q 309 -16 456 -16 q 111 46 191 -16 q -1 232 31 109 l 125 279 q 189 156 144 200 q 309 111 233 111 q 383 130 354 111 q 429 180 412 149 q 452 252 446 211 q 458 338 458 293 l 458 885 l 599 885 l 599 338 z "},"K":{"ha":758,"x_min":33,"x_max":629,"o":"m 628 0 l 464 0 l 232 412 l 174 343 l 174 0 l 33 0 l 33 885 l 174 885 l 174 538 l 449 885 l 629 885 l 321 518 l 628 0 z "},"L":{"ha":758,"x_min":33,"x_max":599,"o":"m 599 0 l 33 0 l 33 885 l 174 885 l 174 126 l 599 126 l 599 0 z "},"M":{"ha":758,"x_min":33,"x_max":599,"o":"m 599 0 l 458 0 l 458 599 l 370 281 l 261 281 l 174 599 l 174 0 l 33 0 l 33 885 l 200 885 l 315 485 l 431 885 l 599 885 l 599 0 z "},"N":{"ha":758,"x_min":33,"x_max":599,"o":"m 599 0 l 436 0 l 174 642 l 174 0 l 33 0 l 33 885 l 210 885 l 458 275 l 458 885 l 599 885 l 599 0 z "},"O":{"ha":758,"x_min":-22,"x_max":656,"o":"m -22 443 q -3 614 -22 532 q 56 760 16 697 q 160 862 96 823 q 317 900 225 900 q 473 862 408 900 q 578 760 538 823 q 637 614 619 697 q 656 443 656 532 q 637 272 656 354 q 579 125 619 189 q 474 23 539 61 q 317 -16 410 -16 q 159 23 224 -16 q 54 125 94 61 q -4 272 14 189 q -22 443 -22 354 m 118 443 q 127 323 118 383 q 158 217 136 264 q 219 140 180 170 q 317 111 257 111 q 415 140 376 111 q 475 217 453 170 q 506 323 497 264 q 515 443 515 383 q 506 562 515 503 q 475 668 497 621 q 414 745 453 715 q 317 774 375 774 q 169 686 220 774 q 118 443 118 599 z "},"P":{"ha":758,"x_min":33,"x_max":632,"o":"m 632 621 q 551 423 632 488 q 326 358 471 358 l 174 358 l 174 0 l 33 0 l 33 885 l 325 885 q 551 818 471 885 q 632 621 632 751 m 492 623 q 447 724 492 690 q 326 758 403 758 l 174 758 l 174 485 l 326 485 q 447 519 403 485 q 492 623 492 553 z "},"Q":{"ha":758,"x_min":-22,"x_max":656,"o":"m -22 443 q -3 614 -22 532 q 56 760 16 697 q 160 862 96 823 q 317 900 225 900 q 473 862 408 900 q 578 760 538 823 q 637 614 619 697 q 656 443 656 532 q 641 285 656 361 q 593 149 627 210 q 508 45 559 87 q 380 -9 456 3 q 436 -101 387 -77 q 575 -126 485 -126 q 602 -125 587 -126 q 632 -125 616 -125 l 632 -250 q 594 -252 612 -252 q 559 -253 576 -253 q 337 -190 422 -253 q 235 -5 252 -127 q 116 53 165 11 q 36 156 66 96 q -8 290 5 216 q -22 443 -22 364 m 118 443 q 127 323 118 383 q 158 217 136 264 q 219 140 180 170 q 317 111 257 111 q 415 140 376 111 q 475 217 453 170 q 506 323 497 264 q 515 443 515 383 q 506 562 515 503 q 475 668 497 621 q 414 745 453 715 q 317 774 375 774 q 169 686 220 774 q 118 443 118 599 z "},"R":{"ha":758,"x_min":33,"x_max":644,"o":"m 644 0 l 467 0 l 237 358 l 174 358 l 174 0 l 33 0 l 33 885 l 325 885 q 551 818 471 885 q 632 621 632 751 q 614 518 632 562 q 563 441 596 473 q 487 391 530 410 q 392 366 443 372 l 644 0 m 492 623 q 447 724 492 690 q 325 758 403 758 l 174 758 l 174 485 l 325 485 q 447 519 403 485 q 492 623 492 553 z "},"S":{"ha":758,"x_min":18,"x_max":610,"o":"m 610 243 q 589 134 610 182 q 533 53 568 86 q 448 2 497 20 q 343 -16 399 -16 q 231 7 281 -16 q 144 81 180 29 l 144 0 l 18 0 l 18 289 l 144 289 q 160 212 144 245 q 200 156 175 179 q 258 122 225 134 q 329 110 292 110 q 431 139 392 110 q 469 232 469 168 q 457 289 469 265 q 424 331 446 313 q 370 364 401 350 q 297 393 338 378 q 201 430 249 410 q 115 480 153 450 q 53 554 77 510 q 29 664 29 597 q 51 766 29 722 q 107 840 72 810 q 190 885 143 869 q 290 900 237 900 q 395 874 351 900 q 463 806 439 848 l 463 885 l 589 885 l 589 610 l 463 610 q 421 731 463 688 q 311 775 380 775 q 210 747 250 775 q 170 667 170 718 q 180 622 170 640 q 211 588 191 603 q 261 559 231 572 q 332 530 292 546 q 431 490 382 513 q 520 435 481 468 q 585 356 559 403 q 610 243 610 310 z "},"T":{"ha":758,"x_min":0,"x_max":631,"o":"m 631 562 l 505 562 l 505 758 l 386 758 l 386 126 l 526 126 l 526 0 l 106 0 l 106 126 l 245 126 l 245 758 l 125 758 l 125 562 l 0 562 l 0 885 l 631 885 l 631 562 z "},"U":{"ha":758,"x_min":33,"x_max":599,"o":"m 599 315 q 582 179 599 240 q 531 75 566 118 q 442 8 496 32 q 315 -16 389 -16 q 189 8 241 -16 q 101 75 136 32 q 50 180 66 118 q 33 317 33 241 l 33 885 l 174 885 l 174 315 q 178 247 174 282 q 198 180 183 211 q 241 131 212 150 q 315 111 269 111 q 389 131 361 111 q 433 180 418 150 q 454 246 449 210 q 458 315 458 282 l 458 885 l 599 885 l 599 315 z "},"V":{"ha":758,"x_min":-40,"x_max":672,"o":"m 672 885 l 396 0 l 236 0 l -40 885 l 107 885 l 317 184 l 525 885 l 672 885 z "},"W":{"ha":758,"x_min":-43,"x_max":675,"o":"m 675 885 l 538 0 l 393 0 l 315 382 l 239 0 l 94 0 l -43 885 l 103 885 l 184 289 l 249 632 l 383 632 l 446 289 l 529 885 l 675 885 z "},"X":{"ha":758,"x_min":-16,"x_max":646,"o":"m 646 0 l 357 0 l 357 126 l 407 126 l 314 326 l 221 126 l 271 126 l 271 0 l -16 0 l -16 126 l 61 126 l 233 447 l 64 758 l 0 758 l 0 885 l 281 885 l 281 758 l 224 758 l 314 562 l 406 758 l 350 758 l 350 885 l 632 885 l 632 758 l 564 758 l 395 447 l 567 126 l 646 126 l 646 0 z "},"Y":{"ha":758,"x_min":-14,"x_max":646,"o":"m 646 758 l 582 758 l 386 361 l 386 126 l 528 126 l 528 0 l 104 0 l 104 126 l 245 126 l 245 361 l 50 758 l -14 758 l -14 885 l 265 885 l 265 758 l 204 758 l 317 498 l 428 758 l 367 758 l 367 885 l 646 885 l 646 758 z "},"Z":{"ha":758,"x_min":33,"x_max":599,"o":"m 599 0 l 33 0 l 33 125 l 429 758 l 160 758 l 160 566 l 33 566 l 33 885 l 587 885 l 587 758 l 203 126 l 475 126 l 475 321 l 599 321 l 599 0 z "},"[":{"ha":758,"x_min":253,"x_max":547,"o":"m 547 -253 l 253 -253 l 253 1011 l 547 1011 l 547 885 l 379 885 l 379 -126 l 547 -126 l 547 -253 z "},"\\":{"ha":758,"x_min":8,"x_max":632,"o":"m 632 -119 l 528 -171 l 8 875 l 113 926 l 632 -119 z "},"]":{"ha":758,"x_min":85,"x_max":379,"o":"m 379 -253 l 85 -253 l 85 -126 l 253 -126 l 253 885 l 85 885 l 85 1011 l 379 1011 l 379 -253 z "},"^":{"ha":758,"x_min":-40,"x_max":675,"o":"m 675 379 l 520 379 l 317 760 l 115 379 l -40 379 l 233 885 l 401 885 l 675 379 z "},"_":{"ha":758,"x_min":0,"x_max":632,"o":"m 0 -126 l 0 0 l 632 0 l 632 -126 l 0 -126 z "},"`":{"ha":758,"x_min":154,"x_max":507,"o":"m 233 953 l 507 758 l 447 665 l 154 831 l 233 953 z "},"a":{"ha":758,"x_min":-3,"x_max":597,"o":"m -3 182 q 27 279 -3 237 q 105 349 57 321 q 217 390 154 376 q 345 404 279 404 q 406 403 380 404 q 458 399 432 401 l 458 424 q 420 498 458 473 q 319 522 382 522 q 203 506 262 522 q 92 460 144 490 l 35 570 q 169 626 97 606 q 319 647 240 647 q 421 635 371 647 q 510 597 471 624 q 574 529 550 571 q 597 424 597 486 l 597 0 l 458 0 l 458 93 q 360 13 425 41 q 221 -16 296 -16 q 134 -3 175 -16 q 63 35 93 9 q 15 97 33 60 q -3 182 -3 134 m 257 110 q 335 120 298 110 q 399 150 371 131 q 443 195 427 168 q 458 253 458 221 l 458 277 q 396 283 425 282 q 345 283 367 283 q 189 256 241 283 q 136 189 136 229 q 257 110 136 110 z "},"b":{"ha":758,"x_min":33,"x_max":632,"o":"m 33 885 l 174 885 l 174 575 q 255 629 214 611 q 349 647 296 647 q 462 622 410 647 q 551 554 514 597 q 610 449 589 510 q 632 315 632 387 q 610 182 632 243 q 551 77 589 121 q 462 9 514 33 q 349 -16 410 -16 q 255 3 296 -16 q 174 58 214 22 l 174 0 l 33 0 l 33 885 m 174 168 q 238 126 199 140 q 313 111 277 111 q 442 168 392 111 q 492 315 492 224 q 442 464 492 407 q 313 521 392 521 q 238 506 277 521 q 174 464 199 492 l 174 168 z "},"c":{"ha":758,"x_min":-14,"x_max":608,"o":"m 608 90 q 480 7 547 29 q 334 -16 412 -16 q 190 8 254 -16 q 80 75 125 32 q 11 179 35 118 q -14 315 -14 240 q 11 449 -14 387 q 76 554 35 510 q 172 622 117 597 q 290 647 228 647 q 404 620 355 647 q 473 541 452 593 l 473 632 l 599 632 l 599 338 l 473 338 q 428 471 473 421 q 309 521 382 521 q 247 509 279 521 q 188 472 215 497 q 144 408 161 447 q 126 315 126 370 q 143 224 126 262 q 188 161 160 186 q 253 124 215 136 q 330 111 290 111 q 449 133 399 111 q 536 189 500 154 l 608 90 z "},"d":{"ha":758,"x_min":-1,"x_max":599,"o":"m 599 0 l 458 0 l 458 58 q 376 3 418 22 q 282 -16 335 -16 q 169 9 221 -16 q 79 77 117 33 q 20 182 41 121 q -1 315 -1 243 q 20 449 -1 387 q 79 554 41 510 q 169 622 117 597 q 282 647 221 647 q 376 629 335 647 q 458 575 418 611 l 458 758 l 336 758 l 336 885 l 599 885 l 599 0 m 458 464 q 394 506 433 492 q 318 521 354 521 q 189 464 239 521 q 139 315 139 407 q 189 168 139 224 q 318 111 239 111 q 394 126 354 111 q 458 168 433 140 l 458 464 z "},"e":{"ha":758,"x_min":-14,"x_max":659,"o":"m 129 262 q 191 154 139 197 q 330 111 243 111 q 449 133 399 111 q 536 189 500 154 l 608 90 q 479 7 547 29 q 330 -16 411 -16 q 194 9 257 -16 q 85 77 131 33 q 13 181 39 121 q -14 315 -14 241 q 11 448 -14 387 q 78 553 35 509 q 183 622 122 597 q 318 647 244 647 q 457 621 395 647 q 564 545 519 595 q 633 424 608 496 q 659 262 659 353 l 129 262 m 500 386 q 437 484 489 447 q 318 521 385 521 q 199 484 252 521 q 135 386 146 447 l 500 386 z "},"f":{"ha":758,"x_min":106,"x_max":632,"o":"m 632 505 l 386 505 l 386 126 l 530 126 l 530 0 l 106 0 l 106 126 l 245 126 l 245 505 l 106 505 l 106 632 l 245 632 q 326 831 245 762 q 542 900 406 900 q 585 898 562 900 q 632 893 608 896 l 632 770 q 558 774 591 774 q 471 766 504 774 q 419 741 437 758 q 393 696 400 724 q 386 632 386 669 l 632 632 l 632 505 z "},"g":{"ha":758,"x_min":-1,"x_max":599,"o":"m 599 7 q 576 -109 599 -58 q 514 -195 554 -160 q 419 -249 473 -231 q 297 -268 364 -268 q 16 -168 132 -268 l 82 -60 q 297 -143 179 -143 q 414 -107 370 -143 q 458 4 458 -72 l 458 72 q 375 17 415 35 q 282 -1 335 -1 q 169 24 221 -1 q 79 95 117 50 q 20 198 41 139 q -1 323 -1 257 q 20 449 -1 390 q 79 552 41 509 q 169 622 117 596 q 282 647 221 647 q 376 629 335 647 q 458 575 418 611 l 458 632 l 599 632 l 599 7 m 458 464 q 394 506 433 492 q 317 521 354 521 q 188 465 237 521 q 139 323 139 410 q 152 244 139 281 q 189 182 165 208 q 245 140 212 155 q 317 125 278 125 q 394 140 354 125 q 458 183 433 155 l 458 464 z "},"h":{"ha":758,"x_min":33,"x_max":599,"o":"m 599 0 l 458 0 l 458 390 q 431 492 458 464 q 350 521 403 521 q 223 458 272 521 q 174 283 174 395 l 174 0 l 33 0 l 33 885 l 174 885 l 174 473 q 252 601 195 555 q 392 647 309 647 q 544 584 489 647 q 599 390 599 521 l 599 0 z "},"i":{"ha":758,"x_min":106,"x_max":530,"o":"m 401 714 l 231 714 l 231 885 l 401 885 l 401 714 m 530 0 l 106 0 l 106 126 l 245 126 l 245 505 l 106 505 l 106 632 l 386 632 l 386 126 l 530 126 l 530 0 z "},"j":{"ha":758,"x_min":0,"x_max":528,"o":"m 233 -268 q 0 -160 89 -268 l 83 -66 q 151 -123 115 -104 q 233 -142 187 -142 q 338 -103 304 -142 q 372 0 372 -64 l 372 505 l 229 505 l 229 632 l 513 632 l 513 0 q 492 -111 513 -61 q 435 -195 472 -160 q 347 -249 399 -231 q 233 -268 296 -268 m 528 714 l 357 714 l 357 885 l 528 885 l 528 714 z "},"k":{"ha":758,"x_min":33,"x_max":631,"o":"m 631 0 l 449 0 l 237 256 l 174 191 l 174 0 l 33 0 l 33 885 l 174 885 l 174 364 l 427 632 l 619 632 l 328 342 l 631 0 z "},"l":{"ha":758,"x_min":107,"x_max":532,"o":"m 532 0 l 107 0 l 107 126 l 245 126 l 245 758 l 107 758 l 107 885 l 386 885 l 386 126 l 532 126 l 532 0 z "},"m":{"ha":758,"x_min":0,"x_max":632,"o":"m 632 0 l 492 0 l 492 433 q 483 499 492 478 q 450 521 473 521 q 397 474 408 521 q 386 336 386 427 l 386 0 l 245 0 l 245 433 q 236 499 245 478 q 203 521 227 521 q 151 474 161 521 q 140 336 140 427 l 140 0 l 0 0 l 0 632 l 142 632 l 142 541 q 186 620 157 593 q 264 647 215 647 q 332 622 304 647 q 370 554 359 597 q 419 624 393 602 q 497 647 444 647 q 597 599 562 647 q 632 454 632 551 l 632 0 z "},"n":{"ha":758,"x_min":33,"x_max":599,"o":"m 599 0 l 458 0 l 458 390 q 431 492 458 464 q 350 521 403 521 q 223 458 272 521 q 174 283 174 395 l 174 0 l 33 0 l 33 632 l 174 632 l 174 473 q 252 601 195 555 q 392 647 309 647 q 544 584 489 647 q 599 390 599 521 l 599 0 z "},"o":{"ha":758,"x_min":-14,"x_max":648,"o":"m 648 315 q 625 181 648 241 q 558 77 602 121 q 453 9 514 33 q 317 -16 392 -16 q 182 9 243 -16 q 77 77 121 33 q 10 181 33 121 q -14 315 -14 241 q 10 449 -14 387 q 77 554 33 510 q 182 623 121 599 q 317 647 243 647 q 453 623 392 647 q 558 554 514 599 q 625 449 602 510 q 648 315 648 387 m 509 315 q 495 396 509 358 q 457 462 482 435 q 396 505 432 489 q 317 521 361 521 q 237 505 272 521 q 177 462 201 489 q 139 396 153 435 q 126 315 126 358 q 139 234 126 271 q 177 170 153 197 q 237 126 201 142 q 317 111 272 111 q 396 126 361 111 q 457 170 432 142 q 495 234 482 197 q 509 315 509 271 z "},"p":{"ha":758,"x_min":33,"x_max":632,"o":"m 33 632 l 174 632 l 174 575 q 255 629 214 611 q 349 647 296 647 q 462 622 410 647 q 551 554 514 597 q 610 449 589 510 q 632 315 632 387 q 610 182 632 243 q 551 77 589 121 q 462 9 514 33 q 349 -16 410 -16 q 255 3 296 -16 q 174 58 214 22 l 174 -253 l 33 -253 l 33 632 m 174 170 q 238 126 199 142 q 313 111 277 111 q 442 168 392 111 q 492 315 492 224 q 442 464 492 407 q 313 521 392 521 q 238 506 277 521 q 174 464 199 492 l 174 170 z "},"q":{"ha":758,"x_min":-1,"x_max":599,"o":"m 599 -253 l 458 -253 l 458 58 q 376 3 418 22 q 282 -16 335 -16 q 169 9 221 -16 q 79 77 117 33 q 20 182 41 121 q -1 315 -1 243 q 20 449 -1 387 q 79 554 41 510 q 169 622 117 597 q 282 647 221 647 q 376 629 335 647 q 458 575 418 611 l 458 632 l 599 632 l 599 -253 m 458 464 q 394 506 433 492 q 318 521 354 521 q 189 464 239 521 q 139 315 139 407 q 189 168 139 224 q 318 111 239 111 q 394 126 354 111 q 458 168 433 140 l 458 464 z "},"r":{"ha":758,"x_min":0,"x_max":669,"o":"m 616 482 q 565 501 591 494 q 505 507 539 507 q 417 493 458 507 q 347 452 376 479 q 300 382 317 424 q 283 283 283 340 l 283 126 l 425 126 l 425 0 l 0 0 l 0 126 l 143 126 l 143 505 l 0 505 l 0 632 l 283 632 l 283 473 q 386 608 318 568 q 546 647 453 647 q 607 641 575 647 q 669 619 639 635 l 616 482 z "},"s":{"ha":758,"x_min":-7,"x_max":615,"o":"m 615 189 q 587 89 615 127 q 516 26 559 50 q 418 -6 472 3 q 313 -16 364 -16 q 141 9 227 -16 q -7 75 56 35 l 52 191 q 188 129 126 147 q 313 111 250 111 q 436 129 397 111 q 475 179 475 147 q 464 205 475 195 q 428 223 453 215 q 362 240 403 232 q 260 258 321 249 q 167 278 211 267 q 90 312 123 290 q 37 367 57 334 q 17 450 17 400 q 43 539 17 501 q 112 601 69 576 q 207 636 154 625 q 313 647 260 647 q 457 628 387 647 q 581 572 528 608 l 525 464 q 422 509 472 497 q 313 521 372 521 q 260 518 288 521 q 210 508 233 515 q 172 487 187 500 q 157 454 157 473 q 201 413 157 429 q 353 382 245 397 q 459 361 411 374 q 542 327 507 349 q 596 272 576 306 q 615 189 615 239 z "},"t":{"ha":758,"x_min":0,"x_max":639,"o":"m 639 201 q 561 43 628 102 q 392 -16 493 -16 q 290 3 336 -16 q 212 54 244 21 q 161 132 179 86 q 143 232 143 178 l 143 505 l 0 505 l 0 632 l 143 632 l 143 885 l 283 885 l 283 632 l 549 632 l 549 505 l 283 505 l 283 232 q 313 141 283 171 q 392 111 343 111 q 481 146 452 111 q 515 229 510 180 l 639 201 z "},"u":{"ha":758,"x_min":33,"x_max":599,"o":"m 33 632 l 174 632 l 174 241 q 201 140 174 168 q 282 111 229 111 q 409 174 359 111 q 458 349 458 237 l 458 632 l 599 632 l 599 0 l 458 0 l 458 158 q 380 31 437 77 q 240 -16 323 -16 q 88 48 143 -16 q 33 241 33 111 l 33 632 z "},"v":{"ha":758,"x_min":0,"x_max":632,"o":"m 632 632 l 399 0 l 233 0 l 0 632 l 150 632 l 317 154 l 482 632 l 632 632 z "},"w":{"ha":758,"x_min":-20,"x_max":652,"o":"m 652 632 l 557 0 l 383 0 l 317 380 l 249 0 l 75 0 l -20 632 l 118 632 l 174 210 l 241 632 l 390 632 l 458 210 l 514 632 l 652 632 z "},"x":{"ha":758,"x_min":-14,"x_max":647,"o":"m 647 0 l 347 0 l 347 126 l 403 126 l 317 258 l 232 126 l 283 126 l 283 0 l -14 0 l -14 126 l 78 126 l 220 321 l 85 505 l 0 505 l 0 632 l 285 632 l 285 505 l 240 505 l 317 383 l 395 505 l 345 505 l 345 632 l 632 632 l 632 505 l 550 505 l 415 321 l 557 126 l 647 126 l 647 0 z "},"y":{"ha":758,"x_min":-4,"x_max":627,"o":"m 627 632 l 354 -123 q 265 -236 323 -205 q 126 -267 207 -267 q 66 -261 98 -267 q 0 -243 35 -256 l 29 -114 q 83 -129 58 -125 q 126 -134 107 -134 q 212 -78 189 -134 l 237 -17 l -4 632 l 142 632 l 315 154 l 476 632 l 627 632 z "},"z":{"ha":758,"x_min":33,"x_max":599,"o":"m 599 0 l 33 0 l 33 125 l 393 505 l 157 505 l 157 378 l 33 378 l 33 632 l 586 632 l 586 505 l 225 126 l 475 126 l 475 252 l 599 252 l 599 0 z "},"{":{"ha":758,"x_min":126,"x_max":546,"o":"m 546 -253 l 441 -253 q 365 -239 400 -253 q 306 -199 330 -225 q 267 -139 281 -174 q 253 -62 253 -104 l 253 227 q 221 299 253 282 q 126 315 189 315 l 126 441 q 221 457 189 441 q 253 530 253 473 l 253 819 q 267 896 253 861 q 306 956 281 930 q 365 997 330 982 q 441 1011 400 1011 l 546 1011 l 546 885 l 441 885 q 392 870 406 885 q 379 819 379 856 l 379 530 q 340 427 379 467 q 252 378 301 387 q 299 362 277 374 q 339 330 322 350 q 368 283 357 310 q 379 227 379 257 l 379 -62 q 392 -113 379 -98 q 441 -127 406 -127 l 546 -127 l 546 -253 z "},"|":{"ha":758,"x_min":253,"x_max":379,"o":"m 379 -126 l 253 -126 l 253 1011 l 379 1011 l 379 -126 z "},"}":{"ha":758,"x_min":86,"x_max":505,"o":"m 86 -127 l 191 -127 q 240 -113 227 -127 q 253 -62 253 -98 l 253 229 q 264 286 253 260 q 293 333 275 313 q 333 365 310 353 q 380 380 355 376 q 292 430 330 390 q 253 533 253 469 l 253 822 q 240 872 253 859 q 191 885 227 885 l 86 885 l 86 1011 l 191 1011 q 267 997 232 1011 q 326 958 301 983 q 365 899 351 933 q 379 822 379 864 l 379 533 q 411 460 379 476 q 505 444 443 444 l 505 318 q 411 301 443 318 q 379 229 379 285 l 379 -62 q 365 -139 379 -104 q 326 -199 351 -174 q 267 -239 301 -225 q 191 -253 232 -253 l 86 -253 l 86 -127 z "},"~":{"ha":758,"x_min":-3,"x_max":635,"o":"m 421 295 q 474 334 457 295 q 501 463 490 372 l 635 453 q 616 340 631 392 q 575 250 602 288 q 510 189 549 212 q 421 167 472 167 q 335 193 366 167 q 284 252 304 220 q 249 311 264 285 q 211 338 235 338 q 158 299 175 338 q 131 171 142 261 l -3 181 q 16 293 1 241 q 57 384 31 346 q 122 445 83 422 q 211 467 160 467 q 298 440 267 467 q 349 381 329 413 q 384 322 368 349 q 421 295 399 295 z "},"Ä":{"ha":758,"x_min":-40,"x_max":673,"o":"m 526 0 l 463 211 l 170 211 l 107 0 l -40 0 l 236 885 l 397 885 l 673 0 l 526 0 m 207 335 l 425 335 l 317 700 l 207 335 m 528 966 l 357 966 l 357 1137 l 528 1137 l 528 966 m 275 966 l 104 966 l 104 1137 l 275 1137 l 275 966 z "},"Å":{"ha":758,"x_min":-40,"x_max":673,"o":"m 164 983 q 176 1043 164 1015 q 208 1092 187 1071 q 257 1124 229 1112 q 317 1136 285 1136 q 376 1124 349 1136 q 425 1092 404 1112 q 457 1043 446 1071 q 469 983 469 1015 q 452 912 469 945 q 406 859 435 879 l 673 0 l 526 0 l 463 211 l 170 211 l 107 0 l -40 0 l 228 859 q 181 912 199 879 q 164 983 164 945 m 207 335 l 425 335 l 317 700 l 207 335 m 254 983 q 272 939 254 957 q 317 921 290 921 q 361 939 343 921 q 379 983 379 957 q 361 1028 379 1010 q 317 1046 343 1046 q 272 1028 290 1046 q 254 983 254 1010 z "},"Ç":{"ha":758,"x_min":-14,"x_max":646,"o":"m 646 271 q 557 85 616 160 q 400 -8 498 11 l 400 -28 q 384 -116 400 -75 q 338 -186 368 -157 q 263 -234 307 -216 q 164 -252 220 -252 l 164 -131 q 252 -104 224 -131 q 281 -28 281 -77 l 281 -12 q 144 38 200 -3 q 54 142 89 79 q 2 282 18 204 q -14 443 -14 359 q 4 614 -14 532 q 63 760 22 697 q 165 862 103 823 q 318 900 228 900 q 377 892 347 900 q 433 870 407 885 q 478 832 458 854 q 505 781 497 810 l 505 885 l 632 885 l 632 550 l 505 550 q 495 632 505 591 q 463 703 485 672 q 406 754 440 734 q 326 774 372 774 q 229 745 267 774 q 168 668 191 715 q 135 562 144 621 q 126 443 126 503 q 135 323 126 383 q 167 217 144 264 q 228 140 189 170 q 326 111 267 111 q 459 166 412 111 q 533 314 505 221 l 646 271 z "},"É":{"ha":758,"x_min":33,"x_max":599,"o":"m 599 0 l 33 0 l 33 885 l 599 885 l 599 758 l 174 758 l 174 514 l 505 514 l 505 387 l 174 387 l 174 126 l 599 126 l 599 0 m 482 1082 l 189 917 l 129 1010 l 403 1204 l 482 1082 z "},"Ñ":{"ha":758,"x_min":33,"x_max":599,"o":"m 599 0 l 436 0 l 174 642 l 174 0 l 33 0 l 33 885 l 210 885 l 458 275 l 458 885 l 599 885 l 599 0 m 593 1096 q 515 994 561 1031 q 407 957 469 957 q 350 969 374 957 q 306 997 326 982 q 264 1024 285 1011 q 220 1036 244 1036 q 161 1015 184 1036 q 115 956 138 994 l 33 1003 q 111 1104 65 1067 q 220 1141 157 1141 q 276 1128 253 1141 q 321 1101 300 1116 q 362 1074 342 1086 q 407 1061 382 1061 q 465 1083 441 1061 q 511 1143 489 1104 l 593 1096 z "},"Ö":{"ha":758,"x_min":-22,"x_max":656,"o":"m -22 443 q -3 614 -22 532 q 56 760 16 697 q 160 862 96 823 q 317 900 225 900 q 473 862 408 900 q 578 760 538 823 q 637 614 619 697 q 656 443 656 532 q 637 272 656 354 q 579 125 619 189 q 474 23 539 61 q 317 -16 410 -16 q 159 23 224 -16 q 54 125 94 61 q -4 272 14 189 q -22 443 -22 354 m 118 443 q 127 323 118 383 q 158 217 136 264 q 219 140 180 170 q 317 111 257 111 q 415 140 376 111 q 475 217 453 170 q 506 323 497 264 q 515 443 515 383 q 506 562 515 503 q 475 668 497 621 q 414 745 453 715 q 317 774 375 774 q 169 686 220 774 q 118 443 118 599 m 528 966 l 357 966 l 357 1137 l 528 1137 l 528 966 m 275 966 l 104 966 l 104 1137 l 275 1137 l 275 966 z "},"Ü":{"ha":758,"x_min":33,"x_max":599,"o":"m 599 315 q 582 179 599 240 q 531 75 566 118 q 442 8 496 32 q 315 -16 389 -16 q 189 8 241 -16 q 101 75 136 32 q 50 180 66 118 q 33 317 33 241 l 33 885 l 174 885 l 174 315 q 178 247 174 282 q 198 180 183 211 q 241 131 212 150 q 315 111 269 111 q 389 131 361 111 q 433 180 418 150 q 454 246 449 210 q 458 315 458 282 l 458 885 l 599 885 l 599 315 m 528 966 l 357 966 l 357 1137 l 528 1137 l 528 966 m 275 966 l 104 966 l 104 1137 l 275 1137 l 275 966 z "},"á":{"ha":758,"x_min":-3,"x_max":597,"o":"m -3 182 q 27 279 -3 237 q 105 349 57 321 q 217 390 154 376 q 345 404 279 404 q 406 403 380 404 q 458 399 432 401 l 458 424 q 420 498 458 473 q 319 522 382 522 q 203 506 262 522 q 92 460 144 490 l 35 570 q 169 626 97 606 q 319 647 240 647 q 421 635 371 647 q 510 597 471 624 q 574 529 550 571 q 597 424 597 486 l 597 0 l 458 0 l 458 93 q 360 13 425 41 q 221 -16 296 -16 q 134 -3 175 -16 q 63 35 93 9 q 15 97 33 60 q -3 182 -3 134 m 257 110 q 335 120 298 110 q 399 150 371 131 q 443 195 427 168 q 458 253 458 221 l 458 277 q 396 283 425 282 q 345 283 367 283 q 189 256 241 283 q 136 189 136 229 q 257 110 136 110 m 482 831 l 189 665 l 129 758 l 403 953 l 482 831 z "},"à":{"ha":758,"x_min":-3,"x_max":597,"o":"m -3 182 q 27 279 -3 237 q 105 349 57 321 q 217 390 154 376 q 345 404 279 404 q 406 403 380 404 q 458 399 432 401 l 458 424 q 420 498 458 473 q 319 522 382 522 q 203 506 262 522 q 92 460 144 490 l 35 570 q 169 626 97 606 q 319 647 240 647 q 421 635 371 647 q 510 597 471 624 q 574 529 550 571 q 597 424 597 486 l 597 0 l 458 0 l 458 93 q 360 13 425 41 q 221 -16 296 -16 q 134 -3 175 -16 q 63 35 93 9 q 15 97 33 60 q -3 182 -3 134 m 257 110 q 335 120 298 110 q 399 150 371 131 q 443 195 427 168 q 458 253 458 221 l 458 277 q 396 283 425 282 q 345 283 367 283 q 189 256 241 283 q 136 189 136 229 q 257 110 136 110 m 233 953 l 507 758 l 447 665 l 154 831 l 233 953 z "},"â":{"ha":758,"x_min":-3,"x_max":597,"o":"m -3 182 q 27 279 -3 237 q 105 349 57 321 q 217 390 154 376 q 345 404 279 404 q 406 403 380 404 q 458 399 432 401 l 458 424 q 420 498 458 473 q 319 522 382 522 q 203 506 262 522 q 92 460 144 490 l 35 570 q 169 626 97 606 q 319 647 240 647 q 421 635 371 647 q 510 597 471 624 q 574 529 550 571 q 597 424 597 486 l 597 0 l 458 0 l 458 93 q 360 13 425 41 q 221 -16 296 -16 q 134 -3 175 -16 q 63 35 93 9 q 15 97 33 60 q -3 182 -3 134 m 257 110 q 335 120 298 110 q 399 150 371 131 q 443 195 427 168 q 458 253 458 221 l 458 277 q 396 283 425 282 q 345 283 367 283 q 189 256 241 283 q 136 189 136 229 q 257 110 136 110 m 536 736 l 482 667 l 318 806 l 151 665 l 97 733 l 317 949 l 536 736 z "},"ä":{"ha":758,"x_min":-3,"x_max":597,"o":"m -3 182 q 27 279 -3 237 q 105 349 57 321 q 217 390 154 376 q 345 404 279 404 q 406 403 380 404 q 458 399 432 401 l 458 424 q 420 498 458 473 q 319 522 382 522 q 203 506 262 522 q 92 460 144 490 l 35 570 q 169 626 97 606 q 319 647 240 647 q 421 635 371 647 q 510 597 471 624 q 574 529 550 571 q 597 424 597 486 l 597 0 l 458 0 l 458 93 q 360 13 425 41 q 221 -16 296 -16 q 134 -3 175 -16 q 63 35 93 9 q 15 97 33 60 q -3 182 -3 134 m 257 110 q 335 120 298 110 q 399 150 371 131 q 443 195 427 168 q 458 253 458 221 l 458 277 q 396 283 425 282 q 345 283 367 283 q 189 256 241 283 q 136 189 136 229 q 257 110 136 110 m 528 714 l 357 714 l 357 885 l 528 885 l 528 714 m 275 714 l 104 714 l 104 885 l 275 885 l 275 714 z "},"ã":{"ha":758,"x_min":-3,"x_max":597,"o":"m -3 182 q 27 279 -3 237 q 105 349 57 321 q 217 390 154 376 q 345 404 279 404 q 406 403 380 404 q 458 399 432 401 l 458 424 q 420 498 458 473 q 319 522 382 522 q 203 506 262 522 q 92 460 144 490 l 35 570 q 169 626 97 606 q 319 647 240 647 q 421 635 371 647 q 510 597 471 624 q 574 529 550 571 q 597 424 597 486 l 597 0 l 458 0 l 458 93 q 360 13 425 41 q 221 -16 296 -16 q 134 -3 175 -16 q 63 35 93 9 q 15 97 33 60 q -3 182 -3 134 m 257 110 q 335 120 298 110 q 399 150 371 131 q 443 195 427 168 q 458 253 458 221 l 458 277 q 396 283 425 282 q 345 283 367 283 q 189 256 241 283 q 136 189 136 229 q 257 110 136 110 m 593 844 q 515 742 561 779 q 407 705 469 705 q 350 718 374 705 q 306 745 326 730 q 264 772 285 760 q 220 785 244 785 q 161 763 184 785 q 115 704 138 742 l 33 751 q 111 852 65 815 q 220 889 157 889 q 276 877 253 889 q 321 849 300 864 q 362 822 342 835 q 407 810 382 810 q 465 831 441 810 q 511 892 489 852 l 593 844 z "},"å":{"ha":758,"x_min":-3,"x_max":597,"o":"m -3 182 q 27 279 -3 237 q 105 349 57 321 q 217 390 154 376 q 345 404 279 404 q 406 403 380 404 q 458 399 432 401 l 458 424 q 420 498 458 473 q 319 522 382 522 q 203 506 262 522 q 92 460 144 490 l 35 570 q 169 626 97 606 q 319 647 240 647 q 421 635 371 647 q 510 597 471 624 q 574 529 550 571 q 597 424 597 486 l 597 0 l 458 0 l 458 93 q 360 13 425 41 q 221 -16 296 -16 q 134 -3 175 -16 q 63 35 93 9 q 15 97 33 60 q -3 182 -3 134 m 257 110 q 335 120 298 110 q 399 150 371 131 q 443 195 427 168 q 458 253 458 221 l 458 277 q 396 283 425 282 q 345 283 367 283 q 189 256 241 283 q 136 189 136 229 q 257 110 136 110 m 164 852 q 176 912 164 885 q 208 961 187 940 q 257 994 229 982 q 317 1006 285 1006 q 376 994 349 1006 q 425 961 404 982 q 457 912 446 940 q 469 852 469 885 q 457 793 469 821 q 425 744 446 765 q 376 712 404 724 q 317 700 349 700 q 257 712 285 700 q 208 744 229 724 q 176 793 187 765 q 164 852 164 821 m 254 852 q 272 808 254 827 q 317 790 290 790 q 361 808 343 790 q 379 852 379 827 q 361 897 379 879 q 317 916 343 916 q 272 897 290 916 q 254 852 254 879 z "},"ç":{"ha":758,"x_min":-14,"x_max":608,"o":"m 608 90 q 509 19 559 41 q 400 -11 458 -4 l 400 -28 q 384 -116 400 -75 q 338 -186 368 -157 q 263 -234 307 -216 q 164 -252 220 -252 l 164 -131 q 252 -104 224 -131 q 281 -28 281 -77 l 281 -12 q 65 90 143 3 q -14 315 -14 176 q 11 449 -14 387 q 76 554 35 510 q 172 622 117 597 q 290 647 228 647 q 404 620 355 647 q 473 541 452 593 l 473 632 l 599 632 l 599 338 l 473 338 q 428 471 473 421 q 309 521 382 521 q 247 509 279 521 q 188 472 215 497 q 144 408 161 447 q 126 315 126 370 q 143 224 126 262 q 188 161 160 186 q 253 124 215 136 q 330 111 290 111 q 449 133 399 111 q 536 189 500 154 l 608 90 z "},"é":{"ha":758,"x_min":-14,"x_max":659,"o":"m 129 262 q 191 154 139 197 q 330 111 243 111 q 449 133 399 111 q 536 189 500 154 l 608 90 q 479 7 547 29 q 330 -16 411 -16 q 194 9 257 -16 q 85 77 131 33 q 13 181 39 121 q -14 315 -14 241 q 11 448 -14 387 q 78 553 35 509 q 183 622 122 597 q 318 647 244 647 q 457 621 395 647 q 564 545 519 595 q 633 424 608 496 q 659 262 659 353 l 129 262 m 500 386 q 437 484 489 447 q 318 521 385 521 q 199 484 252 521 q 135 386 146 447 l 500 386 m 482 831 l 189 665 l 129 758 l 403 953 l 482 831 z "},"è":{"ha":758,"x_min":-14,"x_max":659,"o":"m 129 262 q 191 154 139 197 q 330 111 243 111 q 449 133 399 111 q 536 189 500 154 l 608 90 q 479 7 547 29 q 330 -16 411 -16 q 194 9 257 -16 q 85 77 131 33 q 13 181 39 121 q -14 315 -14 241 q 11 448 -14 387 q 78 553 35 509 q 183 622 122 597 q 318 647 244 647 q 457 621 395 647 q 564 545 519 595 q 633 424 608 496 q 659 262 659 353 l 129 262 m 500 386 q 437 484 489 447 q 318 521 385 521 q 199 484 252 521 q 135 386 146 447 l 500 386 m 233 953 l 507 758 l 447 665 l 154 831 l 233 953 z "},"ê":{"ha":758,"x_min":-14,"x_max":659,"o":"m 129 262 q 191 154 139 197 q 330 111 243 111 q 449 133 399 111 q 536 189 500 154 l 608 90 q 479 7 547 29 q 330 -16 411 -16 q 194 9 257 -16 q 85 77 131 33 q 13 181 39 121 q -14 315 -14 241 q 11 448 -14 387 q 78 553 35 509 q 183 622 122 597 q 318 647 244 647 q 457 621 395 647 q 564 545 519 595 q 633 424 608 496 q 659 262 659 353 l 129 262 m 500 386 q 437 484 489 447 q 318 521 385 521 q 199 484 252 521 q 135 386 146 447 l 500 386 m 536 736 l 482 667 l 318 806 l 151 665 l 97 733 l 317 949 l 536 736 z "},"ë":{"ha":758,"x_min":-14,"x_max":659,"o":"m 129 262 q 191 154 139 197 q 330 111 243 111 q 449 133 399 111 q 536 189 500 154 l 608 90 q 479 7 547 29 q 330 -16 411 -16 q 194 9 257 -16 q 85 77 131 33 q 13 181 39 121 q -14 315 -14 241 q 11 448 -14 387 q 78 553 35 509 q 183 622 122 597 q 318 647 244 647 q 457 621 395 647 q 564 545 519 595 q 633 424 608 496 q 659 262 659 353 l 129 262 m 500 386 q 437 484 489 447 q 318 521 385 521 q 199 484 252 521 q 135 386 146 447 l 500 386 m 528 714 l 357 714 l 357 885 l 528 885 l 528 714 m 275 714 l 104 714 l 104 885 l 275 885 l 275 714 z "},"í":{"ha":758,"x_min":106,"x_max":530,"o":"m 530 0 l 106 0 l 106 126 l 245 126 l 245 505 l 106 505 l 106 632 l 386 632 l 386 126 l 530 126 l 530 0 m 482 831 l 189 665 l 129 758 l 403 953 l 482 831 z "},"ì":{"ha":758,"x_min":106,"x_max":530,"o":"m 530 0 l 106 0 l 106 126 l 245 126 l 245 505 l 106 505 l 106 632 l 386 632 l 386 126 l 530 126 l 530 0 m 233 953 l 507 758 l 447 665 l 154 831 l 233 953 z "},"î":{"ha":758,"x_min":97,"x_max":536,"o":"m 530 0 l 106 0 l 106 126 l 245 126 l 245 505 l 106 505 l 106 632 l 386 632 l 386 126 l 530 126 l 530 0 m 536 736 l 482 667 l 318 806 l 151 665 l 97 733 l 317 949 l 536 736 z "},"ï":{"ha":758,"x_min":104,"x_max":530,"o":"m 530 0 l 106 0 l 106 126 l 245 126 l 245 505 l 106 505 l 106 632 l 386 632 l 386 126 l 530 126 l 530 0 m 528 714 l 357 714 l 357 885 l 528 885 l 528 714 m 275 714 l 104 714 l 104 885 l 275 885 l 275 714 z "},"ñ":{"ha":758,"x_min":33,"x_max":599,"o":"m 599 0 l 458 0 l 458 390 q 431 492 458 464 q 350 521 403 521 q 223 458 272 521 q 174 283 174 395 l 174 0 l 33 0 l 33 632 l 174 632 l 174 473 q 252 601 195 555 q 392 647 309 647 q 544 584 489 647 q 599 390 599 521 l 599 0 m 593 844 q 515 742 561 779 q 407 705 469 705 q 350 718 374 705 q 306 745 326 730 q 264 772 285 760 q 220 785 244 785 q 161 763 184 785 q 115 704 138 742 l 33 751 q 111 852 65 815 q 220 889 157 889 q 276 877 253 889 q 321 849 300 864 q 362 822 342 835 q 407 810 382 810 q 465 831 441 810 q 511 892 489 852 l 593 844 z "},"ó":{"ha":758,"x_min":-14,"x_max":648,"o":"m 648 315 q 625 181 648 241 q 558 77 602 121 q 453 9 514 33 q 317 -16 392 -16 q 182 9 243 -16 q 77 77 121 33 q 10 181 33 121 q -14 315 -14 241 q 10 449 -14 387 q 77 554 33 510 q 182 623 121 599 q 317 647 243 647 q 453 623 392 647 q 558 554 514 599 q 625 449 602 510 q 648 315 648 387 m 509 315 q 495 396 509 358 q 457 462 482 435 q 396 505 432 489 q 317 521 361 521 q 237 505 272 521 q 177 462 201 489 q 139 396 153 435 q 126 315 126 358 q 139 234 126 271 q 177 170 153 197 q 237 126 201 142 q 317 111 272 111 q 396 126 361 111 q 457 170 432 142 q 495 234 482 197 q 509 315 509 271 m 482 831 l 189 665 l 129 758 l 403 953 l 482 831 z "},"ò":{"ha":758,"x_min":-14,"x_max":648,"o":"m 648 315 q 625 181 648 241 q 558 77 602 121 q 453 9 514 33 q 317 -16 392 -16 q 182 9 243 -16 q 77 77 121 33 q 10 181 33 121 q -14 315 -14 241 q 10 449 -14 387 q 77 554 33 510 q 182 623 121 599 q 317 647 243 647 q 453 623 392 647 q 558 554 514 599 q 625 449 602 510 q 648 315 648 387 m 509 315 q 495 396 509 358 q 457 462 482 435 q 396 505 432 489 q 317 521 361 521 q 237 505 272 521 q 177 462 201 489 q 139 396 153 435 q 126 315 126 358 q 139 234 126 271 q 177 170 153 197 q 237 126 201 142 q 317 111 272 111 q 396 126 361 111 q 457 170 432 142 q 495 234 482 197 q 509 315 509 271 m 233 953 l 507 758 l 447 665 l 154 831 l 233 953 z "},"ô":{"ha":758,"x_min":-14,"x_max":648,"o":"m 648 315 q 625 181 648 241 q 558 77 602 121 q 453 9 514 33 q 317 -16 392 -16 q 182 9 243 -16 q 77 77 121 33 q 10 181 33 121 q -14 315 -14 241 q 10 449 -14 387 q 77 554 33 510 q 182 623 121 599 q 317 647 243 647 q 453 623 392 647 q 558 554 514 599 q 625 449 602 510 q 648 315 648 387 m 509 315 q 495 396 509 358 q 457 462 482 435 q 396 505 432 489 q 317 521 361 521 q 237 505 272 521 q 177 462 201 489 q 139 396 153 435 q 126 315 126 358 q 139 234 126 271 q 177 170 153 197 q 237 126 201 142 q 317 111 272 111 q 396 126 361 111 q 457 170 432 142 q 495 234 482 197 q 509 315 509 271 m 536 736 l 482 667 l 318 806 l 151 665 l 97 733 l 317 949 l 536 736 z "},"ö":{"ha":758,"x_min":-14,"x_max":648,"o":"m 648 315 q 625 181 648 241 q 558 77 602 121 q 453 9 514 33 q 317 -16 392 -16 q 182 9 243 -16 q 77 77 121 33 q 10 181 33 121 q -14 315 -14 241 q 10 449 -14 387 q 77 554 33 510 q 182 623 121 599 q 317 647 243 647 q 453 623 392 647 q 558 554 514 599 q 625 449 602 510 q 648 315 648 387 m 509 315 q 495 396 509 358 q 457 462 482 435 q 396 505 432 489 q 317 521 361 521 q 237 505 272 521 q 177 462 201 489 q 139 396 153 435 q 126 315 126 358 q 139 234 126 271 q 177 170 153 197 q 237 126 201 142 q 317 111 272 111 q 396 126 361 111 q 457 170 432 142 q 495 234 482 197 q 509 315 509 271 m 528 714 l 357 714 l 357 885 l 528 885 l 528 714 m 275 714 l 104 714 l 104 885 l 275 885 l 275 714 z "},"õ":{"ha":758,"x_min":-14,"x_max":648,"o":"m 648 315 q 625 181 648 241 q 558 77 602 121 q 453 9 514 33 q 317 -16 392 -16 q 182 9 243 -16 q 77 77 121 33 q 10 181 33 121 q -14 315 -14 241 q 10 449 -14 387 q 77 554 33 510 q 182 623 121 599 q 317 647 243 647 q 453 623 392 647 q 558 554 514 599 q 625 449 602 510 q 648 315 648 387 m 509 315 q 495 396 509 358 q 457 462 482 435 q 396 505 432 489 q 317 521 361 521 q 237 505 272 521 q 177 462 201 489 q 139 396 153 435 q 126 315 126 358 q 139 234 126 271 q 177 170 153 197 q 237 126 201 142 q 317 111 272 111 q 396 126 361 111 q 457 170 432 142 q 495 234 482 197 q 509 315 509 271 m 593 844 q 515 742 561 779 q 407 705 469 705 q 350 718 374 705 q 306 745 326 730 q 264 772 285 760 q 220 785 244 785 q 161 763 184 785 q 115 704 138 742 l 33 751 q 111 852 65 815 q 220 889 157 889 q 276 877 253 889 q 321 849 300 864 q 362 822 342 835 q 407 810 382 810 q 465 831 441 810 q 511 892 489 852 l 593 844 z "},"ú":{"ha":758,"x_min":33,"x_max":599,"o":"m 33 632 l 174 632 l 174 241 q 201 140 174 168 q 282 111 229 111 q 409 174 359 111 q 458 349 458 237 l 458 632 l 599 632 l 599 0 l 458 0 l 458 158 q 380 31 437 77 q 240 -16 323 -16 q 88 48 143 -16 q 33 241 33 111 l 33 632 m 482 831 l 189 665 l 129 758 l 403 953 l 482 831 z "},"ù":{"ha":758,"x_min":33,"x_max":599,"o":"m 33 632 l 174 632 l 174 241 q 201 140 174 168 q 282 111 229 111 q 409 174 359 111 q 458 349 458 237 l 458 632 l 599 632 l 599 0 l 458 0 l 458 158 q 380 31 437 77 q 240 -16 323 -16 q 88 48 143 -16 q 33 241 33 111 l 33 632 m 233 953 l 507 758 l 447 665 l 154 831 l 233 953 z "},"û":{"ha":758,"x_min":33,"x_max":599,"o":"m 33 632 l 174 632 l 174 241 q 201 140 174 168 q 282 111 229 111 q 409 174 359 111 q 458 349 458 237 l 458 632 l 599 632 l 599 0 l 458 0 l 458 158 q 380 31 437 77 q 240 -16 323 -16 q 88 48 143 -16 q 33 241 33 111 l 33 632 m 536 736 l 482 667 l 318 806 l 151 665 l 97 733 l 317 949 l 536 736 z "},"ü":{"ha":758,"x_min":33,"x_max":599,"o":"m 33 632 l 174 632 l 174 241 q 201 140 174 168 q 282 111 229 111 q 409 174 359 111 q 458 349 458 237 l 458 632 l 599 632 l 599 0 l 458 0 l 458 158 q 380 31 437 77 q 240 -16 323 -16 q 88 48 143 -16 q 33 241 33 111 l 33 632 m 528 714 l 357 714 l 357 885 l 528 885 l 528 714 m 275 714 l 104 714 l 104 885 l 275 885 l 275 714 z "},"†":{"ha":758,"x_min":107,"x_max":528,"o":"m 528 615 l 367 625 l 375 253 l 258 253 l 268 625 l 107 615 l 107 733 l 268 724 l 258 885 l 375 885 l 367 724 l 528 733 l 528 615 z "},"°":{"ha":758,"x_min":0,"x_max":505,"o":"m 0 758 q 20 856 0 810 q 74 937 40 903 q 154 991 109 971 q 253 1011 200 1011 q 351 991 304 1011 q 431 937 397 971 q 485 856 465 903 q 505 758 505 810 q 485 660 505 705 q 431 580 465 614 q 351 526 397 546 q 253 505 304 505 q 154 526 200 505 q 74 580 109 546 q 20 660 40 614 q 0 758 0 705 m 96 757 q 108 696 96 725 q 142 647 121 668 q 191 614 163 627 q 252 602 220 602 q 312 614 283 602 q 361 647 340 627 q 394 696 382 668 q 407 757 407 725 q 394 817 407 789 q 361 867 382 846 q 312 900 340 888 q 252 913 283 913 q 191 900 220 913 q 142 867 163 888 q 108 817 121 846 q 96 757 96 789 z "},"¢":{"ha":758,"x_min":-14,"x_max":608,"o":"m -14 443 q 57 659 -14 574 q 253 766 127 745 l 253 885 l 379 885 l 379 771 q 499 742 443 765 q 608 668 555 720 l 536 570 q 468 617 507 597 q 379 643 429 636 l 379 241 q 468 269 429 249 q 536 317 507 289 l 608 218 q 499 142 555 165 q 379 114 443 119 l 379 0 l 253 0 l 253 119 q 57 227 127 142 q -14 443 -14 313 m 126 443 q 162 317 126 364 q 253 252 197 271 l 253 635 q 162 569 197 615 q 126 443 126 522 z "},"£":{"ha":758,"x_min":0,"x_max":654,"o":"m 0 505 l 126 505 l 126 661 q 144 757 126 713 q 194 833 163 802 q 267 882 225 864 q 354 900 309 900 q 495 856 437 900 q 568 729 553 811 l 441 699 q 354 774 421 774 q 291 748 315 774 q 267 661 267 722 l 267 505 l 393 505 l 393 379 l 267 379 l 267 253 q 249 175 267 208 q 204 126 232 142 l 321 126 q 399 132 367 126 q 457 152 432 138 q 501 190 482 165 q 539 252 519 214 l 654 191 q 522 47 610 94 q 321 0 433 0 l 0 0 l 0 126 l 41 126 q 81 135 65 126 q 107 156 97 143 q 122 186 118 170 q 126 218 126 203 l 126 379 l 0 379 l 0 505 z "},"§":{"ha":758,"x_min":14,"x_max":625,"o":"m 46 551 q 65 647 46 602 q 115 722 85 693 q 65 788 83 750 q 46 885 46 827 q 67 996 46 949 q 126 1074 89 1043 q 212 1121 163 1105 q 317 1136 261 1136 q 421 1121 371 1136 q 514 1077 472 1107 q 583 1002 555 1047 q 619 895 611 957 l 489 872 q 435 980 478 950 q 317 1010 392 1010 q 226 983 267 1010 q 186 903 186 956 q 219 829 186 857 q 300 779 252 800 q 406 736 349 757 q 511 686 463 715 q 592 611 559 656 q 625 494 625 566 q 606 386 625 429 q 554 302 586 342 q 606 236 586 275 q 625 139 625 196 q 603 28 625 77 q 542 -56 581 -21 q 453 -108 504 -90 q 347 -126 403 -126 q 235 -112 289 -126 q 137 -67 182 -97 q 60 9 93 -37 q 14 121 28 56 l 140 153 q 209 41 160 82 q 347 0 257 0 q 444 33 403 0 q 485 125 485 65 q 452 208 485 178 q 371 260 419 239 q 265 299 322 281 q 160 348 208 318 q 79 425 111 378 q 46 551 46 472 m 186 564 q 210 494 186 522 q 270 447 233 467 q 353 410 307 427 q 444 372 399 393 q 474 412 464 390 q 485 471 485 435 q 462 545 485 517 q 402 593 439 574 q 320 627 366 612 q 229 659 275 642 q 186 564 186 619 z "},"•":{"ha":758,"x_min":126,"x_max":632,"o":"m 126 379 q 146 477 126 431 q 201 557 167 524 q 280 612 235 591 q 379 632 326 632 q 477 612 431 632 q 557 557 524 591 q 612 477 591 524 q 632 379 632 431 q 612 280 632 326 q 557 201 591 235 q 477 146 524 167 q 379 126 431 126 q 280 146 326 126 q 201 201 235 167 q 146 280 167 235 q 126 379 126 326 z "},"¶":{"ha":758,"x_min":0,"x_max":632,"o":"m 0 621 q 81 818 0 751 q 307 885 161 885 l 632 885 l 632 0 l 492 0 l 492 357 l 386 357 l 386 0 l 245 0 l 245 361 q 67 441 135 376 q 0 621 0 505 m 386 758 l 386 484 l 492 484 l 492 758 l 386 758 m 140 621 q 168 531 140 571 q 245 486 196 492 l 245 755 q 201 741 221 753 q 168 710 182 729 q 147 669 154 692 q 140 621 140 646 z "},"ß":{"ha":758,"x_min":33,"x_max":632,"o":"m 632 182 q 614 104 632 140 q 564 42 596 68 q 488 0 532 16 q 393 -16 444 -16 q 278 3 326 -16 q 184 58 229 22 l 264 168 q 330 123 300 135 q 393 111 359 111 q 468 133 444 111 q 492 183 492 154 q 472 231 492 211 q 422 270 452 252 q 358 306 393 288 q 293 347 322 323 q 244 400 264 370 q 224 473 224 431 q 246 553 224 524 q 295 606 268 583 q 345 650 322 628 q 367 705 367 672 q 351 752 367 730 q 289 774 335 774 q 197 722 221 774 q 174 574 174 671 l 174 0 l 33 0 l 33 572 q 42 682 33 624 q 77 788 50 739 q 155 868 104 836 q 289 900 205 900 q 381 885 340 900 q 449 844 421 869 q 491 783 476 818 q 505 705 505 747 q 483 616 505 650 q 434 561 461 583 q 385 522 407 539 q 363 481 363 504 q 383 448 363 463 q 433 417 403 433 q 497 382 463 401 q 562 336 532 363 q 612 271 591 309 q 632 182 632 233 z "},"®":{"ha":758,"x_min":0,"x_max":758,"o":"m 758 632 q 730 488 758 557 q 651 367 701 419 q 532 284 602 315 q 380 253 463 253 q 238 280 307 253 q 117 357 170 307 q 32 476 64 407 q 0 632 0 546 q 30 779 0 710 q 111 900 60 848 q 232 981 163 951 q 380 1011 301 1011 q 525 983 457 1011 q 645 903 593 954 q 728 782 697 851 q 758 632 758 713 m 714 632 q 688 760 714 700 q 617 867 663 821 q 511 940 572 913 q 380 966 450 966 q 250 941 311 966 q 143 870 189 916 q 71 764 97 825 q 45 632 45 703 q 71 500 45 561 q 142 394 97 439 q 249 323 187 349 q 380 297 310 297 q 510 323 449 297 q 616 394 571 349 q 688 500 661 439 q 714 632 714 561 m 587 404 l 447 404 l 364 558 l 340 558 l 340 404 l 222 404 l 222 863 l 404 863 q 471 853 439 863 q 527 826 503 844 q 565 778 551 807 q 579 710 579 749 q 559 622 579 656 q 484 562 539 587 l 587 404 m 463 710 q 447 754 463 741 q 404 768 432 768 l 340 768 l 340 654 l 404 654 q 447 671 432 654 q 463 710 463 688 z "},"©":{"ha":758,"x_min":0,"x_max":758,"o":"m 586 361 q 382 261 521 261 q 282 279 328 261 q 204 330 236 297 q 154 408 172 363 q 136 507 136 453 q 153 603 136 558 q 201 681 170 647 q 278 733 233 714 q 382 753 323 753 q 586 653 521 753 l 490 586 q 382 642 460 642 q 293 604 325 642 q 261 507 261 566 q 292 411 261 449 q 382 372 323 372 q 490 428 460 372 l 586 361 m 758 505 q 730 362 758 431 q 651 241 701 293 q 532 158 602 189 q 380 126 463 126 q 238 153 307 126 q 117 231 170 180 q 32 350 64 281 q 0 505 0 419 q 30 653 0 583 q 111 774 60 722 q 232 855 163 825 q 380 885 301 885 q 525 857 457 885 q 645 777 593 828 q 728 655 697 725 q 758 505 758 586 m 714 505 q 688 634 714 574 q 617 740 663 694 q 511 813 572 786 q 380 840 450 840 q 250 814 311 840 q 143 744 189 789 q 71 637 97 699 q 45 505 45 576 q 71 374 45 435 q 142 268 97 313 q 249 197 187 222 q 380 171 310 171 q 510 197 449 171 q 616 268 571 222 q 688 374 661 313 q 714 505 714 435 z "},"™":{"ha":758,"x_min":0,"x_max":760,"o":"m 760 632 l 685 632 l 685 899 l 596 672 l 543 672 l 456 899 l 456 632 l 380 632 l 380 1011 l 488 1011 l 570 789 l 652 1011 l 760 1011 l 760 632 m 315 935 l 196 935 l 196 632 l 119 632 l 119 935 l 0 935 l 0 1011 l 315 1011 l 315 935 z "},"´":{"ha":758,"x_min":129,"x_max":482,"o":"m 482 831 l 189 665 l 129 758 l 403 953 l 482 831 z "},"¨":{"ha":758,"x_min":104,"x_max":528,"o":"m 528 714 l 357 714 l 357 885 l 528 885 l 528 714 m 275 714 l 104 714 l 104 885 l 275 885 l 275 714 z "},"≠":{"ha":758,"x_min":0,"x_max":632,"o":"m 227 261 l 288 388 l 0 388 l 0 514 l 349 514 l 410 640 l 526 640 l 465 514 l 632 514 l 632 388 l 404 388 l 343 261 l 632 261 l 632 135 l 283 135 l 222 9 l 106 9 l 167 135 l 0 135 l 0 261 l 227 261 z "},"Æ":{"ha":758,"x_min":-43,"x_max":632,"o":"m 268 0 l 268 211 l 153 211 l 102 0 l -43 0 l 204 885 l 632 885 l 632 758 l 408 758 l 408 514 l 599 514 l 599 387 l 408 387 l 408 126 l 632 126 l 632 0 l 268 0 m 182 335 l 268 335 l 268 685 l 182 335 z "},"Ø":{"ha":758,"x_min":-28,"x_max":664,"o":"m -22 443 q -3 614 -22 532 q 56 760 16 697 q 160 862 96 823 q 317 900 225 900 q 470 865 407 900 q 574 768 533 829 l 664 859 l 664 708 l 623 667 q 656 443 656 564 q 637 272 656 354 q 579 125 619 189 q 474 23 539 61 q 317 -16 410 -16 q 168 17 229 -16 q 65 107 106 50 l -28 14 l -28 164 l 14 205 q -14 319 -5 258 q -22 443 -22 379 m 118 443 q 119 380 118 411 q 126 319 121 350 l 475 668 q 413 745 452 715 q 317 774 375 774 q 169 686 220 774 q 118 443 118 599 m 317 111 q 415 140 376 111 q 475 217 453 170 q 506 323 497 264 q 515 443 515 383 q 513 497 515 471 q 509 551 511 524 l 164 205 q 223 137 187 163 q 317 111 260 111 z "},"∞":{"ha":758,"x_min":-5,"x_max":644,"o":"m 644 315 q 632 250 644 281 q 599 197 621 220 q 548 162 578 175 q 484 149 518 149 q 395 172 435 149 q 319 256 355 195 q 246 173 283 196 q 155 149 208 149 q 93 162 122 149 q 42 197 64 175 q 7 250 20 220 q -5 315 -5 281 q 7 381 -5 350 q 41 434 20 412 q 92 468 62 456 q 155 481 121 481 q 246 457 208 481 q 319 372 283 433 q 395 457 355 433 q 484 481 435 481 q 546 468 517 481 q 597 434 575 456 q 632 381 619 412 q 644 315 644 350 m 262 315 q 161 391 227 391 q 109 369 131 391 q 86 315 86 347 q 107 261 86 283 q 161 239 127 239 q 262 315 228 239 m 376 315 q 478 239 411 239 q 532 261 511 239 q 553 315 553 283 q 531 369 553 347 q 478 391 509 391 q 376 315 411 391 z "},"±":{"ha":758,"x_min":0,"x_max":632,"o":"m 632 261 l 379 261 l 379 42 l 253 42 l 253 261 l 0 261 l 0 388 l 253 388 l 253 640 l 379 640 l 379 388 l 632 388 l 632 261 m 632 -126 l 0 -126 l 0 0 l 632 0 l 632 -126 z "},"≤":{"ha":758,"x_min":126,"x_max":632,"o":"m 562 60 l 503 0 l 632 0 l 632 -126 l 126 -126 l 126 0 l 460 0 l 135 326 l 482 673 l 562 591 l 297 326 l 562 60 z "},"≥":{"ha":758,"x_min":126,"x_max":632,"o":"m 461 326 l 196 591 l 277 673 l 624 326 l 298 0 l 632 0 l 632 -126 l 126 -126 l 126 0 l 254 0 l 196 60 l 461 326 z "},"¥":{"ha":758,"x_min":0,"x_max":632,"o":"m 248 379 l 248 382 l 191 505 l 0 505 l 0 632 l 134 632 l 20 885 l 165 885 l 318 509 l 469 885 l 615 885 l 500 632 l 632 632 l 632 505 l 443 505 l 387 382 l 387 379 l 632 379 l 632 253 l 387 253 l 387 0 l 248 0 l 248 253 l 0 253 l 0 379 l 248 379 z "},"µ":{"ha":758,"x_min":33,"x_max":599,"o":"m 275 -16 q 175 21 208 -16 l 175 -253 l 33 -253 l 33 632 l 175 632 l 175 240 q 203 139 175 167 q 283 111 231 111 q 410 174 361 111 q 458 347 458 236 l 458 632 l 599 632 l 599 0 l 458 0 l 458 157 q 386 30 437 75 q 275 -16 334 -16 z "},"∂":{"ha":758,"x_min":-14,"x_max":644,"o":"m -14 240 q 19 365 -14 310 q 112 461 52 419 q 257 531 172 503 q 446 576 342 559 q 319 693 399 647 q 136 778 240 739 l 179 900 q 355 818 271 864 q 504 707 440 771 q 606 559 568 643 q 644 364 644 475 q 620 207 644 277 q 550 87 596 136 q 439 11 504 37 q 292 -16 374 -16 q 70 50 153 -16 q -14 240 -14 115 m 504 364 q 496 454 504 412 q 224 383 322 439 q 126 240 126 328 q 170 144 126 178 q 292 111 214 111 q 445 176 386 111 q 504 364 504 241 z "},"∑":{"ha":758,"x_min":29,"x_max":599,"o":"m 599 0 l 29 0 l 29 126 l 229 441 l 29 758 l 29 885 l 599 885 l 599 586 l 472 586 l 472 758 l 200 758 l 395 441 l 200 126 l 472 126 l 472 300 l 599 300 l 599 0 z "},"∏":{"ha":758,"x_min":0,"x_max":632,"o":"m 632 758 l 513 758 l 513 0 l 372 0 l 372 758 l 260 758 l 260 0 l 119 0 l 119 758 l 0 758 l 0 885 l 632 885 l 632 758 z "},"π":{"ha":758,"x_min":0,"x_max":659,"o":"m 519 182 q 536 129 519 149 q 587 109 553 109 q 619 111 607 109 q 640 119 631 114 l 659 1 q 575 -16 631 -16 q 429 31 479 -16 q 379 182 379 78 l 379 505 l 253 505 q 251 377 253 439 q 245 255 249 315 q 236 132 241 195 q 224 0 231 69 l 82 0 q 96 129 90 68 q 105 251 102 191 q 111 374 109 311 q 113 505 113 436 l 0 505 l 0 632 l 632 632 l 632 505 l 519 505 l 519 182 z "},"∫":{"ha":758,"x_min":0,"x_max":632,"o":"m 632 1015 q 559 1019 591 1019 q 423 988 460 1019 q 386 888 386 957 l 386 -11 q 306 -204 386 -140 q 90 -268 227 -268 q 46 -267 69 -268 q 0 -262 24 -265 l 0 -138 q 72 -142 39 -142 q 208 -111 171 -142 q 245 -11 245 -79 l 245 888 q 326 1081 245 1017 q 543 1146 407 1146 q 586 1144 564 1146 q 632 1139 608 1141 l 632 1015 z "},"ª":{"ha":758,"x_min":-5,"x_max":505,"o":"m -5 529 q 18 610 -5 576 q 81 663 41 643 q 170 691 121 682 q 272 700 220 700 q 306 700 293 700 q 329 699 318 700 q 350 696 339 697 q 379 692 361 694 l 379 732 q 347 781 379 765 q 264 798 315 798 q 163 786 215 798 q 66 750 111 775 l 24 838 q 125 881 65 865 q 264 897 186 897 q 356 888 313 897 q 433 859 400 879 q 486 808 467 839 q 505 732 505 777 l 505 379 l 379 379 l 379 453 q 300 392 347 418 q 182 367 253 367 q 42 413 90 367 q -5 529 -5 458 m 212 467 q 270 474 240 467 q 324 494 300 482 q 364 521 349 505 q 379 551 379 536 l 379 596 q 320 602 343 602 q 272 603 297 603 q 115 529 115 603 q 135 486 115 505 q 212 467 154 467 m 505 135 l 0 135 l 0 261 l 505 261 l 505 135 z "},"º":{"ha":758,"x_min":-14,"x_max":518,"o":"m 518 631 q 499 523 518 572 q 445 439 479 473 q 360 385 410 404 q 253 366 311 366 q 145 384 195 366 q 60 437 96 403 q 6 521 25 472 q -14 631 -14 570 q 6 740 -14 690 q 60 825 25 790 q 145 879 96 860 q 253 899 195 899 q 360 879 311 899 q 445 825 410 860 q 499 740 479 790 q 518 631 518 690 m 399 631 q 358 752 399 708 q 253 796 318 796 q 146 752 187 796 q 106 631 106 708 q 146 510 106 553 q 253 468 186 468 q 359 510 319 468 q 399 631 399 553 m 505 135 l 0 135 l 0 261 l 505 261 l 505 135 z "},"Ω":{"ha":758,"x_min":-14,"x_max":646,"o":"m 646 503 q 610 312 646 404 q 490 157 575 220 l 490 126 l 632 126 l 632 0 l 379 0 l 379 243 q 441 288 416 260 q 480 352 465 317 q 500 427 494 387 q 505 503 505 467 q 495 598 505 550 q 463 686 485 647 q 404 749 440 725 q 317 774 368 774 q 231 749 267 774 q 172 686 196 725 q 137 598 149 647 q 126 503 126 550 q 132 427 126 467 q 152 352 138 387 q 191 288 167 317 q 253 243 215 260 l 253 0 l 0 0 l 0 126 l 144 126 l 144 157 q 24 308 62 215 q -14 503 -14 401 q 8 651 -14 579 q 71 779 29 724 q 174 867 113 833 q 317 900 236 900 q 458 867 397 900 q 561 779 519 833 q 624 651 603 724 q 646 503 646 579 z "},"æ":{"ha":758,"x_min":-14,"x_max":642,"o":"m 306 89 q 244 15 279 45 q 155 -16 210 -16 q 83 0 114 -16 q 30 41 52 16 q -3 101 8 66 q -14 172 -14 135 q 4 268 -14 227 q 51 338 21 310 q 119 379 81 366 q 201 393 158 393 q 227 393 216 393 q 253 389 237 392 l 253 429 q 234 501 253 479 q 184 522 215 522 q 132 510 161 522 q 79 457 103 497 l -5 538 q 84 622 32 596 q 178 647 136 647 q 264 628 227 647 q 319 559 302 608 q 377 626 343 606 q 458 647 411 647 q 558 613 522 647 q 613 525 595 579 q 637 402 632 471 q 642 262 642 334 l 379 262 q 403 146 379 178 q 457 114 427 114 q 495 126 479 114 q 517 168 510 139 l 635 129 q 569 20 611 56 q 457 -16 526 -16 q 416 -11 437 -16 q 374 6 395 -5 q 336 38 354 18 q 306 89 318 58 m 501 386 q 484 494 498 467 q 443 522 469 522 q 398 492 414 522 q 379 386 382 461 l 501 386 m 253 265 q 235 267 244 267 q 210 268 225 268 q 151 244 176 268 q 125 179 125 221 q 139 129 125 144 q 175 113 153 113 q 233 146 212 113 q 253 224 253 179 l 253 265 z "},"ø":{"ha":758,"x_min":-16,"x_max":647,"o":"m 0 122 l 26 144 q -4 223 7 180 q -16 315 -16 267 q 9 449 -16 387 q 77 554 33 510 q 182 623 121 599 q 317 647 243 647 q 439 626 383 647 q 539 570 496 606 l 632 647 l 632 510 l 606 488 q 636 407 625 450 q 647 315 647 364 q 624 181 647 241 q 556 77 600 121 q 452 9 513 33 q 317 -16 392 -16 q 193 5 249 -16 q 93 61 136 25 l 0 -16 l 0 122 m 507 315 q 494 396 507 358 l 197 149 q 251 121 221 131 q 317 111 281 111 q 396 126 361 111 q 456 170 432 142 q 494 234 481 197 q 507 315 507 271 m 125 315 q 138 236 125 271 l 433 482 q 317 521 386 521 q 237 505 272 521 q 176 462 201 489 q 138 396 151 435 q 125 315 125 358 z "},"¿":{"ha":758,"x_min":142,"x_max":644,"o":"m 142 204 q 160 292 142 254 q 204 361 178 329 q 262 422 231 393 q 321 481 294 450 q 365 548 347 511 q 383 632 383 585 l 528 632 q 510 532 528 575 q 464 453 492 489 q 405 388 436 418 q 346 329 374 358 q 300 269 318 300 q 282 203 282 239 q 309 135 282 158 q 379 111 335 111 q 476 148 446 111 q 514 250 507 184 l 644 231 q 566 51 632 117 q 380 -16 500 -16 q 205 44 268 -16 q 142 204 142 104 m 357 885 l 528 885 l 528 714 l 357 714 l 357 885 z "},"¡":{"ha":758,"x_min":350,"x_max":534,"o":"m 350 0 l 385 632 l 500 632 l 534 0 l 350 0 m 528 714 l 357 714 l 357 885 l 528 885 l 528 714 z "},"¬":{"ha":758,"x_min":0,"x_max":632,"o":"m 632 9 l 505 9 l 505 261 l 0 261 l 0 388 l 632 388 l 632 9 z "},"√":{"ha":758,"x_min":1,"x_max":632,"o":"m 632 632 l 449 632 l 279 0 l 129 0 l 1 492 l 123 525 l 205 207 l 347 758 l 632 758 l 632 632 z "},"ƒ":{"ha":758,"x_min":0,"x_max":632,"o":"m 245 505 l 106 505 l 106 632 l 245 632 q 326 831 245 762 q 542 900 406 900 q 585 898 562 900 q 632 893 608 896 l 632 770 q 558 774 591 774 q 471 766 504 774 q 419 741 437 758 q 393 696 400 724 q 386 632 386 669 l 632 632 l 632 505 l 386 505 l 386 -11 q 306 -204 386 -140 q 90 -268 227 -268 q 46 -267 69 -268 q 0 -262 24 -265 l 0 -138 q 72 -142 39 -142 q 208 -111 171 -142 q 245 -11 245 -79 l 245 505 z "},"≈":{"ha":758,"x_min":-39,"x_max":671,"o":"m 671 500 q 572 371 631 417 q 435 324 514 324 q 362 339 393 324 q 306 373 332 355 q 255 408 281 392 q 197 424 229 424 q 123 397 153 424 q 65 323 93 371 l -39 382 q 60 510 1 463 q 197 557 118 557 q 269 542 239 557 q 326 507 300 526 q 377 472 351 488 q 435 456 403 456 q 509 484 479 456 q 567 560 539 511 l 671 500 m 671 249 q 572 119 631 165 q 435 73 514 73 q 362 88 393 73 q 306 122 332 103 q 255 156 281 140 q 197 172 229 172 q 123 146 153 172 q 65 71 93 119 l -39 131 q 60 259 1 212 q 197 306 118 306 q 269 290 239 306 q 326 255 300 274 q 377 220 351 237 q 435 204 403 204 q 509 232 479 204 q 567 309 539 260 l 671 249 z "},"∆":{"ha":758,"x_min":-40,"x_max":673,"o":"m -40 0 l 236 885 l 397 885 l 673 0 l -40 0 m 144 125 l 489 125 l 317 700 l 144 125 z "},"«":{"ha":758,"x_min":9,"x_max":561,"o":"m 310 301 l 229 220 l 9 441 l 229 665 l 310 583 l 172 441 l 310 301 m 561 301 l 481 220 l 261 441 l 481 665 l 561 583 l 424 441 l 561 301 z "},"»":{"ha":758,"x_min":72,"x_max":624,"o":"m 461 441 l 323 583 l 404 665 l 624 441 l 404 220 l 323 301 l 461 441 m 210 441 l 72 583 l 153 665 l 372 441 l 153 220 l 72 301 l 210 441 z "},"…":{"ha":758,"x_min":-22,"x_max":654,"o":"m 401 0 l 231 0 l 231 171 l 401 171 l 401 0 m 654 0 l 484 0 l 484 171 l 654 171 l 654 0 m 149 0 l -22 0 l -22 171 l 149 171 l 149 0 z "}," ":{"ha":758,"x_min":0,"x_max":0,"o":""},"À":{"ha":758,"x_min":-40,"x_max":673,"o":"m 526 0 l 463 211 l 170 211 l 107 0 l -40 0 l 236 885 l 397 885 l 673 0 l 526 0 m 207 335 l 425 335 l 317 700 l 207 335 m 233 1204 l 507 1010 l 447 917 l 154 1082 l 233 1204 z "},"Ã":{"ha":758,"x_min":-40,"x_max":673,"o":"m 526 0 l 463 211 l 170 211 l 107 0 l -40 0 l 236 885 l 397 885 l 673 0 l 526 0 m 207 335 l 425 335 l 317 700 l 207 335 m 593 1096 q 515 994 561 1031 q 407 957 469 957 q 350 969 374 957 q 306 997 326 982 q 264 1024 285 1011 q 220 1036 244 1036 q 161 1015 184 1036 q 115 956 138 994 l 33 1003 q 111 1104 65 1067 q 220 1141 157 1141 q 276 1128 253 1141 q 321 1101 300 1116 q 362 1074 342 1086 q 407 1061 382 1061 q 465 1083 441 1061 q 511 1143 489 1104 l 593 1096 z "},"Õ":{"ha":758,"x_min":-22,"x_max":656,"o":"m -22 443 q -3 614 -22 532 q 56 760 16 697 q 160 862 96 823 q 317 900 225 900 q 473 862 408 900 q 578 760 538 823 q 637 614 619 697 q 656 443 656 532 q 637 272 656 354 q 579 125 619 189 q 474 23 539 61 q 317 -16 410 -16 q 159 23 224 -16 q 54 125 94 61 q -4 272 14 189 q -22 443 -22 354 m 118 443 q 127 323 118 383 q 158 217 136 264 q 219 140 180 170 q 317 111 257 111 q 415 140 376 111 q 475 217 453 170 q 506 323 497 264 q 515 443 515 383 q 506 562 515 503 q 475 668 497 621 q 414 745 453 715 q 317 774 375 774 q 169 686 220 774 q 118 443 118 599 m 593 1096 q 515 994 561 1031 q 407 957 469 957 q 350 969 374 957 q 306 997 326 982 q 264 1024 285 1011 q 220 1036 244 1036 q 161 1015 184 1036 q 115 956 138 994 l 33 1003 q 111 1104 65 1067 q 220 1141 157 1141 q 276 1128 253 1141 q 321 1101 300 1116 q 362 1074 342 1086 q 407 1061 382 1061 q 465 1083 441 1061 q 511 1143 489 1104 l 593 1096 z "},"Œ":{"ha":758,"x_min":-11,"x_max":632,"o":"m 632 0 l 311 0 l 311 83 q 187 -16 275 -16 q -11 441 -11 -16 q 187 900 -11 900 q 262 873 231 900 q 311 799 293 847 l 311 885 l 632 885 l 632 758 l 404 758 l 404 514 l 571 514 l 571 387 l 404 387 l 404 126 l 632 126 l 632 0 m 268 441 q 265 576 268 515 q 256 681 262 637 q 235 749 249 725 q 200 774 221 774 q 165 749 179 774 q 143 681 151 725 q 132 576 135 637 q 129 441 129 515 q 132 307 129 368 q 143 202 135 245 q 165 135 151 158 q 200 111 179 111 q 235 135 221 111 q 256 202 249 158 q 265 307 262 245 q 268 441 268 368 z "},"œ":{"ha":758,"x_min":-18,"x_max":654,"o":"m 386 261 q 404 154 386 196 q 457 111 421 111 q 500 129 485 111 q 522 186 515 146 l 646 150 q 580 25 627 66 q 471 -16 533 -16 q 315 122 349 -16 q 172 -16 286 -16 q -18 317 -18 -16 q 172 647 -18 647 q 314 517 283 647 q 463 647 343 647 q 569 611 530 647 q 626 519 607 575 q 649 394 644 463 q 654 261 654 325 l 386 261 m 514 387 q 502 486 514 450 q 452 521 489 521 q 401 486 414 521 q 386 387 389 450 l 514 387 m 245 317 q 184 521 245 521 q 122 317 122 521 q 184 111 122 111 q 245 317 245 111 z "},"–":{"ha":758,"x_min":0,"x_max":632,"o":"m 0 261 l 0 387 l 632 387 l 632 261 l 0 261 z "},"—":{"ha":758,"x_min":-62,"x_max":696,"o":"m -62 261 l -62 387 l 696 387 l 696 261 l -62 261 z "},"“":{"ha":758,"x_min":0,"x_max":632,"o":"m 253 461 l 0 461 l 0 642 q 13 733 0 689 q 55 810 25 777 q 133 865 85 844 q 253 885 182 885 l 253 768 q 185 759 212 768 q 142 733 158 750 q 119 694 126 717 q 113 642 113 671 l 113 632 l 253 632 l 253 461 m 632 461 l 379 461 l 379 642 q 392 733 379 689 q 434 810 404 777 q 512 865 464 844 q 632 885 561 885 l 632 768 q 565 759 591 768 q 522 733 538 750 q 498 694 505 717 q 492 642 492 671 l 492 632 l 632 632 l 632 461 z "},"”":{"ha":758,"x_min":0,"x_max":632,"o":"m 379 885 l 632 885 l 632 704 q 620 613 632 657 q 577 535 607 570 q 499 481 547 501 q 379 461 450 461 l 379 578 q 490 612 460 578 q 519 704 519 647 l 519 714 l 379 714 l 379 885 m 0 885 l 253 885 l 253 704 q 240 613 253 657 q 198 535 228 570 q 119 481 168 501 q 0 461 71 461 l 0 578 q 111 612 81 578 q 140 704 140 647 l 140 714 l 0 714 l 0 885 z "},"‘":{"ha":758,"x_min":253,"x_max":505,"o":"m 505 461 l 253 461 l 253 642 q 266 733 253 689 q 308 810 278 777 q 386 865 338 844 q 505 885 435 885 l 505 768 q 438 759 465 768 q 395 733 411 750 q 372 694 379 717 q 366 642 366 671 l 366 632 l 505 632 l 505 461 z "},"’":{"ha":758,"x_min":126,"x_max":379,"o":"m 126 885 l 379 885 l 379 704 q 367 613 379 657 q 324 535 354 570 q 246 481 294 501 q 126 461 197 461 l 126 578 q 237 612 207 578 q 267 704 267 647 l 267 714 l 126 714 l 126 885 z "},"÷":{"ha":758,"x_min":0,"x_max":632,"o":"m 401 492 l 231 492 l 231 663 l 401 663 l 401 492 m 401 -14 l 231 -14 l 231 157 l 401 157 l 401 -14 m 632 261 l 0 261 l 0 388 l 632 388 l 632 261 z "},"◊":{"ha":758,"x_min":-12,"x_max":644,"o":"m 644 317 l 317 -11 l -12 317 l 317 646 l 644 317 m 513 317 l 317 514 l 118 317 l 317 119 l 513 317 z "},"ÿ":{"ha":758,"x_min":-4,"x_max":627,"o":"m 627 632 l 354 -123 q 265 -236 323 -205 q 126 -267 207 -267 q 66 -261 98 -267 q 0 -243 35 -256 l 29 -114 q 83 -129 58 -125 q 126 -134 107 -134 q 212 -78 189 -134 l 237 -17 l -4 632 l 142 632 l 315 154 l 476 632 l 627 632 m 528 714 l 357 714 l 357 885 l 528 885 l 528 714 m 275 714 l 104 714 l 104 885 l 275 885 l 275 714 z "},"Ÿ":{"ha":758,"x_min":-14,"x_max":646,"o":"m 646 758 l 582 758 l 386 361 l 386 126 l 528 126 l 528 0 l 104 0 l 104 126 l 245 126 l 245 361 l 50 758 l -14 758 l -14 885 l 265 885 l 265 758 l 204 758 l 317 498 l 428 758 l 367 758 l 367 885 l 646 885 l 646 758 m 528 966 l 357 966 l 357 1137 l 528 1137 l 528 966 m 275 966 l 104 966 l 104 1137 l 275 1137 l 275 966 z "},"⁄":{"ha":758,"x_min":-12,"x_max":647,"o":"m 647 852 l 81 -28 l -12 32 l 555 916 l 647 852 z "},"€":{"ha":758,"x_min":0,"x_max":646,"o":"m 0 615 l 117 615 q 149 727 127 675 q 203 818 171 779 q 280 879 236 857 q 382 900 325 900 q 480 879 437 900 q 556 821 524 859 q 610 730 589 783 q 646 612 632 677 l 522 587 q 475 728 505 682 q 383 774 446 774 q 299 728 329 774 q 256 615 269 682 l 379 615 l 379 497 l 243 497 q 241 470 241 484 q 241 443 241 457 q 241 415 241 428 q 243 387 241 401 l 379 387 l 379 269 l 256 269 q 299 156 269 201 q 383 111 329 111 q 473 157 444 111 q 522 296 503 203 l 646 271 q 610 153 632 205 q 556 62 589 100 q 480 5 524 25 q 382 -16 437 -16 q 280 6 325 -16 q 203 66 236 28 q 149 156 171 104 q 117 269 127 208 l 0 269 l 0 387 l 103 387 q 102 415 102 401 q 102 443 102 428 q 102 470 102 457 q 103 497 102 484 l 0 497 l 0 615 z "},"‹":{"ha":758,"x_min":135,"x_max":435,"o":"m 435 301 l 354 220 l 135 441 l 354 665 l 435 583 l 297 441 l 435 301 z "},"›":{"ha":758,"x_min":197,"x_max":497,"o":"m 335 441 l 197 583 l 278 665 l 497 441 l 278 220 l 197 301 l 335 441 z "},"ﬁ":{"ha":758,"x_min":0,"x_max":758,"o":"m 498 126 l 498 505 l 260 505 l 260 126 l 498 126 m 639 632 l 639 126 l 758 126 l 758 0 l 0 0 l 0 126 l 119 126 l 119 505 l 0 505 l 0 632 l 119 632 q 199 831 119 762 q 415 900 279 900 q 459 898 436 900 q 505 893 482 896 l 505 770 q 432 774 465 774 q 345 766 378 774 q 292 741 311 758 q 267 696 273 724 q 260 632 260 669 l 639 632 z "},"ﬂ":{"ha":758,"x_min":0,"x_max":758,"o":"m 0 0 l 0 126 l 119 126 l 119 505 l 0 505 l 0 632 l 119 632 q 199 831 119 762 q 415 900 279 900 q 538 895 481 900 q 639 882 595 890 l 639 126 l 758 126 l 758 0 l 0 0 m 498 770 q 465 773 482 772 q 432 774 447 774 q 345 766 378 774 q 292 741 311 758 q 267 696 273 724 q 260 632 260 669 l 424 632 l 424 505 l 260 505 l 260 126 l 498 126 l 498 770 z "},"‡":{"ha":758,"x_min":107,"x_max":528,"o":"m 528 278 l 367 288 l 375 126 l 258 126 l 268 288 l 107 278 l 107 395 l 268 386 l 268 625 l 107 615 l 107 733 l 268 724 l 258 885 l 375 885 l 367 724 l 528 733 l 528 615 l 367 625 l 367 386 l 528 395 l 528 278 z "},"·":{"ha":758,"x_min":231,"x_max":401,"o":"m 401 239 l 231 239 l 231 410 l 401 410 l 401 239 z "},"‚":{"ha":758,"x_min":378,"x_max":631,"o":"m 378 171 l 631 171 l 631 -10 q 619 -101 631 -57 q 576 -179 606 -144 q 498 -233 547 -213 q 378 -253 450 -253 l 378 -136 q 489 -102 459 -136 q 519 -10 519 -67 l 519 0 l 378 0 l 378 171 z "},"„":{"ha":758,"x_min":0,"x_max":632,"o":"m 379 171 l 632 171 l 632 -10 q 620 -101 632 -57 q 577 -179 607 -144 q 499 -233 547 -213 q 379 -253 450 -253 l 379 -136 q 490 -102 460 -136 q 519 -10 519 -67 l 519 0 l 379 0 l 379 171 m 0 171 l 253 171 l 253 -10 q 240 -101 253 -57 q 198 -179 228 -144 q 119 -233 168 -213 q 0 -253 71 -253 l 0 -136 q 111 -102 81 -136 q 140 -10 140 -67 l 140 0 l 0 0 l 0 171 z "},"‰":{"ha":758,"x_min":-18,"x_max":757,"o":"m 471 864 l 83 -26 l -18 18 l 370 911 l 471 864 m -17 728 q -9 794 -17 762 q 15 849 -1 827 q 58 886 32 872 q 119 900 83 900 q 181 886 155 900 q 223 849 207 872 q 248 794 240 827 q 256 728 256 762 q 248 661 256 692 q 223 606 240 629 q 181 569 207 583 q 119 555 155 555 q 58 569 83 555 q 15 606 32 583 q -9 661 -1 629 q -17 728 -17 692 m 85 729 q 95 675 85 692 q 119 659 104 659 q 145 675 135 659 q 155 729 155 692 q 145 783 155 766 q 119 800 135 800 q 95 783 104 800 q 85 729 85 766 m 300 160 q 310 105 300 122 q 335 89 319 89 q 360 105 350 89 q 371 160 371 122 q 360 214 371 197 q 335 231 350 231 q 310 214 319 231 q 300 160 300 197 m 586 160 q 596 105 586 122 q 621 89 606 89 q 647 105 636 89 q 657 160 657 122 q 647 214 657 197 q 621 231 636 231 q 596 214 606 231 q 586 160 586 197 m 199 157 q 206 224 199 192 q 231 278 214 256 q 273 315 248 301 q 335 329 298 329 q 397 315 371 329 q 439 278 422 301 q 463 224 456 256 q 471 157 471 192 q 463 90 471 121 q 439 35 456 58 q 397 -2 422 12 q 335 -16 371 -16 q 273 -2 298 -16 q 231 35 248 12 q 206 90 214 58 q 199 157 199 121 m 485 157 q 492 224 485 192 q 516 278 500 256 q 559 315 533 301 q 621 329 585 329 q 683 315 657 329 q 725 278 708 301 q 749 224 742 256 q 757 157 757 192 q 749 90 757 121 q 725 35 742 58 q 683 -2 708 12 q 621 -16 657 -16 q 559 -2 585 -16 q 516 35 533 12 q 492 90 500 58 q 485 157 485 121 z "},"Â":{"ha":758,"x_min":-40,"x_max":673,"o":"m 526 0 l 463 211 l 170 211 l 107 0 l -40 0 l 236 885 l 397 885 l 673 0 l 526 0 m 207 335 l 425 335 l 317 700 l 207 335 m 536 987 l 482 918 l 318 1057 l 151 917 l 97 985 l 317 1200 l 536 987 z "},"Ê":{"ha":758,"x_min":33,"x_max":599,"o":"m 599 0 l 33 0 l 33 885 l 599 885 l 599 758 l 174 758 l 174 514 l 505 514 l 505 387 l 174 387 l 174 126 l 599 126 l 599 0 m 536 987 l 482 918 l 318 1057 l 151 917 l 97 985 l 317 1200 l 536 987 z "},"Á":{"ha":758,"x_min":-40,"x_max":673,"o":"m 526 0 l 463 211 l 170 211 l 107 0 l -40 0 l 236 885 l 397 885 l 673 0 l 526 0 m 207 335 l 425 335 l 317 700 l 207 335 m 482 1082 l 189 917 l 129 1010 l 403 1204 l 482 1082 z "},"Ë":{"ha":758,"x_min":33,"x_max":599,"o":"m 599 0 l 33 0 l 33 885 l 599 885 l 599 758 l 174 758 l 174 514 l 505 514 l 505 387 l 174 387 l 174 126 l 599 126 l 599 0 m 528 966 l 357 966 l 357 1137 l 528 1137 l 528 966 m 275 966 l 104 966 l 104 1137 l 275 1137 l 275 966 z "},"È":{"ha":758,"x_min":33,"x_max":599,"o":"m 599 0 l 33 0 l 33 885 l 599 885 l 599 758 l 174 758 l 174 514 l 505 514 l 505 387 l 174 387 l 174 126 l 599 126 l 599 0 m 233 1204 l 507 1010 l 447 917 l 154 1082 l 233 1204 z "},"Í":{"ha":758,"x_min":106,"x_max":530,"o":"m 530 0 l 106 0 l 106 126 l 245 126 l 245 758 l 106 758 l 106 885 l 530 885 l 530 758 l 386 758 l 386 126 l 530 126 l 530 0 m 482 1082 l 189 917 l 129 1010 l 403 1204 l 482 1082 z "},"Î":{"ha":758,"x_min":97,"x_max":536,"o":"m 530 0 l 106 0 l 106 126 l 245 126 l 245 758 l 106 758 l 106 885 l 530 885 l 530 758 l 386 758 l 386 126 l 530 126 l 530 0 m 536 987 l 482 918 l 318 1057 l 151 917 l 97 985 l 317 1200 l 536 987 z "},"Ï":{"ha":758,"x_min":104,"x_max":530,"o":"m 530 0 l 106 0 l 106 126 l 245 126 l 245 758 l 106 758 l 106 885 l 530 885 l 530 758 l 386 758 l 386 126 l 530 126 l 530 0 m 528 966 l 357 966 l 357 1137 l 528 1137 l 528 966 m 275 966 l 104 966 l 104 1137 l 275 1137 l 275 966 z "},"Ì":{"ha":758,"x_min":106,"x_max":530,"o":"m 530 0 l 106 0 l 106 126 l 245 126 l 245 758 l 106 758 l 106 885 l 530 885 l 530 758 l 386 758 l 386 126 l 530 126 l 530 0 m 233 1204 l 507 1010 l 447 917 l 154 1082 l 233 1204 z "},"Ó":{"ha":758,"x_min":-22,"x_max":656,"o":"m -22 443 q -3 614 -22 532 q 56 760 16 697 q 160 862 96 823 q 317 900 225 900 q 473 862 408 900 q 578 760 538 823 q 637 614 619 697 q 656 443 656 532 q 637 272 656 354 q 579 125 619 189 q 474 23 539 61 q 317 -16 410 -16 q 159 23 224 -16 q 54 125 94 61 q -4 272 14 189 q -22 443 -22 354 m 118 443 q 127 323 118 383 q 158 217 136 264 q 219 140 180 170 q 317 111 257 111 q 415 140 376 111 q 475 217 453 170 q 506 323 497 264 q 515 443 515 383 q 506 562 515 503 q 475 668 497 621 q 414 745 453 715 q 317 774 375 774 q 169 686 220 774 q 118 443 118 599 m 482 1082 l 189 917 l 129 1010 l 403 1204 l 482 1082 z "},"Ô":{"ha":758,"x_min":-22,"x_max":656,"o":"m -22 443 q -3 614 -22 532 q 56 760 16 697 q 160 862 96 823 q 317 900 225 900 q 473 862 408 900 q 578 760 538 823 q 637 614 619 697 q 656 443 656 532 q 637 272 656 354 q 579 125 619 189 q 474 23 539 61 q 317 -16 410 -16 q 159 23 224 -16 q 54 125 94 61 q -4 272 14 189 q -22 443 -22 354 m 118 443 q 127 323 118 383 q 158 217 136 264 q 219 140 180 170 q 317 111 257 111 q 415 140 376 111 q 475 217 453 170 q 506 323 497 264 q 515 443 515 383 q 506 562 515 503 q 475 668 497 621 q 414 745 453 715 q 317 774 375 774 q 169 686 220 774 q 118 443 118 599 m 536 987 l 482 918 l 318 1057 l 151 917 l 97 985 l 317 1200 l 536 987 z "},"":{"ha":758,"x_min":1,"x_max":765,"o":"m 555 911 q 506 753 555 810 q 376 690 456 697 q 555 911 378 871 m 765 245 q 736 175 755 216 q 690 95 717 134 q 629 29 663 57 q 557 1 595 1 q 517 7 536 1 q 478 19 497 12 q 438 32 458 26 q 397 37 418 37 q 357 32 376 37 q 319 19 338 26 q 283 5 301 11 q 248 0 265 0 q 157 42 201 0 q 78 146 113 83 q 22 282 43 210 q 1 418 1 355 q 15 519 1 468 q 54 610 28 570 q 122 675 81 650 q 220 701 163 701 q 268 696 244 701 q 313 685 292 692 q 353 674 334 679 q 392 669 372 669 q 435 675 414 669 q 477 688 456 681 q 520 700 498 694 q 566 705 542 705 q 739 615 665 705 q 640 437 640 532 q 649 378 640 408 q 673 322 657 349 q 712 276 689 296 q 765 245 736 256 z "},"Ò":{"ha":758,"x_min":-22,"x_max":656,"o":"m -22 443 q -3 614 -22 532 q 56 760 16 697 q 160 862 96 823 q 317 900 225 900 q 473 862 408 900 q 578 760 538 823 q 637 614 619 697 q 656 443 656 532 q 637 272 656 354 q 579 125 619 189 q 474 23 539 61 q 317 -16 410 -16 q 159 23 224 -16 q 54 125 94 61 q -4 272 14 189 q -22 443 -22 354 m 118 443 q 127 323 118 383 q 158 217 136 264 q 219 140 180 170 q 317 111 257 111 q 415 140 376 111 q 475 217 453 170 q 506 323 497 264 q 515 443 515 383 q 506 562 515 503 q 475 668 497 621 q 414 745 453 715 q 317 774 375 774 q 169 686 220 774 q 118 443 118 599 m 233 1204 l 507 1010 l 447 917 l 154 1082 l 233 1204 z "},"Ú":{"ha":758,"x_min":33,"x_max":599,"o":"m 599 315 q 582 179 599 240 q 531 75 566 118 q 442 8 496 32 q 315 -16 389 -16 q 189 8 241 -16 q 101 75 136 32 q 50 180 66 118 q 33 317 33 241 l 33 885 l 174 885 l 174 315 q 178 247 174 282 q 198 180 183 211 q 241 131 212 150 q 315 111 269 111 q 389 131 361 111 q 433 180 418 150 q 454 246 449 210 q 458 315 458 282 l 458 885 l 599 885 l 599 315 m 482 1082 l 189 917 l 129 1010 l 403 1204 l 482 1082 z "},"Û":{"ha":758,"x_min":33,"x_max":599,"o":"m 599 315 q 582 179 599 240 q 531 75 566 118 q 442 8 496 32 q 315 -16 389 -16 q 189 8 241 -16 q 101 75 136 32 q 50 180 66 118 q 33 317 33 241 l 33 885 l 174 885 l 174 315 q 178 247 174 282 q 198 180 183 211 q 241 131 212 150 q 315 111 269 111 q 389 131 361 111 q 433 180 418 150 q 454 246 449 210 q 458 315 458 282 l 458 885 l 599 885 l 599 315 m 536 987 l 482 918 l 318 1057 l 151 917 l 97 985 l 317 1200 l 536 987 z "},"Ù":{"ha":758,"x_min":33,"x_max":599,"o":"m 599 315 q 582 179 599 240 q 531 75 566 118 q 442 8 496 32 q 315 -16 389 -16 q 189 8 241 -16 q 101 75 136 32 q 50 180 66 118 q 33 317 33 241 l 33 885 l 174 885 l 174 315 q 178 247 174 282 q 198 180 183 211 q 241 131 212 150 q 315 111 269 111 q 389 131 361 111 q 433 180 418 150 q 454 246 449 210 q 458 315 458 282 l 458 885 l 599 885 l 599 315 m 233 1204 l 507 1010 l 447 917 l 154 1082 l 233 1204 z "},"ı":{"ha":758,"x_min":106,"x_max":530,"o":"m 530 0 l 106 0 l 106 126 l 245 126 l 245 505 l 106 505 l 106 632 l 386 632 l 386 126 l 530 126 l 530 0 z "},"ˆ":{"ha":758,"x_min":97,"x_max":536,"o":"m 536 736 l 482 667 l 318 806 l 151 665 l 97 733 l 317 949 l 536 736 z "},"˜":{"ha":758,"x_min":33,"x_max":593,"o":"m 593 844 q 515 742 561 779 q 407 705 469 705 q 350 718 374 705 q 306 745 326 730 q 264 772 285 760 q 220 785 244 785 q 161 763 184 785 q 115 704 138 742 l 33 751 q 111 852 65 815 q 220 889 157 889 q 276 877 253 889 q 321 849 300 864 q 362 822 342 835 q 407 810 382 810 q 465 831 441 810 q 511 892 489 852 l 593 844 z "},"¯":{"ha":758,"x_min":126,"x_max":505,"o":"m 505 708 l 126 708 l 126 827 l 505 827 l 505 708 z "},"˘":{"ha":758,"x_min":94,"x_max":539,"o":"m 539 791 q 317 700 447 700 q 94 791 186 700 l 176 872 q 317 808 240 808 q 457 872 393 808 l 539 791 z "},"˙":{"ha":758,"x_min":231,"x_max":401,"o":"m 401 714 l 231 714 l 231 885 l 401 885 l 401 714 z "},"˚":{"ha":758,"x_min":164,"x_max":469,"o":"m 164 852 q 176 912 164 885 q 208 961 187 940 q 257 994 229 982 q 317 1006 285 1006 q 376 994 349 1006 q 425 961 404 982 q 457 912 446 940 q 469 852 469 885 q 457 793 469 821 q 425 744 446 765 q 376 712 404 724 q 317 700 349 700 q 257 712 285 700 q 208 744 229 724 q 176 793 187 765 q 164 852 164 821 m 254 852 q 272 808 254 827 q 317 790 290 790 q 361 808 343 790 q 379 852 379 827 q 361 897 379 879 q 317 916 343 916 q 272 897 290 916 q 254 852 254 879 z "},"¸":{"ha":758,"x_min":164,"x_max":400,"o":"m 400 -28 q 384 -116 400 -75 q 338 -186 368 -157 q 263 -234 307 -216 q 164 -252 220 -252 l 164 -131 q 252 -104 224 -131 q 281 -28 281 -77 l 281 0 l 400 0 l 400 -28 z "},"˝":{"ha":758,"x_min":106,"x_max":600,"o":"m 473 694 l 357 694 l 453 949 l 600 949 l 473 694 m 221 694 l 106 694 l 200 949 l 347 949 l 221 694 z "},"˛":{"ha":758,"x_min":475,"x_max":673,"o":"m 673 -257 q 528 -217 582 -257 q 475 -96 475 -176 q 498 -17 475 -52 q 554 37 522 18 l 597 0 q 571 -71 571 -29 q 601 -135 571 -114 q 673 -157 631 -157 l 673 -257 z "},"ˇ":{"ha":758,"x_min":97,"x_max":536,"o":"m 317 665 l 97 880 l 151 949 l 318 808 l 482 947 l 536 878 l 317 665 z "},"\"":{"ha":758,"x_min":106,"x_max":526,"o":"m 526 885 l 496 546 l 389 546 l 358 885 l 526 885 m 273 885 l 243 546 l 136 546 l 106 885 l 273 885 z "},"!":{"ha":758,"x_min":224,"x_max":408,"o":"m 408 885 l 374 253 l 258 253 l 224 885 l 408 885 m 401 0 l 231 0 l 231 171 l 401 171 l 401 0 z "},"":{"ha":758,"x_min":204,"x_max":464,"o":"m 464 -74 l 334 -253 l 204 -253 l 275 -74 l 464 -74 z "},"¤":{"ha":758,"x_min":-41,"x_max":672,"o":"m 591 636 q 632 547 618 596 q 647 441 647 498 q 632 336 647 385 q 591 248 618 288 l 672 167 l 590 85 l 510 165 q 315 111 431 111 q 121 165 200 111 l 40 85 l -41 167 l 39 248 q -2 336 12 288 q -16 441 -16 385 q 39 635 -16 553 l -41 717 l 40 799 l 121 718 q 315 774 201 774 q 421 759 372 774 q 510 718 469 745 l 590 799 l 672 717 l 591 636 m 507 441 q 494 523 507 485 q 456 588 481 561 q 395 631 431 615 q 315 647 359 647 q 235 631 271 647 q 176 588 200 615 q 138 523 151 561 q 125 441 125 485 q 138 360 125 397 q 176 296 151 323 q 235 253 200 268 q 315 237 271 237 q 395 253 359 237 q 456 296 431 268 q 494 360 481 323 q 507 441 507 397 z "},"¦":{"ha":758,"x_min":245,"x_max":386,"o":"m 386 -126 l 245 -126 l 245 392 l 386 392 l 386 -126 m 386 493 l 245 493 l 245 1011 l 386 1011 l 386 493 z "},"­":{"ha":758,"x_min":0,"x_max":632,"o":"m 632 261 l 0 261 l 0 388 l 632 388 l 632 261 z "},"²":{"ha":758,"x_min":18,"x_max":304,"o":"m 304 779 q 292 726 304 750 q 258 682 279 701 l 164 591 l 302 591 l 302 505 l 29 505 l 29 591 l 175 733 q 192 753 187 745 q 197 777 197 762 q 188 796 197 789 q 165 803 178 803 q 133 788 143 803 q 122 734 122 774 l 18 734 q 165 892 18 892 q 215 885 191 892 q 260 864 240 878 q 293 829 281 850 q 304 779 304 808 z "},"³":{"ha":758,"x_min":17,"x_max":304,"o":"m 304 621 q 266 539 304 575 q 168 504 228 504 q 17 637 31 504 l 119 647 q 167 590 125 590 q 190 599 180 590 q 200 624 200 608 q 185 660 200 650 q 139 671 171 671 l 139 737 q 193 775 193 737 q 163 803 193 803 q 137 789 147 803 q 126 747 126 775 l 25 747 q 66 854 25 818 q 168 888 106 888 q 262 858 228 888 q 297 781 297 828 q 254 707 297 730 q 304 621 304 671 z "},"¹":{"ha":758,"x_min":0,"x_max":281,"o":"m 281 505 l 52 505 l 52 591 l 113 591 l 113 750 q 75 724 102 737 q 0 710 47 710 l 0 802 q 38 808 18 802 q 74 825 57 814 q 101 851 90 836 q 113 885 113 867 l 220 885 l 220 591 l 281 591 l 281 505 z "},"¼":{"ha":758,"x_min":-12,"x_max":647,"o":"m 647 852 l 81 -28 l -12 32 l 555 916 l 647 852 m 281 505 l 52 505 l 52 591 l 113 591 l 113 750 q 75 724 102 737 q 0 710 47 710 l 0 802 q 38 808 18 802 q 74 825 57 814 q 101 851 90 836 q 113 885 113 867 l 220 885 l 220 591 l 281 591 l 281 505 m 578 0 l 472 0 l 472 77 l 338 77 l 338 179 l 482 379 l 578 379 l 578 164 l 639 164 l 639 77 l 578 77 l 578 0 m 472 164 l 472 235 l 418 164 l 472 164 z "},"½":{"ha":758,"x_min":-12,"x_max":647,"o":"m 640 273 q 628 220 640 244 q 595 176 615 196 l 500 86 l 639 86 l 639 0 l 366 0 l 366 86 l 511 228 q 528 248 524 239 q 533 271 533 257 q 524 290 533 283 q 501 297 514 297 q 469 282 479 297 q 458 229 458 268 l 354 229 q 501 386 354 386 q 551 379 526 386 q 596 358 576 372 q 628 323 616 345 q 640 273 640 302 m 647 852 l 81 -28 l -12 32 l 555 916 l 647 852 m 281 505 l 52 505 l 52 591 l 113 591 l 113 750 q 75 724 102 737 q 0 710 47 710 l 0 802 q 38 808 18 802 q 74 825 57 814 q 101 851 90 836 q 113 885 113 867 l 220 885 l 220 591 l 281 591 l 281 505 z "},"¾":{"ha":758,"x_min":-12,"x_max":647,"o":"m 304 621 q 266 539 304 575 q 168 504 228 504 q 17 637 31 504 l 119 647 q 167 590 125 590 q 190 599 180 590 q 200 624 200 608 q 185 660 200 650 q 139 671 171 671 l 139 737 q 193 775 193 737 q 163 803 193 803 q 137 789 147 803 q 126 747 126 775 l 25 747 q 66 854 25 818 q 168 888 106 888 q 262 858 228 888 q 297 781 297 828 q 254 707 297 730 q 304 621 304 671 m 578 0 l 472 0 l 472 77 l 338 77 l 338 179 l 482 379 l 578 379 l 578 164 l 639 164 l 639 77 l 578 77 l 578 0 m 472 164 l 472 235 l 418 164 l 472 164 m 647 852 l 81 -28 l -12 32 l 555 916 l 647 852 z "},"Ð":{"ha":758,"x_min":-79,"x_max":661,"o":"m -79 514 l 33 514 l 33 885 l 321 885 q 476 849 411 885 q 582 752 541 812 q 642 612 623 692 q 661 443 661 532 q 643 274 661 354 q 583 133 624 193 q 477 36 542 72 q 321 0 412 0 l 33 0 l 33 387 l -79 387 l -79 514 m 521 443 q 469 677 521 596 q 321 758 416 758 l 174 758 l 174 514 l 298 514 l 298 387 l 174 387 l 174 126 l 321 126 q 469 209 416 126 q 521 443 521 292 z "},"×":{"ha":758,"x_min":53,"x_max":581,"o":"m 581 507 l 397 324 l 581 140 l 498 60 l 317 243 l 134 60 l 53 140 l 235 324 l 53 507 l 134 588 l 317 404 l 498 588 l 581 507 z "},"Ý":{"ha":758,"x_min":-14,"x_max":646,"o":"m 646 758 l 582 758 l 386 361 l 386 126 l 528 126 l 528 0 l 104 0 l 104 126 l 245 126 l 245 361 l 50 758 l -14 758 l -14 885 l 265 885 l 265 758 l 204 758 l 317 498 l 428 758 l 367 758 l 367 885 l 646 885 l 646 758 m 482 1082 l 189 917 l 129 1010 l 403 1204 l 482 1082 z "},"Þ":{"ha":758,"x_min":33,"x_max":632,"o":"m 632 450 q 551 253 632 317 q 326 189 471 189 l 174 189 l 174 0 l 33 0 l 33 885 l 174 885 l 174 711 l 325 711 q 551 646 471 711 q 632 450 632 581 m 493 450 q 448 551 493 518 q 326 585 403 585 l 174 585 l 174 315 l 326 315 q 448 348 403 315 q 493 450 493 380 z "},"ð":{"ha":758,"x_min":-14,"x_max":644,"o":"m 158 663 l 233 737 q 186 759 210 749 q 136 778 163 768 l 179 900 q 255 868 218 885 q 328 832 292 851 l 427 930 l 507 848 l 429 771 q 516 694 476 736 q 584 603 555 653 q 628 494 612 553 q 644 364 644 435 q 620 207 644 277 q 550 87 596 136 q 439 11 504 37 q 292 -16 374 -16 q 70 50 153 -16 q -14 240 -14 115 q 19 365 -14 310 q 112 461 52 419 q 257 531 172 503 q 446 576 342 559 q 339 681 404 636 l 239 581 l 158 663 m 504 364 q 496 454 504 412 q 224 383 322 439 q 126 240 126 328 q 170 144 126 178 q 292 111 214 111 q 445 176 386 111 q 504 364 504 241 z "},"ý":{"ha":758,"x_min":-4,"x_max":627,"o":"m 627 632 l 354 -123 q 265 -236 323 -205 q 126 -267 207 -267 q 66 -261 98 -267 q 0 -243 35 -256 l 29 -114 q 83 -129 58 -125 q 126 -134 107 -134 q 212 -78 189 -134 l 237 -17 l -4 632 l 142 632 l 315 154 l 476 632 l 627 632 m 482 831 l 189 665 l 129 758 l 403 953 l 482 831 z "},"þ":{"ha":758,"x_min":33,"x_max":632,"o":"m 33 885 l 174 885 l 174 575 q 255 629 214 611 q 349 647 296 647 q 462 622 410 647 q 551 554 514 597 q 610 449 589 510 q 632 315 632 387 q 610 182 632 243 q 551 77 589 121 q 462 9 514 33 q 349 -16 410 -16 q 255 3 296 -16 q 174 58 214 22 l 174 -253 l 33 -253 l 33 885 m 174 168 q 238 126 199 140 q 313 111 277 111 q 442 168 392 111 q 492 315 492 224 q 442 464 492 407 q 313 521 392 521 q 238 506 277 521 q 174 464 199 492 l 174 168 z "},"Ā":{"ha":758,"x_min":-40,"x_max":673,"o":"m 526 0 l 463 211 l 170 211 l 107 0 l -40 0 l 236 885 l 397 885 l 673 0 l 526 0 m 207 335 l 425 335 l 317 700 l 207 335 m 505 960 l 126 960 l 126 1078 l 505 1078 l 505 960 z "},"ā":{"ha":758,"x_min":-3,"x_max":597,"o":"m -3 182 q 27 279 -3 237 q 105 349 57 321 q 217 390 154 376 q 345 404 279 404 q 406 403 380 404 q 458 399 432 401 l 458 424 q 420 498 458 473 q 319 522 382 522 q 203 506 262 522 q 92 460 144 490 l 35 570 q 169 626 97 606 q 319 647 240 647 q 421 635 371 647 q 510 597 471 624 q 574 529 550 571 q 597 424 597 486 l 597 0 l 458 0 l 458 93 q 360 13 425 41 q 221 -16 296 -16 q 134 -3 175 -16 q 63 35 93 9 q 15 97 33 60 q -3 182 -3 134 m 257 110 q 335 120 298 110 q 399 150 371 131 q 443 195 427 168 q 458 253 458 221 l 458 277 q 396 283 425 282 q 345 283 367 283 q 189 256 241 283 q 136 189 136 229 q 257 110 136 110 m 505 708 l 126 708 l 126 827 l 505 827 l 505 708 z "},"Ă":{"ha":758,"x_min":-40,"x_max":673,"o":"m 526 0 l 463 211 l 170 211 l 107 0 l -40 0 l 236 885 l 397 885 l 673 0 l 526 0 m 207 335 l 425 335 l 317 700 l 207 335 m 539 1043 q 317 951 447 951 q 94 1043 186 951 l 176 1124 q 317 1060 240 1060 q 457 1124 393 1060 l 539 1043 z "},"ă":{"ha":758,"x_min":-3,"x_max":597,"o":"m -3 182 q 27 279 -3 237 q 105 349 57 321 q 217 390 154 376 q 345 404 279 404 q 406 403 380 404 q 458 399 432 401 l 458 424 q 420 498 458 473 q 319 522 382 522 q 203 506 262 522 q 92 460 144 490 l 35 570 q 169 626 97 606 q 319 647 240 647 q 421 635 371 647 q 510 597 471 624 q 574 529 550 571 q 597 424 597 486 l 597 0 l 458 0 l 458 93 q 360 13 425 41 q 221 -16 296 -16 q 134 -3 175 -16 q 63 35 93 9 q 15 97 33 60 q -3 182 -3 134 m 257 110 q 335 120 298 110 q 399 150 371 131 q 443 195 427 168 q 458 253 458 221 l 458 277 q 396 283 425 282 q 345 283 367 283 q 189 256 241 283 q 136 189 136 229 q 257 110 136 110 m 539 791 q 317 700 447 700 q 94 791 186 700 l 176 872 q 317 808 240 808 q 457 872 393 808 l 539 791 z "},"Ą":{"ha":758,"x_min":-40,"x_max":750,"o":"m 750 -257 q 605 -217 659 -257 q 551 -96 551 -176 q 561 -44 551 -68 q 587 0 571 -20 l 526 0 l 463 211 l 170 211 l 107 0 l -40 0 l 236 885 l 397 885 l 673 0 q 647 -71 647 -29 q 677 -135 647 -114 q 750 -157 707 -157 l 750 -257 m 207 335 l 425 335 l 317 700 l 207 335 z "},"ą":{"ha":758,"x_min":-3,"x_max":673,"o":"m 458 93 q 360 13 425 41 q 221 -16 296 -16 q 134 -3 175 -16 q 63 35 93 9 q 15 97 33 60 q -3 182 -3 134 q 27 279 -3 237 q 105 349 57 321 q 217 390 154 376 q 345 404 279 404 q 406 403 380 404 q 458 399 432 401 l 458 424 q 420 498 458 473 q 319 522 382 522 q 203 506 262 522 q 92 460 144 490 l 35 570 q 169 626 97 606 q 319 647 240 647 q 421 635 371 647 q 510 597 471 624 q 574 529 550 571 q 597 424 597 486 l 597 0 q 571 -71 571 -29 q 601 -135 571 -114 q 673 -157 631 -157 l 673 -257 q 528 -217 582 -257 q 475 -96 475 -176 q 485 -44 475 -68 q 511 0 494 -20 l 458 0 l 458 93 m 257 110 q 335 120 298 110 q 399 150 371 131 q 443 195 427 168 q 458 253 458 221 l 458 277 q 396 283 425 282 q 345 283 367 283 q 189 256 241 283 q 136 189 136 229 q 257 110 136 110 z "},"Ć":{"ha":758,"x_min":-14,"x_max":646,"o":"m 646 271 q 602 153 629 205 q 536 62 575 100 q 445 5 497 25 q 326 -16 393 -16 q 169 23 233 -16 q 63 125 104 61 q 4 272 22 189 q -14 443 -14 354 q 4 614 -14 532 q 63 760 22 697 q 165 862 103 823 q 318 900 228 900 q 377 892 347 900 q 433 870 407 885 q 478 832 458 854 q 505 781 497 810 l 505 885 l 632 885 l 632 550 l 505 550 q 495 632 505 591 q 463 703 485 672 q 406 754 440 734 q 326 774 372 774 q 229 745 267 774 q 168 668 191 715 q 135 562 144 621 q 126 443 126 503 q 135 323 126 383 q 167 217 144 264 q 228 140 189 170 q 326 111 267 111 q 459 166 412 111 q 533 314 505 221 l 646 271 m 482 1085 l 189 920 l 129 1013 l 403 1207 l 482 1085 z "},"ć":{"ha":758,"x_min":-14,"x_max":608,"o":"m 608 90 q 480 7 547 29 q 334 -16 412 -16 q 190 8 254 -16 q 80 75 125 32 q 11 179 35 118 q -14 315 -14 240 q 11 449 -14 387 q 76 554 35 510 q 172 622 117 597 q 290 647 228 647 q 404 620 355 647 q 473 541 452 593 l 473 632 l 599 632 l 599 338 l 473 338 q 428 471 473 421 q 309 521 382 521 q 247 509 279 521 q 188 472 215 497 q 144 408 161 447 q 126 315 126 370 q 143 224 126 262 q 188 161 160 186 q 253 124 215 136 q 330 111 290 111 q 449 133 399 111 q 536 189 500 154 l 608 90 m 482 832 l 189 667 l 129 760 l 403 954 l 482 832 z "},"Ĉ":{"ha":758,"x_min":-14,"x_max":646,"o":"m 646 271 q 602 153 629 205 q 536 62 575 100 q 445 5 497 25 q 326 -16 393 -16 q 169 23 233 -16 q 63 125 104 61 q 4 272 22 189 q -14 443 -14 354 q 4 614 -14 532 q 63 760 22 697 q 165 862 103 823 q 318 900 228 900 q 377 892 347 900 q 433 870 407 885 q 478 832 458 854 q 505 781 497 810 l 505 885 l 632 885 l 632 550 l 505 550 q 495 632 505 591 q 463 703 485 672 q 406 754 440 734 q 326 774 372 774 q 229 745 267 774 q 168 668 191 715 q 135 562 144 621 q 126 443 126 503 q 135 323 126 383 q 167 217 144 264 q 228 140 189 170 q 326 111 267 111 q 459 166 412 111 q 533 314 505 221 l 646 271 m 536 990 l 482 921 l 318 1060 l 151 920 l 97 987 l 317 1203 l 536 990 z "},"ĉ":{"ha":758,"x_min":-14,"x_max":608,"o":"m 608 90 q 480 7 547 29 q 334 -16 412 -16 q 190 8 254 -16 q 80 75 125 32 q 11 179 35 118 q -14 315 -14 240 q 11 449 -14 387 q 76 554 35 510 q 172 622 117 597 q 290 647 228 647 q 404 620 355 647 q 473 541 452 593 l 473 632 l 599 632 l 599 338 l 473 338 q 428 471 473 421 q 309 521 382 521 q 247 509 279 521 q 188 472 215 497 q 144 408 161 447 q 126 315 126 370 q 143 224 126 262 q 188 161 160 186 q 253 124 215 136 q 330 111 290 111 q 449 133 399 111 q 536 189 500 154 l 608 90 m 536 737 l 482 668 l 318 807 l 151 667 l 97 734 l 317 950 l 536 737 z "},"Ċ":{"ha":758,"x_min":-14,"x_max":646,"o":"m 646 271 q 602 153 629 205 q 536 62 575 100 q 445 5 497 25 q 326 -16 393 -16 q 169 23 233 -16 q 63 125 104 61 q 4 272 22 189 q -14 443 -14 354 q 4 614 -14 532 q 63 760 22 697 q 165 862 103 823 q 318 900 228 900 q 377 892 347 900 q 433 870 407 885 q 478 832 458 854 q 505 781 497 810 l 505 885 l 632 885 l 632 550 l 505 550 q 495 632 505 591 q 463 703 485 672 q 406 754 440 734 q 326 774 372 774 q 229 745 267 774 q 168 668 191 715 q 135 562 144 621 q 126 443 126 503 q 135 323 126 383 q 167 217 144 264 q 228 140 189 170 q 326 111 267 111 q 459 166 412 111 q 533 314 505 221 l 646 271 m 401 966 l 231 966 l 231 1137 l 401 1137 l 401 966 z "},"ċ":{"ha":758,"x_min":-14,"x_max":608,"o":"m 608 90 q 480 7 547 29 q 334 -16 412 -16 q 190 8 254 -16 q 80 75 125 32 q 11 179 35 118 q -14 315 -14 240 q 11 449 -14 387 q 76 554 35 510 q 172 622 117 597 q 290 647 228 647 q 404 620 355 647 q 473 541 452 593 l 473 632 l 599 632 l 599 338 l 473 338 q 428 471 473 421 q 309 521 382 521 q 247 509 279 521 q 188 472 215 497 q 144 408 161 447 q 126 315 126 370 q 143 224 126 262 q 188 161 160 186 q 253 124 215 136 q 330 111 290 111 q 449 133 399 111 q 536 189 500 154 l 608 90 m 401 714 l 231 714 l 231 885 l 401 885 l 401 714 z "},"Č":{"ha":758,"x_min":-14,"x_max":646,"o":"m 646 271 q 602 153 629 205 q 536 62 575 100 q 445 5 497 25 q 326 -16 393 -16 q 169 23 233 -16 q 63 125 104 61 q 4 272 22 189 q -14 443 -14 354 q 4 614 -14 532 q 63 760 22 697 q 165 862 103 823 q 318 900 228 900 q 377 892 347 900 q 433 870 407 885 q 478 832 458 854 q 505 781 497 810 l 505 885 l 632 885 l 632 550 l 505 550 q 495 632 505 591 q 463 703 485 672 q 406 754 440 734 q 326 774 372 774 q 229 745 267 774 q 168 668 191 715 q 135 562 144 621 q 126 443 126 503 q 135 323 126 383 q 167 217 144 264 q 228 140 189 170 q 326 111 267 111 q 459 166 412 111 q 533 314 505 221 l 646 271 m 317 920 l 97 1135 l 151 1203 l 318 1063 l 482 1202 l 536 1132 l 317 920 z "},"č":{"ha":758,"x_min":-14,"x_max":608,"o":"m 608 90 q 480 7 547 29 q 334 -16 412 -16 q 190 8 254 -16 q 80 75 125 32 q 11 179 35 118 q -14 315 -14 240 q 11 449 -14 387 q 76 554 35 510 q 172 622 117 597 q 290 647 228 647 q 404 620 355 647 q 473 541 452 593 l 473 632 l 599 632 l 599 338 l 473 338 q 428 471 473 421 q 309 521 382 521 q 247 509 279 521 q 188 472 215 497 q 144 408 161 447 q 126 315 126 370 q 143 224 126 262 q 188 161 160 186 q 253 124 215 136 q 330 111 290 111 q 449 133 399 111 q 536 189 500 154 l 608 90 m 317 667 l 97 882 l 151 950 l 318 810 l 482 949 l 536 879 l 317 667 z "},"Ď":{"ha":758,"x_min":33,"x_max":661,"o":"m 661 443 q 643 274 661 354 q 583 133 624 193 q 477 36 542 72 q 321 0 412 0 l 33 0 l 33 885 l 321 885 q 476 849 411 885 q 582 752 541 812 q 642 612 623 692 q 661 443 661 532 m 521 443 q 469 677 521 596 q 321 758 416 758 l 174 758 l 174 126 l 321 126 q 469 209 416 126 q 521 443 521 292 m 317 920 l 97 1135 l 151 1203 l 318 1063 l 482 1202 l 536 1132 l 317 920 z "},"ď":{"ha":758,"x_min":-14,"x_max":758,"o":"m 519 0 l 379 0 l 379 58 q 308 3 345 22 q 228 -16 272 -16 q 131 9 175 -16 q 55 77 87 33 q 4 182 22 121 q -14 315 -14 243 q 4 449 -14 387 q 55 554 22 510 q 131 622 87 597 q 228 647 175 647 q 308 629 272 647 q 379 575 345 611 l 379 758 l 253 758 l 253 885 l 519 885 l 519 0 m 379 464 q 328 506 359 492 q 268 521 297 521 q 166 464 205 521 q 126 315 126 407 q 166 168 126 224 q 268 111 205 111 q 328 126 297 111 q 379 168 359 140 l 379 464 m 758 884 l 702 507 l 592 507 l 592 884 l 758 884 z "},"Đ":{"ha":758,"x_min":-79,"x_max":661,"o":"m -79 514 l 33 514 l 33 885 l 321 885 q 476 849 411 885 q 582 752 541 812 q 642 612 623 692 q 661 443 661 532 q 643 274 661 354 q 583 133 624 193 q 477 36 542 72 q 321 0 412 0 l 33 0 l 33 387 l -79 387 l -79 514 m 521 443 q 469 677 521 596 q 321 758 416 758 l 174 758 l 174 514 l 298 514 l 298 387 l 174 387 l 174 126 l 321 126 q 469 209 416 126 q 521 443 521 292 z "},"đ":{"ha":758,"x_min":-1,"x_max":715,"o":"m 715 671 l 599 671 l 599 0 l 458 0 l 458 58 q 376 3 418 22 q 282 -16 335 -16 q 169 9 221 -16 q 79 77 117 33 q 20 182 41 121 q -1 315 -1 243 q 20 449 -1 387 q 79 554 41 510 q 169 622 117 597 q 282 647 221 647 q 376 629 335 647 q 458 575 418 611 l 458 671 l 336 671 l 336 789 l 458 789 l 458 885 l 599 885 l 599 789 l 715 789 l 715 671 m 458 464 q 394 506 433 492 q 318 521 354 521 q 189 464 239 521 q 139 315 139 407 q 189 168 139 224 q 318 111 239 111 q 394 126 354 111 q 458 168 433 140 l 458 464 z "},"Ē":{"ha":758,"x_min":33,"x_max":599,"o":"m 599 0 l 33 0 l 33 885 l 599 885 l 599 758 l 174 758 l 174 514 l 505 514 l 505 387 l 174 387 l 174 126 l 599 126 l 599 0 m 505 960 l 126 960 l 126 1078 l 505 1078 l 505 960 z "},"ē":{"ha":758,"x_min":-14,"x_max":659,"o":"m 129 262 q 191 154 139 197 q 330 111 243 111 q 449 133 399 111 q 536 189 500 154 l 608 90 q 479 7 547 29 q 330 -16 411 -16 q 194 9 257 -16 q 85 77 131 33 q 13 181 39 121 q -14 315 -14 241 q 11 448 -14 387 q 78 553 35 509 q 183 622 122 597 q 318 647 244 647 q 457 621 395 647 q 564 545 519 595 q 633 424 608 496 q 659 262 659 353 l 129 262 m 500 386 q 437 484 489 447 q 318 521 385 521 q 199 484 252 521 q 135 386 146 447 l 500 386 m 505 708 l 126 708 l 126 827 l 505 827 l 505 708 z "},"Ĕ":{"ha":758,"x_min":33,"x_max":599,"o":"m 599 0 l 33 0 l 33 885 l 599 885 l 599 758 l 174 758 l 174 514 l 505 514 l 505 387 l 174 387 l 174 126 l 599 126 l 599 0 m 539 1043 q 317 951 447 951 q 94 1043 186 951 l 176 1124 q 317 1060 240 1060 q 457 1124 393 1060 l 539 1043 z "},"ĕ":{"ha":758,"x_min":-14,"x_max":659,"o":"m 129 262 q 191 154 139 197 q 330 111 243 111 q 449 133 399 111 q 536 189 500 154 l 608 90 q 479 7 547 29 q 330 -16 411 -16 q 194 9 257 -16 q 85 77 131 33 q 13 181 39 121 q -14 315 -14 241 q 11 448 -14 387 q 78 553 35 509 q 183 622 122 597 q 318 647 244 647 q 457 621 395 647 q 564 545 519 595 q 633 424 608 496 q 659 262 659 353 l 129 262 m 500 386 q 437 484 489 447 q 318 521 385 521 q 199 484 252 521 q 135 386 146 447 l 500 386 m 539 791 q 317 700 447 700 q 94 791 186 700 l 176 872 q 317 808 240 808 q 457 872 393 808 l 539 791 z "},"Ė":{"ha":758,"x_min":33,"x_max":599,"o":"m 599 0 l 33 0 l 33 885 l 599 885 l 599 758 l 174 758 l 174 514 l 505 514 l 505 387 l 174 387 l 174 126 l 599 126 l 599 0 m 401 966 l 231 966 l 231 1137 l 401 1137 l 401 966 z "},"ė":{"ha":758,"x_min":-14,"x_max":659,"o":"m 129 262 q 191 154 139 197 q 330 111 243 111 q 449 133 399 111 q 536 189 500 154 l 608 90 q 479 7 547 29 q 330 -16 411 -16 q 194 9 257 -16 q 85 77 131 33 q 13 181 39 121 q -14 315 -14 241 q 11 448 -14 387 q 78 553 35 509 q 183 622 122 597 q 318 647 244 647 q 457 621 395 647 q 564 545 519 595 q 633 424 608 496 q 659 262 659 353 l 129 262 m 500 386 q 437 484 489 447 q 318 521 385 521 q 199 484 252 521 q 135 386 146 447 l 500 386 m 401 714 l 231 714 l 231 885 l 401 885 l 401 714 z "},"Ę":{"ha":758,"x_min":33,"x_max":675,"o":"m 675 -257 q 530 -217 583 -257 q 476 -96 476 -176 q 486 -44 476 -68 q 513 0 496 -20 l 33 0 l 33 885 l 599 885 l 599 758 l 174 758 l 174 514 l 505 514 l 505 387 l 174 387 l 174 126 l 599 126 l 599 0 q 572 -71 572 -29 q 602 -135 572 -114 q 675 -157 632 -157 l 675 -257 z "},"ę":{"ha":758,"x_min":-14,"x_max":659,"o":"m 532 -257 q 387 -217 440 -257 q 334 -96 334 -176 q 340 -52 334 -72 q 358 -14 347 -32 q 345 -16 351 -16 q 330 -16 338 -16 q 194 9 257 -16 q 85 77 131 33 q 13 181 39 121 q -14 315 -14 241 q 11 448 -14 387 q 78 553 35 509 q 183 622 122 597 q 318 647 244 647 q 457 621 395 647 q 564 545 519 595 q 633 424 608 496 q 659 262 659 353 l 129 262 q 191 154 139 197 q 330 111 243 111 q 449 133 399 111 q 536 189 500 154 l 608 90 q 534 33 572 54 q 456 0 496 11 q 429 -71 429 -29 q 459 -135 429 -114 q 532 -157 489 -157 l 532 -257 m 500 386 q 437 484 489 447 q 318 521 385 521 q 199 484 252 521 q 135 386 146 447 l 500 386 z "},"Ě":{"ha":758,"x_min":33,"x_max":599,"o":"m 599 0 l 33 0 l 33 885 l 599 885 l 599 758 l 174 758 l 174 514 l 505 514 l 505 387 l 174 387 l 174 126 l 599 126 l 599 0 m 317 917 l 97 1132 l 151 1200 l 318 1060 l 482 1199 l 536 1129 l 317 917 z "},"ě":{"ha":758,"x_min":-14,"x_max":659,"o":"m 129 262 q 191 154 139 197 q 330 111 243 111 q 449 133 399 111 q 536 189 500 154 l 608 90 q 479 7 547 29 q 330 -16 411 -16 q 194 9 257 -16 q 85 77 131 33 q 13 181 39 121 q -14 315 -14 241 q 11 448 -14 387 q 78 553 35 509 q 183 622 122 597 q 318 647 244 647 q 457 621 395 647 q 564 545 519 595 q 633 424 608 496 q 659 262 659 353 l 129 262 m 500 386 q 437 484 489 447 q 318 521 385 521 q 199 484 252 521 q 135 386 146 447 l 500 386 m 317 665 l 97 880 l 151 949 l 318 808 l 482 947 l 536 878 l 317 665 z "},"Ĝ":{"ha":758,"x_min":-14,"x_max":667,"o":"m 667 440 q 649 268 667 350 q 590 123 631 186 q 484 22 549 60 q 326 -16 419 -16 q 169 23 233 -16 q 63 124 104 61 q 4 270 22 187 q -14 441 -14 353 q 4 613 -14 530 q 63 760 22 696 q 169 862 104 823 q 326 900 233 900 q 380 892 353 900 q 433 870 408 885 q 478 832 458 854 q 505 781 497 810 l 505 885 l 632 885 l 632 571 l 505 571 q 492 649 505 612 q 456 714 479 686 q 399 758 432 742 q 326 774 366 774 q 229 744 267 774 q 168 667 191 714 q 135 560 144 619 q 126 441 126 501 q 135 323 126 382 q 167 217 144 264 q 228 140 189 170 q 326 111 267 111 q 465 166 412 111 q 538 336 518 221 l 351 336 l 351 463 l 667 463 l 667 440 m 536 987 l 482 918 l 318 1057 l 151 917 l 97 985 l 317 1200 l 536 987 z "},"ĝ":{"ha":758,"x_min":-1,"x_max":599,"o":"m 599 7 q 576 -109 599 -58 q 514 -195 554 -160 q 419 -249 473 -231 q 297 -268 364 -268 q 16 -168 132 -268 l 82 -60 q 297 -143 179 -143 q 414 -107 370 -143 q 458 4 458 -72 l 458 72 q 375 17 415 35 q 282 -1 335 -1 q 169 24 221 -1 q 79 95 117 50 q 20 198 41 139 q -1 323 -1 257 q 20 449 -1 390 q 79 552 41 509 q 169 622 117 596 q 282 647 221 647 q 376 629 335 647 q 458 575 418 611 l 458 632 l 599 632 l 599 7 m 458 464 q 394 506 433 492 q 317 521 354 521 q 188 465 237 521 q 139 323 139 410 q 152 244 139 281 q 189 182 165 208 q 245 140 212 155 q 317 125 278 125 q 394 140 354 125 q 458 183 433 155 l 458 464 m 536 736 l 482 667 l 318 806 l 151 665 l 97 733 l 317 949 l 536 736 z "},"Ğ":{"ha":758,"x_min":-14,"x_max":667,"o":"m 667 440 q 649 268 667 350 q 590 123 631 186 q 484 22 549 60 q 326 -16 419 -16 q 169 23 233 -16 q 63 124 104 61 q 4 270 22 187 q -14 441 -14 353 q 4 613 -14 530 q 63 760 22 696 q 169 862 104 823 q 326 900 233 900 q 380 892 353 900 q 433 870 408 885 q 478 832 458 854 q 505 781 497 810 l 505 885 l 632 885 l 632 571 l 505 571 q 492 649 505 612 q 456 714 479 686 q 399 758 432 742 q 326 774 366 774 q 229 744 267 774 q 168 667 191 714 q 135 560 144 619 q 126 441 126 501 q 135 323 126 382 q 167 217 144 264 q 228 140 189 170 q 326 111 267 111 q 465 166 412 111 q 538 336 518 221 l 351 336 l 351 463 l 667 463 l 667 440 m 539 1043 q 317 951 447 951 q 94 1043 186 951 l 176 1124 q 317 1060 240 1060 q 457 1124 393 1060 l 539 1043 z "},"ğ":{"ha":758,"x_min":-1,"x_max":599,"o":"m 599 7 q 576 -109 599 -58 q 514 -195 554 -160 q 419 -249 473 -231 q 297 -268 364 -268 q 16 -168 132 -268 l 82 -60 q 297 -143 179 -143 q 414 -107 370 -143 q 458 4 458 -72 l 458 72 q 375 17 415 35 q 282 -1 335 -1 q 169 24 221 -1 q 79 95 117 50 q 20 198 41 139 q -1 323 -1 257 q 20 449 -1 390 q 79 552 41 509 q 169 622 117 596 q 282 647 221 647 q 376 629 335 647 q 458 575 418 611 l 458 632 l 599 632 l 599 7 m 458 464 q 394 506 433 492 q 317 521 354 521 q 188 465 237 521 q 139 323 139 410 q 152 244 139 281 q 189 182 165 208 q 245 140 212 155 q 317 125 278 125 q 394 140 354 125 q 458 183 433 155 l 458 464 m 539 791 q 317 700 447 700 q 94 791 186 700 l 176 872 q 317 808 240 808 q 457 872 393 808 l 539 791 z "},"Ġ":{"ha":758,"x_min":-14,"x_max":667,"o":"m 667 440 q 649 268 667 350 q 590 123 631 186 q 484 22 549 60 q 326 -16 419 -16 q 169 23 233 -16 q 63 124 104 61 q 4 270 22 187 q -14 441 -14 353 q 4 613 -14 530 q 63 760 22 696 q 169 862 104 823 q 326 900 233 900 q 380 892 353 900 q 433 870 408 885 q 478 832 458 854 q 505 781 497 810 l 505 885 l 632 885 l 632 571 l 505 571 q 492 649 505 612 q 456 714 479 686 q 399 758 432 742 q 326 774 366 774 q 229 744 267 774 q 168 667 191 714 q 135 560 144 619 q 126 441 126 501 q 135 323 126 382 q 167 217 144 264 q 228 140 189 170 q 326 111 267 111 q 465 166 412 111 q 538 336 518 221 l 351 336 l 351 463 l 667 463 l 667 440 m 401 966 l 231 966 l 231 1137 l 401 1137 l 401 966 z "},"ġ":{"ha":758,"x_min":-1,"x_max":599,"o":"m 599 7 q 576 -109 599 -58 q 514 -195 554 -160 q 419 -249 473 -231 q 297 -268 364 -268 q 16 -168 132 -268 l 82 -60 q 297 -143 179 -143 q 414 -107 370 -143 q 458 4 458 -72 l 458 72 q 375 17 415 35 q 282 -1 335 -1 q 169 24 221 -1 q 79 95 117 50 q 20 198 41 139 q -1 323 -1 257 q 20 449 -1 390 q 79 552 41 509 q 169 622 117 596 q 282 647 221 647 q 376 629 335 647 q 458 575 418 611 l 458 632 l 599 632 l 599 7 m 458 464 q 394 506 433 492 q 317 521 354 521 q 188 465 237 521 q 139 323 139 410 q 152 244 139 281 q 189 182 165 208 q 245 140 212 155 q 317 125 278 125 q 394 140 354 125 q 458 183 433 155 l 458 464 m 401 714 l 231 714 l 231 885 l 401 885 l 401 714 z "},"Ģ":{"ha":758,"x_min":-14,"x_max":667,"o":"m 667 440 q 649 268 667 350 q 590 123 631 186 q 484 22 549 60 q 326 -16 419 -16 q 169 23 233 -16 q 63 124 104 61 q 4 270 22 187 q -14 441 -14 353 q 4 613 -14 530 q 63 760 22 696 q 169 862 104 823 q 326 900 233 900 q 380 892 353 900 q 433 870 408 885 q 478 832 458 854 q 505 781 497 810 l 505 885 l 632 885 l 632 571 l 505 571 q 492 649 505 612 q 456 714 479 686 q 399 758 432 742 q 326 774 366 774 q 229 744 267 774 q 168 667 191 714 q 135 560 144 619 q 126 441 126 501 q 135 323 126 382 q 167 217 144 264 q 228 140 189 170 q 326 111 267 111 q 465 166 412 111 q 538 336 518 221 l 351 336 l 351 463 l 667 463 l 667 440 m 464 -74 l 334 -253 l 204 -253 l 275 -74 l 464 -74 z "},"ģ":{"ha":758,"x_min":-1,"x_max":599,"o":"m 183 758 l 300 1011 l 407 1011 l 350 758 l 183 758 m 599 7 q 576 -109 599 -58 q 514 -195 554 -160 q 419 -249 473 -231 q 297 -268 364 -268 q 16 -168 132 -268 l 82 -60 q 297 -143 179 -143 q 414 -107 370 -143 q 458 4 458 -72 l 458 72 q 375 17 415 35 q 282 -1 335 -1 q 169 24 221 -1 q 79 95 117 50 q 20 198 41 139 q -1 323 -1 257 q 20 449 -1 390 q 79 552 41 509 q 169 622 117 596 q 282 647 221 647 q 376 629 335 647 q 458 575 418 611 l 458 632 l 599 632 l 599 7 m 458 464 q 394 506 433 492 q 317 521 354 521 q 188 465 237 521 q 139 323 139 410 q 152 244 139 281 q 189 182 165 208 q 245 140 212 155 q 317 125 278 125 q 394 140 354 125 q 458 183 433 155 l 458 464 z "},"Ĥ":{"ha":758,"x_min":33,"x_max":599,"o":"m 599 0 l 458 0 l 458 387 l 174 387 l 174 0 l 33 0 l 33 885 l 174 885 l 174 514 l 458 514 l 458 885 l 599 885 l 599 0 m 536 987 l 482 918 l 318 1057 l 151 917 l 97 985 l 317 1200 l 536 987 z "},"ĥ":{"ha":758,"x_min":33,"x_max":599,"o":"m 599 0 l 458 0 l 458 390 q 431 492 458 464 q 350 521 403 521 q 223 458 272 521 q 174 283 174 395 l 174 0 l 33 0 l 33 885 l 174 885 l 174 473 q 252 601 195 555 q 392 647 309 647 q 544 584 489 647 q 599 390 599 521 l 599 0 m 536 987 l 482 918 l 318 1057 l 151 917 l 97 985 l 317 1200 l 536 987 z "},"Ħ":{"ha":758,"x_min":-93,"x_max":725,"o":"m 599 758 l 725 758 l 725 640 l 599 640 l 599 0 l 458 0 l 458 387 l 174 387 l 174 0 l 33 0 l 33 640 l -93 640 l -93 758 l 33 758 l 33 885 l 174 885 l 174 758 l 458 758 l 458 885 l 599 885 l 599 758 m 458 514 l 458 640 l 174 640 l 174 514 l 458 514 z "},"ħ":{"ha":758,"x_min":-83,"x_max":599,"o":"m 599 0 l 458 0 l 458 390 q 431 492 458 464 q 350 521 403 521 q 223 458 272 521 q 174 283 174 395 l 174 0 l 33 0 l 33 671 l -83 671 l -83 789 l 33 789 l 33 885 l 174 885 l 174 789 l 296 789 l 296 671 l 174 671 l 174 473 q 252 601 195 555 q 392 647 309 647 q 544 584 489 647 q 599 390 599 521 l 599 0 z "},"Ĩ":{"ha":758,"x_min":33,"x_max":593,"o":"m 530 0 l 106 0 l 106 126 l 245 126 l 245 758 l 106 758 l 106 885 l 530 885 l 530 758 l 386 758 l 386 126 l 530 126 l 530 0 m 593 1096 q 515 994 561 1031 q 407 957 469 957 q 350 969 374 957 q 306 997 326 982 q 264 1024 285 1011 q 220 1036 244 1036 q 161 1015 184 1036 q 115 956 138 994 l 33 1003 q 111 1104 65 1067 q 220 1141 157 1141 q 276 1128 253 1141 q 321 1101 300 1116 q 362 1074 342 1086 q 407 1061 382 1061 q 465 1083 441 1061 q 511 1143 489 1104 l 593 1096 z "},"ĩ":{"ha":758,"x_min":33,"x_max":593,"o":"m 530 0 l 106 0 l 106 126 l 245 126 l 245 505 l 106 505 l 106 632 l 386 632 l 386 126 l 530 126 l 530 0 m 593 844 q 515 742 561 779 q 407 705 469 705 q 350 718 374 705 q 306 745 326 730 q 264 772 285 760 q 220 785 244 785 q 161 763 184 785 q 115 704 138 742 l 33 751 q 111 852 65 815 q 220 889 157 889 q 276 877 253 889 q 321 849 300 864 q 362 822 342 835 q 407 810 382 810 q 465 831 441 810 q 511 892 489 852 l 593 844 z "},"Ī":{"ha":758,"x_min":106,"x_max":530,"o":"m 530 0 l 106 0 l 106 126 l 245 126 l 245 758 l 106 758 l 106 885 l 530 885 l 530 758 l 386 758 l 386 126 l 530 126 l 530 0 m 505 960 l 126 960 l 126 1078 l 505 1078 l 505 960 z "},"ī":{"ha":758,"x_min":106,"x_max":530,"o":"m 530 0 l 106 0 l 106 126 l 245 126 l 245 505 l 106 505 l 106 632 l 386 632 l 386 126 l 530 126 l 530 0 m 505 708 l 126 708 l 126 827 l 505 827 l 505 708 z "},"Ĭ":{"ha":758,"x_min":94,"x_max":539,"o":"m 530 0 l 106 0 l 106 126 l 245 126 l 245 758 l 106 758 l 106 885 l 530 885 l 530 758 l 386 758 l 386 126 l 530 126 l 530 0 m 539 1043 q 317 951 447 951 q 94 1043 186 951 l 176 1124 q 317 1060 240 1060 q 457 1124 393 1060 l 539 1043 z "},"ĭ":{"ha":758,"x_min":94,"x_max":539,"o":"m 530 0 l 106 0 l 106 126 l 245 126 l 245 505 l 106 505 l 106 632 l 386 632 l 386 126 l 530 126 l 530 0 m 539 791 q 317 700 447 700 q 94 791 186 700 l 176 872 q 317 808 240 808 q 457 872 393 808 l 539 791 z "},"Į":{"ha":758,"x_min":106,"x_max":607,"o":"m 607 -257 q 462 -217 515 -257 q 408 -96 408 -176 q 418 -44 408 -68 q 444 0 428 -20 l 106 0 l 106 126 l 245 126 l 245 758 l 106 758 l 106 885 l 530 885 l 530 758 l 386 758 l 386 126 l 530 126 l 530 0 q 504 -71 504 -29 q 534 -135 504 -114 q 607 -157 564 -157 l 607 -257 z "},"į":{"ha":758,"x_min":106,"x_max":607,"o":"m 607 -257 q 462 -217 515 -257 q 408 -96 408 -176 q 418 -44 408 -68 q 444 0 428 -20 l 106 0 l 106 126 l 245 126 l 245 505 l 106 505 l 106 632 l 386 632 l 386 126 l 530 126 l 530 0 q 504 -71 504 -29 q 534 -135 504 -114 q 607 -157 564 -157 l 607 -257 m 401 714 l 231 714 l 231 885 l 401 885 l 401 714 z "},"İ":{"ha":758,"x_min":106,"x_max":530,"o":"m 530 0 l 106 0 l 106 126 l 245 126 l 245 758 l 106 758 l 106 885 l 530 885 l 530 758 l 386 758 l 386 126 l 530 126 l 530 0 m 401 966 l 231 966 l 231 1137 l 401 1137 l 401 966 z "},"Ĳ":{"ha":758,"x_min":-20,"x_max":646,"o":"m 232 -92 q 355 -142 279 -142 q 431 -123 401 -142 q 476 -73 460 -104 q 499 -1 493 -41 q 505 85 505 40 l 505 885 l 646 885 l 646 85 q 574 -176 646 -83 q 355 -268 503 -268 q 147 -197 231 -268 l 232 -92 m 404 0 l -20 0 l -20 126 l 119 126 l 119 758 l -20 758 l -20 885 l 404 885 l 404 758 l 260 758 l 260 126 l 404 126 l 404 0 z "},"ĳ":{"ha":758,"x_min":1,"x_max":675,"o":"m 296 714 l 125 714 l 125 885 l 296 885 l 296 714 m 425 0 l 1 0 l 1 126 l 140 126 l 140 505 l 1 505 l 1 632 l 281 632 l 281 126 l 425 126 l 425 0 m 380 -268 q 147 -160 236 -268 l 231 -66 q 298 -123 262 -104 q 380 -142 334 -142 q 486 -103 452 -142 q 519 0 519 -64 l 519 505 l 376 505 l 376 632 l 660 632 l 660 0 q 640 -111 660 -61 q 583 -195 619 -160 q 494 -249 546 -231 q 380 -268 443 -268 m 675 714 l 504 714 l 504 885 l 675 885 l 675 714 z "},"Ĵ":{"ha":758,"x_min":-1,"x_max":599,"o":"m 599 338 q 527 77 599 170 q 309 -16 456 -16 q 111 46 191 -16 q -1 232 31 109 l 125 279 q 189 156 144 200 q 309 111 233 111 q 383 130 354 111 q 429 180 412 149 q 452 252 446 211 q 458 338 458 293 l 458 885 l 599 885 l 599 338 m 536 987 l 482 918 l 318 1057 l 151 917 l 97 985 l 317 1200 l 536 987 z "},"ĵ":{"ha":758,"x_min":0,"x_max":599,"o":"m 233 -268 q 0 -160 89 -268 l 83 -66 q 151 -123 115 -104 q 233 -142 187 -142 q 338 -103 304 -142 q 372 0 372 -64 l 372 505 l 229 505 l 229 632 l 513 632 l 513 0 q 492 -111 513 -61 q 435 -195 472 -160 q 347 -249 399 -231 q 233 -268 296 -268 m 599 736 l 545 667 l 380 806 l 214 665 l 159 733 l 379 949 l 599 736 z "},"Ķ":{"ha":758,"x_min":33,"x_max":629,"o":"m 628 0 l 464 0 l 232 412 l 174 343 l 174 0 l 33 0 l 33 885 l 174 885 l 174 538 l 449 885 l 629 885 l 321 518 l 628 0 m 464 -74 l 334 -253 l 204 -253 l 275 -74 l 464 -74 z "},"ķ":{"ha":758,"x_min":33,"x_max":631,"o":"m 631 0 l 449 0 l 237 256 l 174 191 l 174 0 l 33 0 l 33 885 l 174 885 l 174 364 l 427 632 l 619 632 l 328 342 l 631 0 m 464 -74 l 334 -253 l 204 -253 l 275 -74 l 464 -74 z "},"ĸ":{"ha":758,"x_min":33,"x_max":631,"o":"m 631 0 l 449 0 l 237 256 l 174 191 l 174 0 l 33 0 l 33 632 l 174 632 l 174 364 l 427 632 l 619 632 l 328 342 l 631 0 z "},"Ĺ":{"ha":758,"x_min":33,"x_max":599,"o":"m 599 0 l 33 0 l 33 885 l 174 885 l 174 126 l 599 126 l 599 0 m 482 1082 l 189 917 l 129 1010 l 403 1204 l 482 1082 z "},"ĺ":{"ha":758,"x_min":107,"x_max":532,"o":"m 532 0 l 107 0 l 107 126 l 245 126 l 245 758 l 107 758 l 107 885 l 386 885 l 386 126 l 532 126 l 532 0 m 482 1082 l 189 917 l 129 1010 l 403 1204 l 482 1082 z "},"Ļ":{"ha":758,"x_min":33,"x_max":599,"o":"m 599 0 l 33 0 l 33 885 l 174 885 l 174 126 l 599 126 l 599 0 m 464 -74 l 334 -253 l 204 -253 l 275 -74 l 464 -74 z "},"ļ":{"ha":758,"x_min":107,"x_max":532,"o":"m 532 0 l 107 0 l 107 126 l 245 126 l 245 758 l 107 758 l 107 885 l 386 885 l 386 126 l 532 126 l 532 0 m 464 -74 l 334 -253 l 204 -253 l 275 -74 l 464 -74 z "},"Ľ":{"ha":758,"x_min":33,"x_max":599,"o":"m 599 0 l 33 0 l 33 885 l 174 885 l 174 126 l 599 126 l 599 0 m 545 885 l 489 507 l 379 507 l 379 885 l 545 885 z "},"ľ":{"ha":758,"x_min":107,"x_max":672,"o":"m 532 0 l 107 0 l 107 126 l 245 126 l 245 758 l 107 758 l 107 885 l 386 885 l 386 126 l 532 126 l 532 0 m 672 885 l 616 507 l 506 507 l 506 885 l 672 885 z "},"Ŀ":{"ha":758,"x_min":33,"x_max":599,"o":"m 599 0 l 33 0 l 33 885 l 174 885 l 174 126 l 599 126 l 599 0 m 550 334 l 379 334 l 379 505 l 550 505 l 550 334 z "},"ŀ":{"ha":758,"x_min":107,"x_max":781,"o":"m 532 0 l 107 0 l 107 126 l 245 126 l 245 758 l 107 758 l 107 885 l 386 885 l 386 126 l 532 126 l 532 0 m 781 239 l 610 239 l 610 410 l 781 410 l 781 239 z "},"Ł":{"ha":758,"x_min":-85,"x_max":599,"o":"m 599 0 l 33 0 l 33 353 l -85 314 l -85 441 l 33 481 l 33 885 l 174 885 l 174 526 l 294 568 l 294 440 l 174 399 l 174 126 l 599 126 l 599 0 z "},"ł":{"ha":758,"x_min":107,"x_max":532,"o":"m 532 0 l 107 0 l 107 126 l 245 126 l 245 353 l 125 313 l 125 440 l 245 481 l 245 758 l 107 758 l 107 885 l 386 885 l 386 526 l 504 567 l 504 439 l 386 399 l 386 126 l 532 126 l 532 0 z "},"Ń":{"ha":758,"x_min":33,"x_max":599,"o":"m 599 0 l 436 0 l 174 642 l 174 0 l 33 0 l 33 885 l 210 885 l 458 275 l 458 885 l 599 885 l 599 0 m 482 1082 l 189 917 l 129 1010 l 403 1204 l 482 1082 z "},"ń":{"ha":758,"x_min":33,"x_max":599,"o":"m 599 0 l 458 0 l 458 390 q 431 492 458 464 q 350 521 403 521 q 223 458 272 521 q 174 283 174 395 l 174 0 l 33 0 l 33 632 l 174 632 l 174 473 q 252 601 195 555 q 392 647 309 647 q 544 584 489 647 q 599 390 599 521 l 599 0 m 482 831 l 189 665 l 129 758 l 403 953 l 482 831 z "},"Ņ":{"ha":758,"x_min":33,"x_max":599,"o":"m 599 0 l 436 0 l 174 642 l 174 0 l 33 0 l 33 885 l 210 885 l 458 275 l 458 885 l 599 885 l 599 0 m 464 -74 l 334 -253 l 204 -253 l 275 -74 l 464 -74 z "},"ņ":{"ha":758,"x_min":33,"x_max":599,"o":"m 599 0 l 458 0 l 458 390 q 431 492 458 464 q 350 521 403 521 q 223 458 272 521 q 174 283 174 395 l 174 0 l 33 0 l 33 632 l 174 632 l 174 473 q 252 601 195 555 q 392 647 309 647 q 544 584 489 647 q 599 390 599 521 l 599 0 m 464 -74 l 334 -253 l 204 -253 l 275 -74 l 464 -74 z "},"Ň":{"ha":758,"x_min":33,"x_max":599,"o":"m 599 0 l 436 0 l 174 642 l 174 0 l 33 0 l 33 885 l 210 885 l 458 275 l 458 885 l 599 885 l 599 0 m 317 917 l 97 1132 l 151 1200 l 318 1060 l 482 1199 l 536 1129 l 317 917 z "},"ň":{"ha":758,"x_min":33,"x_max":599,"o":"m 599 0 l 458 0 l 458 390 q 431 492 458 464 q 350 521 403 521 q 223 458 272 521 q 174 283 174 395 l 174 0 l 33 0 l 33 632 l 174 632 l 174 473 q 252 601 195 555 q 392 647 309 647 q 544 584 489 647 q 599 390 599 521 l 599 0 m 317 665 l 97 880 l 151 949 l 318 808 l 482 947 l 536 878 l 317 665 z "},"ŉ":{"ha":758,"x_min":1,"x_max":599,"o":"m 599 0 l 458 0 l 458 390 q 431 492 458 464 q 350 521 403 521 q 223 458 272 521 q 174 283 174 395 l 174 0 l 33 0 l 33 632 l 174 632 l 174 473 q 252 601 195 555 q 392 647 309 647 q 544 584 489 647 q 599 390 599 521 l 599 0 m 167 1136 l 111 758 l 1 758 l 1 1136 l 167 1136 z "},"Ŋ":{"ha":758,"x_min":33,"x_max":599,"o":"m 599 85 q 527 -176 599 -83 q 309 -268 456 -268 q 100 -197 183 -268 l 184 -92 q 309 -142 232 -142 q 400 -109 368 -142 q 446 -28 432 -77 l 174 642 l 174 0 l 33 0 l 33 885 l 210 885 l 458 275 l 458 885 l 599 885 l 599 85 z "},"ŋ":{"ha":758,"x_min":33,"x_max":599,"o":"m 224 -111 q 319 -142 267 -142 q 424 -103 390 -142 q 458 0 458 -64 l 458 390 q 431 492 458 464 q 350 521 403 521 q 223 458 272 521 q 174 283 174 395 l 174 0 l 33 0 l 33 632 l 174 632 l 174 473 q 252 601 195 555 q 392 647 309 647 q 544 584 489 647 q 599 390 599 521 l 599 0 q 578 -111 599 -61 q 522 -195 558 -160 q 433 -249 485 -231 q 319 -268 382 -268 q 167 -229 233 -268 l 224 -111 z "},"Ō":{"ha":758,"x_min":-22,"x_max":656,"o":"m -22 443 q -3 614 -22 532 q 56 760 16 697 q 160 862 96 823 q 317 900 225 900 q 473 862 408 900 q 578 760 538 823 q 637 614 619 697 q 656 443 656 532 q 637 272 656 354 q 579 125 619 189 q 474 23 539 61 q 317 -16 410 -16 q 159 23 224 -16 q 54 125 94 61 q -4 272 14 189 q -22 443 -22 354 m 118 443 q 127 323 118 383 q 158 217 136 264 q 219 140 180 170 q 317 111 257 111 q 415 140 376 111 q 475 217 453 170 q 506 323 497 264 q 515 443 515 383 q 506 562 515 503 q 475 668 497 621 q 414 745 453 715 q 317 774 375 774 q 169 686 220 774 q 118 443 118 599 m 505 960 l 126 960 l 126 1078 l 505 1078 l 505 960 z "},"ō":{"ha":758,"x_min":-14,"x_max":648,"o":"m 648 315 q 625 181 648 241 q 558 77 602 121 q 453 9 514 33 q 317 -16 392 -16 q 182 9 243 -16 q 77 77 121 33 q 10 181 33 121 q -14 315 -14 241 q 10 449 -14 387 q 77 554 33 510 q 182 623 121 599 q 317 647 243 647 q 453 623 392 647 q 558 554 514 599 q 625 449 602 510 q 648 315 648 387 m 509 315 q 495 396 509 358 q 457 462 482 435 q 396 505 432 489 q 317 521 361 521 q 237 505 272 521 q 177 462 201 489 q 139 396 153 435 q 126 315 126 358 q 139 234 126 271 q 177 170 153 197 q 237 126 201 142 q 317 111 272 111 q 396 126 361 111 q 457 170 432 142 q 495 234 482 197 q 509 315 509 271 m 505 708 l 126 708 l 126 827 l 505 827 l 505 708 z "},"Ŏ":{"ha":758,"x_min":-22,"x_max":656,"o":"m -22 443 q -3 614 -22 532 q 56 760 16 697 q 160 862 96 823 q 317 900 225 900 q 473 862 408 900 q 578 760 538 823 q 637 614 619 697 q 656 443 656 532 q 637 272 656 354 q 579 125 619 189 q 474 23 539 61 q 317 -16 410 -16 q 159 23 224 -16 q 54 125 94 61 q -4 272 14 189 q -22 443 -22 354 m 118 443 q 127 323 118 383 q 158 217 136 264 q 219 140 180 170 q 317 111 257 111 q 415 140 376 111 q 475 217 453 170 q 506 323 497 264 q 515 443 515 383 q 506 562 515 503 q 475 668 497 621 q 414 745 453 715 q 317 774 375 774 q 169 686 220 774 q 118 443 118 599 m 539 1043 q 317 951 447 951 q 94 1043 186 951 l 176 1124 q 317 1060 240 1060 q 457 1124 393 1060 l 539 1043 z "},"ŏ":{"ha":758,"x_min":-14,"x_max":648,"o":"m 648 315 q 625 181 648 241 q 558 77 602 121 q 453 9 514 33 q 317 -16 392 -16 q 182 9 243 -16 q 77 77 121 33 q 10 181 33 121 q -14 315 -14 241 q 10 449 -14 387 q 77 554 33 510 q 182 623 121 599 q 317 647 243 647 q 453 623 392 647 q 558 554 514 599 q 625 449 602 510 q 648 315 648 387 m 509 315 q 495 396 509 358 q 457 462 482 435 q 396 505 432 489 q 317 521 361 521 q 237 505 272 521 q 177 462 201 489 q 139 396 153 435 q 126 315 126 358 q 139 234 126 271 q 177 170 153 197 q 237 126 201 142 q 317 111 272 111 q 396 126 361 111 q 457 170 432 142 q 495 234 482 197 q 509 315 509 271 m 539 791 q 317 700 447 700 q 94 791 186 700 l 176 872 q 317 808 240 808 q 457 872 393 808 l 539 791 z "},"Ő":{"ha":758,"x_min":-22,"x_max":656,"o":"m -22 443 q -3 614 -22 532 q 56 760 16 697 q 160 862 96 823 q 317 900 225 900 q 473 862 408 900 q 578 760 538 823 q 637 614 619 697 q 656 443 656 532 q 637 272 656 354 q 579 125 619 189 q 474 23 539 61 q 317 -16 410 -16 q 159 23 224 -16 q 54 125 94 61 q -4 272 14 189 q -22 443 -22 354 m 118 443 q 127 323 118 383 q 158 217 136 264 q 219 140 180 170 q 317 111 257 111 q 415 140 376 111 q 475 217 453 170 q 506 323 497 264 q 515 443 515 383 q 506 562 515 503 q 475 668 497 621 q 414 745 453 715 q 317 774 375 774 q 169 686 220 774 q 118 443 118 599 m 473 946 l 357 946 l 453 1200 l 600 1200 l 473 946 m 221 946 l 106 946 l 200 1200 l 347 1200 l 221 946 z "},"ő":{"ha":758,"x_min":-14,"x_max":648,"o":"m 648 315 q 625 181 648 241 q 558 77 602 121 q 453 9 514 33 q 317 -16 392 -16 q 182 9 243 -16 q 77 77 121 33 q 10 181 33 121 q -14 315 -14 241 q 10 449 -14 387 q 77 554 33 510 q 182 623 121 599 q 317 647 243 647 q 453 623 392 647 q 558 554 514 599 q 625 449 602 510 q 648 315 648 387 m 509 315 q 495 396 509 358 q 457 462 482 435 q 396 505 432 489 q 317 521 361 521 q 237 505 272 521 q 177 462 201 489 q 139 396 153 435 q 126 315 126 358 q 139 234 126 271 q 177 170 153 197 q 237 126 201 142 q 317 111 272 111 q 396 126 361 111 q 457 170 432 142 q 495 234 482 197 q 509 315 509 271 m 473 694 l 357 694 l 453 949 l 600 949 l 473 694 m 221 694 l 106 694 l 200 949 l 347 949 l 221 694 z "},"Ŕ":{"ha":758,"x_min":33,"x_max":644,"o":"m 644 0 l 467 0 l 237 358 l 174 358 l 174 0 l 33 0 l 33 885 l 325 885 q 551 818 471 885 q 632 621 632 751 q 614 518 632 562 q 563 441 596 473 q 487 391 530 410 q 392 366 443 372 l 644 0 m 492 623 q 447 724 492 690 q 325 758 403 758 l 174 758 l 174 485 l 325 485 q 447 519 403 485 q 492 623 492 553 m 482 1082 l 189 917 l 129 1010 l 403 1204 l 482 1082 z "},"ŕ":{"ha":758,"x_min":0,"x_max":669,"o":"m 616 482 q 565 501 591 494 q 505 507 539 507 q 417 493 458 507 q 347 452 376 479 q 300 382 317 424 q 283 283 283 340 l 283 126 l 425 126 l 425 0 l 0 0 l 0 126 l 143 126 l 143 505 l 0 505 l 0 632 l 283 632 l 283 473 q 386 608 318 568 q 546 647 453 647 q 607 641 575 647 q 669 619 639 635 l 616 482 m 482 831 l 189 665 l 129 758 l 403 953 l 482 831 z "},"Ŗ":{"ha":758,"x_min":33,"x_max":644,"o":"m 644 0 l 467 0 l 237 358 l 174 358 l 174 0 l 33 0 l 33 885 l 325 885 q 551 818 471 885 q 632 621 632 751 q 614 518 632 562 q 563 441 596 473 q 487 391 530 410 q 392 366 443 372 l 644 0 m 492 623 q 447 724 492 690 q 325 758 403 758 l 174 758 l 174 485 l 325 485 q 447 519 403 485 q 492 623 492 553 m 464 -74 l 334 -253 l 204 -253 l 275 -74 l 464 -74 z "},"ŗ":{"ha":758,"x_min":0,"x_max":669,"o":"m 616 482 q 565 501 591 494 q 505 507 539 507 q 417 493 458 507 q 347 452 376 479 q 300 382 317 424 q 283 283 283 340 l 283 126 l 425 126 l 425 0 l 0 0 l 0 126 l 143 126 l 143 505 l 0 505 l 0 632 l 283 632 l 283 473 q 386 608 318 568 q 546 647 453 647 q 607 641 575 647 q 669 619 639 635 l 616 482 m 464 -74 l 334 -253 l 204 -253 l 275 -74 l 464 -74 z "},"Ř":{"ha":758,"x_min":33,"x_max":644,"o":"m 644 0 l 467 0 l 237 358 l 174 358 l 174 0 l 33 0 l 33 885 l 325 885 q 551 818 471 885 q 632 621 632 751 q 614 518 632 562 q 563 441 596 473 q 487 391 530 410 q 392 366 443 372 l 644 0 m 492 623 q 447 724 492 690 q 325 758 403 758 l 174 758 l 174 485 l 325 485 q 447 519 403 485 q 492 623 492 553 m 317 917 l 97 1132 l 151 1200 l 318 1060 l 482 1199 l 536 1129 l 317 917 z "},"ř":{"ha":758,"x_min":0,"x_max":669,"o":"m 616 482 q 565 501 591 494 q 505 507 539 507 q 417 493 458 507 q 347 452 376 479 q 300 382 317 424 q 283 283 283 340 l 283 126 l 425 126 l 425 0 l 0 0 l 0 126 l 143 126 l 143 505 l 0 505 l 0 632 l 283 632 l 283 473 q 386 608 318 568 q 546 647 453 647 q 607 641 575 647 q 669 619 639 635 l 616 482 m 317 665 l 97 880 l 151 949 l 318 808 l 482 947 l 536 878 l 317 665 z "},"Ś":{"ha":758,"x_min":18,"x_max":610,"o":"m 610 243 q 589 134 610 182 q 533 53 568 86 q 448 2 497 20 q 343 -16 399 -16 q 231 7 281 -16 q 144 81 180 29 l 144 0 l 18 0 l 18 289 l 144 289 q 160 212 144 245 q 200 156 175 179 q 258 122 225 134 q 329 110 292 110 q 431 139 392 110 q 469 232 469 168 q 457 289 469 265 q 424 331 446 313 q 370 364 401 350 q 297 393 338 378 q 201 430 249 410 q 115 480 153 450 q 53 554 77 510 q 29 664 29 597 q 51 766 29 722 q 107 840 72 810 q 190 885 143 869 q 290 900 237 900 q 395 874 351 900 q 463 806 439 848 l 463 885 l 589 885 l 589 610 l 463 610 q 421 731 463 688 q 311 775 380 775 q 210 747 250 775 q 170 667 170 718 q 180 622 170 640 q 211 588 191 603 q 261 559 231 572 q 332 530 292 546 q 431 490 382 513 q 520 435 481 468 q 585 356 559 403 q 610 243 610 310 m 482 1082 l 189 917 l 129 1010 l 403 1204 l 482 1082 z "},"ś":{"ha":758,"x_min":-7,"x_max":615,"o":"m 615 189 q 587 89 615 127 q 516 26 559 50 q 418 -6 472 3 q 313 -16 364 -16 q 141 9 227 -16 q -7 75 56 35 l 52 191 q 188 129 126 147 q 313 111 250 111 q 436 129 397 111 q 475 179 475 147 q 464 205 475 195 q 428 223 453 215 q 362 240 403 232 q 260 258 321 249 q 167 278 211 267 q 90 312 123 290 q 37 367 57 334 q 17 450 17 400 q 43 539 17 501 q 112 601 69 576 q 207 636 154 625 q 313 647 260 647 q 457 628 387 647 q 581 572 528 608 l 525 464 q 422 509 472 497 q 313 521 372 521 q 260 518 288 521 q 210 508 233 515 q 172 487 187 500 q 157 454 157 473 q 201 413 157 429 q 353 382 245 397 q 459 361 411 374 q 542 327 507 349 q 596 272 576 306 q 615 189 615 239 m 482 831 l 189 665 l 129 758 l 403 953 l 482 831 z "},"Ŝ":{"ha":758,"x_min":18,"x_max":610,"o":"m 610 243 q 589 134 610 182 q 533 53 568 86 q 448 2 497 20 q 343 -16 399 -16 q 231 7 281 -16 q 144 81 180 29 l 144 0 l 18 0 l 18 289 l 144 289 q 160 212 144 245 q 200 156 175 179 q 258 122 225 134 q 329 110 292 110 q 431 139 392 110 q 469 232 469 168 q 457 289 469 265 q 424 331 446 313 q 370 364 401 350 q 297 393 338 378 q 201 430 249 410 q 115 480 153 450 q 53 554 77 510 q 29 664 29 597 q 51 766 29 722 q 107 840 72 810 q 190 885 143 869 q 290 900 237 900 q 395 874 351 900 q 463 806 439 848 l 463 885 l 589 885 l 589 610 l 463 610 q 421 731 463 688 q 311 775 380 775 q 210 747 250 775 q 170 667 170 718 q 180 622 170 640 q 211 588 191 603 q 261 559 231 572 q 332 530 292 546 q 431 490 382 513 q 520 435 481 468 q 585 356 559 403 q 610 243 610 310 m 536 987 l 482 918 l 318 1057 l 151 917 l 97 985 l 317 1200 l 536 987 z "},"ŝ":{"ha":758,"x_min":-7,"x_max":615,"o":"m 615 189 q 587 89 615 127 q 516 26 559 50 q 418 -6 472 3 q 313 -16 364 -16 q 141 9 227 -16 q -7 75 56 35 l 52 191 q 188 129 126 147 q 313 111 250 111 q 436 129 397 111 q 475 179 475 147 q 464 205 475 195 q 428 223 453 215 q 362 240 403 232 q 260 258 321 249 q 167 278 211 267 q 90 312 123 290 q 37 367 57 334 q 17 450 17 400 q 43 539 17 501 q 112 601 69 576 q 207 636 154 625 q 313 647 260 647 q 457 628 387 647 q 581 572 528 608 l 525 464 q 422 509 472 497 q 313 521 372 521 q 260 518 288 521 q 210 508 233 515 q 172 487 187 500 q 157 454 157 473 q 201 413 157 429 q 353 382 245 397 q 459 361 411 374 q 542 327 507 349 q 596 272 576 306 q 615 189 615 239 m 536 736 l 482 667 l 318 806 l 151 665 l 97 733 l 317 949 l 536 736 z "},"Ş":{"ha":758,"x_min":18,"x_max":610,"o":"m 610 243 q 594 148 610 191 q 550 72 578 104 q 484 19 522 39 q 400 -9 446 -1 l 400 -28 q 384 -116 400 -75 q 338 -186 368 -157 q 263 -234 307 -216 q 164 -252 220 -252 l 164 -131 q 252 -104 224 -131 q 281 -28 281 -77 l 281 -9 q 144 81 197 7 l 144 0 l 18 0 l 18 289 l 144 289 q 160 212 144 245 q 200 156 175 179 q 258 122 225 134 q 329 110 292 110 q 431 139 392 110 q 469 232 469 168 q 457 289 469 265 q 424 331 446 313 q 370 364 401 350 q 297 393 338 378 q 201 430 249 410 q 115 480 153 450 q 53 554 77 510 q 29 664 29 597 q 51 766 29 722 q 107 840 72 810 q 190 885 143 869 q 290 900 237 900 q 395 874 351 900 q 463 806 439 848 l 463 885 l 589 885 l 589 610 l 463 610 q 421 731 463 688 q 311 775 380 775 q 210 747 250 775 q 170 667 170 718 q 180 622 170 640 q 211 588 191 603 q 261 559 231 572 q 332 530 292 546 q 431 490 382 513 q 520 435 481 468 q 585 356 559 403 q 610 243 610 310 z "},"ş":{"ha":758,"x_min":-7,"x_max":615,"o":"m 615 189 q 597 106 615 140 q 549 48 579 72 q 480 11 519 25 q 400 -8 441 -3 l 400 -28 q 384 -116 400 -75 q 338 -186 368 -157 q 263 -234 307 -216 q 164 -252 220 -252 l 164 -131 q 252 -104 224 -131 q 281 -28 281 -77 l 281 -14 q 126 14 201 -9 q -7 75 50 37 l 52 191 q 188 129 126 147 q 313 111 250 111 q 436 129 397 111 q 475 179 475 147 q 464 205 475 195 q 428 223 453 215 q 362 240 403 232 q 260 258 321 249 q 167 278 211 267 q 90 312 123 290 q 37 367 57 334 q 17 450 17 400 q 43 539 17 501 q 112 601 69 576 q 207 636 154 625 q 313 647 260 647 q 457 628 387 647 q 581 572 528 608 l 525 464 q 422 509 472 497 q 313 521 372 521 q 260 518 288 521 q 210 508 233 515 q 172 487 187 500 q 157 454 157 473 q 201 413 157 429 q 353 382 245 397 q 459 361 411 374 q 542 327 507 349 q 596 272 576 306 q 615 189 615 239 z "},"Š":{"ha":758,"x_min":18,"x_max":610,"o":"m 610 243 q 589 134 610 182 q 533 53 568 86 q 448 2 497 20 q 343 -16 399 -16 q 231 7 281 -16 q 144 81 180 29 l 144 0 l 18 0 l 18 289 l 144 289 q 160 212 144 245 q 200 156 175 179 q 258 122 225 134 q 329 110 292 110 q 431 139 392 110 q 469 232 469 168 q 457 289 469 265 q 424 331 446 313 q 370 364 401 350 q 297 393 338 378 q 201 430 249 410 q 115 480 153 450 q 53 554 77 510 q 29 664 29 597 q 51 766 29 722 q 107 840 72 810 q 190 885 143 869 q 290 900 237 900 q 395 874 351 900 q 463 806 439 848 l 463 885 l 589 885 l 589 610 l 463 610 q 421 731 463 688 q 311 775 380 775 q 210 747 250 775 q 170 667 170 718 q 180 622 170 640 q 211 588 191 603 q 261 559 231 572 q 332 530 292 546 q 431 490 382 513 q 520 435 481 468 q 585 356 559 403 q 610 243 610 310 m 317 917 l 97 1132 l 151 1200 l 318 1060 l 482 1199 l 536 1129 l 317 917 z "},"š":{"ha":758,"x_min":-7,"x_max":615,"o":"m 615 189 q 587 89 615 127 q 516 26 559 50 q 418 -6 472 3 q 313 -16 364 -16 q 141 9 227 -16 q -7 75 56 35 l 52 191 q 188 129 126 147 q 313 111 250 111 q 436 129 397 111 q 475 179 475 147 q 464 205 475 195 q 428 223 453 215 q 362 240 403 232 q 260 258 321 249 q 167 278 211 267 q 90 312 123 290 q 37 367 57 334 q 17 450 17 400 q 43 539 17 501 q 112 601 69 576 q 207 636 154 625 q 313 647 260 647 q 457 628 387 647 q 581 572 528 608 l 525 464 q 422 509 472 497 q 313 521 372 521 q 260 518 288 521 q 210 508 233 515 q 172 487 187 500 q 157 454 157 473 q 201 413 157 429 q 353 382 245 397 q 459 361 411 374 q 542 327 507 349 q 596 272 576 306 q 615 189 615 239 m 317 665 l 97 880 l 151 949 l 318 808 l 482 947 l 536 878 l 317 665 z "},"Ţ":{"ha":758,"x_min":0,"x_max":631,"o":"m 631 562 l 505 562 l 505 758 l 386 758 l 386 126 l 526 126 l 526 0 l 106 0 l 106 126 l 245 126 l 245 758 l 125 758 l 125 562 l 0 562 l 0 885 l 631 885 l 631 562 m 464 -74 l 334 -253 l 204 -253 l 275 -74 l 464 -74 z "},"ţ":{"ha":758,"x_min":0,"x_max":639,"o":"m 639 201 q 561 43 628 102 q 392 -16 493 -16 q 290 3 336 -16 q 212 54 244 21 q 161 132 179 86 q 143 232 143 178 l 143 505 l 0 505 l 0 632 l 143 632 l 143 885 l 283 885 l 283 632 l 549 632 l 549 505 l 283 505 l 283 232 q 313 141 283 171 q 392 111 343 111 q 481 146 452 111 q 515 229 510 180 l 639 201 m 464 -74 l 334 -253 l 204 -253 l 275 -74 l 464 -74 z "},"Ť":{"ha":758,"x_min":0,"x_max":631,"o":"m 631 562 l 505 562 l 505 758 l 386 758 l 386 126 l 526 126 l 526 0 l 106 0 l 106 126 l 245 126 l 245 758 l 125 758 l 125 562 l 0 562 l 0 885 l 631 885 l 631 562 m 317 917 l 97 1132 l 151 1200 l 318 1060 l 482 1199 l 536 1129 l 317 917 z "},"ť":{"ha":758,"x_min":0,"x_max":672,"o":"m 639 201 q 561 43 628 102 q 392 -16 493 -16 q 290 3 336 -16 q 212 54 244 21 q 161 132 179 86 q 143 232 143 178 l 143 505 l 0 505 l 0 632 l 143 632 l 143 885 l 283 885 l 283 632 l 549 632 l 549 505 l 283 505 l 283 232 q 313 141 283 171 q 392 111 343 111 q 481 146 452 111 q 515 229 510 180 l 639 201 m 672 1136 l 616 758 l 506 758 l 506 1136 l 672 1136 z "},"Ŧ":{"ha":758,"x_min":0,"x_max":631,"o":"m 505 387 l 386 387 l 386 126 l 526 126 l 526 0 l 106 0 l 106 126 l 245 126 l 245 387 l 126 387 l 126 505 l 245 505 l 245 758 l 125 758 l 125 562 l 0 562 l 0 885 l 631 885 l 631 562 l 505 562 l 505 758 l 386 758 l 386 505 l 505 505 l 505 387 z "},"ŧ":{"ha":758,"x_min":0,"x_max":639,"o":"m 639 201 q 561 43 628 102 q 392 -16 493 -16 q 290 3 336 -16 q 212 54 244 21 q 161 132 179 86 q 143 232 143 178 l 143 261 l 0 261 l 0 379 l 143 379 l 143 505 l 0 505 l 0 632 l 143 632 l 143 885 l 283 885 l 283 632 l 549 632 l 549 505 l 283 505 l 283 379 l 425 379 l 425 261 l 283 261 l 283 232 q 313 141 283 171 q 392 111 343 111 q 481 146 452 111 q 515 229 510 180 l 639 201 z "},"Ũ":{"ha":758,"x_min":33,"x_max":599,"o":"m 599 315 q 582 179 599 240 q 531 75 566 118 q 442 8 496 32 q 315 -16 389 -16 q 189 8 241 -16 q 101 75 136 32 q 50 180 66 118 q 33 317 33 241 l 33 885 l 174 885 l 174 315 q 178 247 174 282 q 198 180 183 211 q 241 131 212 150 q 315 111 269 111 q 389 131 361 111 q 433 180 418 150 q 454 246 449 210 q 458 315 458 282 l 458 885 l 599 885 l 599 315 m 593 1096 q 515 994 561 1031 q 407 957 469 957 q 350 969 374 957 q 306 997 326 982 q 264 1024 285 1011 q 220 1036 244 1036 q 161 1015 184 1036 q 115 956 138 994 l 33 1003 q 111 1104 65 1067 q 220 1141 157 1141 q 276 1128 253 1141 q 321 1101 300 1116 q 362 1074 342 1086 q 407 1061 382 1061 q 465 1083 441 1061 q 511 1143 489 1104 l 593 1096 z "},"ũ":{"ha":758,"x_min":33,"x_max":599,"o":"m 33 632 l 174 632 l 174 241 q 201 140 174 168 q 282 111 229 111 q 409 174 359 111 q 458 349 458 237 l 458 632 l 599 632 l 599 0 l 458 0 l 458 158 q 380 31 437 77 q 240 -16 323 -16 q 88 48 143 -16 q 33 241 33 111 l 33 632 m 593 844 q 515 742 561 779 q 407 705 469 705 q 350 718 374 705 q 306 745 326 730 q 264 772 285 760 q 220 785 244 785 q 161 763 184 785 q 115 704 138 742 l 33 751 q 111 852 65 815 q 220 889 157 889 q 276 877 253 889 q 321 849 300 864 q 362 822 342 835 q 407 810 382 810 q 465 831 441 810 q 511 892 489 852 l 593 844 z "},"Ū":{"ha":758,"x_min":33,"x_max":599,"o":"m 599 315 q 582 179 599 240 q 531 75 566 118 q 442 8 496 32 q 315 -16 389 -16 q 189 8 241 -16 q 101 75 136 32 q 50 180 66 118 q 33 317 33 241 l 33 885 l 174 885 l 174 315 q 178 247 174 282 q 198 180 183 211 q 241 131 212 150 q 315 111 269 111 q 389 131 361 111 q 433 180 418 150 q 454 246 449 210 q 458 315 458 282 l 458 885 l 599 885 l 599 315 m 505 960 l 126 960 l 126 1078 l 505 1078 l 505 960 z "},"ū":{"ha":758,"x_min":33,"x_max":599,"o":"m 33 632 l 174 632 l 174 241 q 201 140 174 168 q 282 111 229 111 q 409 174 359 111 q 458 349 458 237 l 458 632 l 599 632 l 599 0 l 458 0 l 458 158 q 380 31 437 77 q 240 -16 323 -16 q 88 48 143 -16 q 33 241 33 111 l 33 632 m 505 708 l 126 708 l 126 827 l 505 827 l 505 708 z "},"Ŭ":{"ha":758,"x_min":33,"x_max":599,"o":"m 599 315 q 582 179 599 240 q 531 75 566 118 q 442 8 496 32 q 315 -16 389 -16 q 189 8 241 -16 q 101 75 136 32 q 50 180 66 118 q 33 317 33 241 l 33 885 l 174 885 l 174 315 q 178 247 174 282 q 198 180 183 211 q 241 131 212 150 q 315 111 269 111 q 389 131 361 111 q 433 180 418 150 q 454 246 449 210 q 458 315 458 282 l 458 885 l 599 885 l 599 315 m 539 1043 q 317 951 447 951 q 94 1043 186 951 l 176 1124 q 317 1060 240 1060 q 457 1124 393 1060 l 539 1043 z "},"ŭ":{"ha":758,"x_min":33,"x_max":599,"o":"m 33 632 l 174 632 l 174 241 q 201 140 174 168 q 282 111 229 111 q 409 174 359 111 q 458 349 458 237 l 458 632 l 599 632 l 599 0 l 458 0 l 458 158 q 380 31 437 77 q 240 -16 323 -16 q 88 48 143 -16 q 33 241 33 111 l 33 632 m 539 791 q 317 700 447 700 q 94 791 186 700 l 176 872 q 317 808 240 808 q 457 872 393 808 l 539 791 z "},"Ů":{"ha":758,"x_min":33,"x_max":599,"o":"m 599 315 q 582 179 599 240 q 531 75 566 118 q 442 8 496 32 q 315 -16 389 -16 q 189 8 241 -16 q 101 75 136 32 q 50 180 66 118 q 33 317 33 241 l 33 885 l 174 885 l 174 315 q 178 247 174 282 q 198 180 183 211 q 241 131 212 150 q 315 111 269 111 q 389 131 361 111 q 433 180 418 150 q 454 246 449 210 q 458 315 458 282 l 458 885 l 599 885 l 599 315 m 164 1104 q 176 1164 164 1137 q 208 1213 187 1192 q 257 1245 229 1234 q 317 1257 285 1257 q 376 1245 349 1257 q 425 1213 404 1234 q 457 1164 446 1192 q 469 1104 469 1137 q 457 1044 469 1072 q 425 996 446 1017 q 376 963 404 975 q 317 951 349 951 q 257 963 285 951 q 208 996 229 975 q 176 1044 187 1017 q 164 1104 164 1072 m 254 1104 q 272 1060 254 1078 q 317 1042 290 1042 q 361 1060 343 1042 q 379 1104 379 1078 q 361 1149 379 1131 q 317 1167 343 1167 q 272 1149 290 1167 q 254 1104 254 1131 z "},"ů":{"ha":758,"x_min":33,"x_max":599,"o":"m 33 632 l 174 632 l 174 241 q 201 140 174 168 q 282 111 229 111 q 409 174 359 111 q 458 349 458 237 l 458 632 l 599 632 l 599 0 l 458 0 l 458 158 q 380 31 437 77 q 240 -16 323 -16 q 88 48 143 -16 q 33 241 33 111 l 33 632 m 164 852 q 176 912 164 885 q 208 961 187 940 q 257 994 229 982 q 317 1006 285 1006 q 376 994 349 1006 q 425 961 404 982 q 457 912 446 940 q 469 852 469 885 q 457 793 469 821 q 425 744 446 765 q 376 712 404 724 q 317 700 349 700 q 257 712 285 700 q 208 744 229 724 q 176 793 187 765 q 164 852 164 821 m 254 852 q 272 808 254 827 q 317 790 290 790 q 361 808 343 790 q 379 852 379 827 q 361 897 379 879 q 317 916 343 916 q 272 897 290 916 q 254 852 254 879 z "},"Ű":{"ha":758,"x_min":33,"x_max":600,"o":"m 599 315 q 582 179 599 240 q 531 75 566 118 q 442 8 496 32 q 315 -16 389 -16 q 189 8 241 -16 q 101 75 136 32 q 50 180 66 118 q 33 317 33 241 l 33 885 l 174 885 l 174 315 q 178 247 174 282 q 198 180 183 211 q 241 131 212 150 q 315 111 269 111 q 389 131 361 111 q 433 180 418 150 q 454 246 449 210 q 458 315 458 282 l 458 885 l 599 885 l 599 315 m 473 946 l 357 946 l 453 1200 l 600 1200 l 473 946 m 221 946 l 106 946 l 200 1200 l 347 1200 l 221 946 z "},"ű":{"ha":758,"x_min":33,"x_max":600,"o":"m 33 632 l 174 632 l 174 241 q 201 140 174 168 q 282 111 229 111 q 409 174 359 111 q 458 349 458 237 l 458 632 l 599 632 l 599 0 l 458 0 l 458 158 q 380 31 437 77 q 240 -16 323 -16 q 88 48 143 -16 q 33 241 33 111 l 33 632 m 473 694 l 357 694 l 453 949 l 600 949 l 473 694 m 221 694 l 106 694 l 200 949 l 347 949 l 221 694 z "},"Ų":{"ha":758,"x_min":33,"x_max":599,"o":"m 496 -257 q 351 -217 404 -257 q 297 -96 297 -176 q 322 -16 297 -52 l 315 -16 q 189 8 241 -16 q 101 75 136 32 q 50 180 66 118 q 33 317 33 241 l 33 885 l 174 885 l 174 315 q 178 247 174 282 q 198 180 183 211 q 241 131 212 150 q 315 111 269 111 q 389 131 361 111 q 433 180 418 150 q 454 246 449 210 q 458 315 458 282 l 458 885 l 599 885 l 599 315 q 555 111 599 193 q 419 0 511 29 q 393 -71 393 -29 q 423 -135 393 -114 q 496 -157 453 -157 l 496 -257 z "},"ų":{"ha":758,"x_min":33,"x_max":675,"o":"m 675 -257 q 530 -217 583 -257 q 476 -96 476 -176 q 486 -44 476 -68 q 513 0 496 -20 l 458 0 l 458 158 q 380 31 437 77 q 240 -16 323 -16 q 88 48 143 -16 q 33 241 33 111 l 33 632 l 174 632 l 174 241 q 201 140 174 168 q 282 111 229 111 q 409 174 359 111 q 458 349 458 237 l 458 632 l 599 632 l 599 0 q 572 -71 572 -29 q 602 -135 572 -114 q 675 -157 632 -157 l 675 -257 z "},"Ŵ":{"ha":758,"x_min":-43,"x_max":675,"o":"m 675 885 l 538 0 l 393 0 l 315 382 l 239 0 l 94 0 l -43 885 l 103 885 l 184 289 l 249 632 l 383 632 l 446 289 l 529 885 l 675 885 m 536 987 l 482 918 l 318 1057 l 151 917 l 97 985 l 317 1200 l 536 987 z "},"ŵ":{"ha":758,"x_min":-20,"x_max":652,"o":"m 652 632 l 557 0 l 383 0 l 317 380 l 249 0 l 75 0 l -20 632 l 118 632 l 174 210 l 241 632 l 390 632 l 458 210 l 514 632 l 652 632 m 536 736 l 482 667 l 318 806 l 151 665 l 97 733 l 317 949 l 536 736 z "},"Ŷ":{"ha":758,"x_min":-14,"x_max":646,"o":"m 646 758 l 582 758 l 386 361 l 386 126 l 528 126 l 528 0 l 104 0 l 104 126 l 245 126 l 245 361 l 50 758 l -14 758 l -14 885 l 265 885 l 265 758 l 204 758 l 317 498 l 428 758 l 367 758 l 367 885 l 646 885 l 646 758 m 536 987 l 482 918 l 318 1057 l 151 917 l 97 985 l 317 1200 l 536 987 z "},"ŷ":{"ha":758,"x_min":-4,"x_max":627,"o":"m 627 632 l 354 -123 q 265 -236 323 -205 q 126 -267 207 -267 q 66 -261 98 -267 q 0 -243 35 -256 l 29 -114 q 83 -129 58 -125 q 126 -134 107 -134 q 212 -78 189 -134 l 237 -17 l -4 632 l 142 632 l 315 154 l 476 632 l 627 632 m 536 736 l 482 667 l 318 806 l 151 665 l 97 733 l 317 949 l 536 736 z "},"Ź":{"ha":758,"x_min":33,"x_max":599,"o":"m 599 0 l 33 0 l 33 125 l 429 758 l 160 758 l 160 566 l 33 566 l 33 885 l 587 885 l 587 758 l 203 126 l 475 126 l 475 321 l 599 321 l 599 0 m 482 1082 l 189 917 l 129 1010 l 403 1204 l 482 1082 z "},"ź":{"ha":758,"x_min":33,"x_max":599,"o":"m 599 0 l 33 0 l 33 125 l 393 505 l 157 505 l 157 378 l 33 378 l 33 632 l 586 632 l 586 505 l 225 126 l 475 126 l 475 252 l 599 252 l 599 0 m 482 831 l 189 665 l 129 758 l 403 953 l 482 831 z "},"Ż":{"ha":758,"x_min":33,"x_max":599,"o":"m 599 0 l 33 0 l 33 125 l 429 758 l 160 758 l 160 566 l 33 566 l 33 885 l 587 885 l 587 758 l 203 126 l 475 126 l 475 321 l 599 321 l 599 0 m 401 966 l 231 966 l 231 1137 l 401 1137 l 401 966 z "},"ż":{"ha":758,"x_min":33,"x_max":599,"o":"m 599 0 l 33 0 l 33 125 l 393 505 l 157 505 l 157 378 l 33 378 l 33 632 l 586 632 l 586 505 l 225 126 l 475 126 l 475 252 l 599 252 l 599 0 m 401 714 l 231 714 l 231 885 l 401 885 l 401 714 z "},"Ž":{"ha":758,"x_min":33,"x_max":599,"o":"m 599 0 l 33 0 l 33 125 l 429 758 l 160 758 l 160 566 l 33 566 l 33 885 l 587 885 l 587 758 l 203 126 l 475 126 l 475 321 l 599 321 l 599 0 m 317 917 l 97 1132 l 151 1200 l 318 1060 l 482 1199 l 536 1129 l 317 917 z "},"ž":{"ha":758,"x_min":33,"x_max":599,"o":"m 599 0 l 33 0 l 33 125 l 393 505 l 157 505 l 157 378 l 33 378 l 33 632 l 586 632 l 586 505 l 225 126 l 475 126 l 475 252 l 599 252 l 599 0 m 317 665 l 97 880 l 151 949 l 318 808 l 482 947 l 536 878 l 317 665 z "},"ſ":{"ha":758,"x_min":106,"x_max":632,"o":"m 386 126 l 530 126 l 530 0 l 106 0 l 106 126 l 245 126 l 245 505 l 106 505 l 106 632 l 245 632 q 326 831 245 762 q 542 900 406 900 q 585 898 562 900 q 632 893 608 896 l 632 770 q 558 774 591 774 q 471 766 504 774 q 419 741 437 758 q 393 696 400 724 q 386 632 386 669 l 386 126 z "},"Ǽ":{"ha":758,"x_min":-43,"x_max":632,"o":"m 268 0 l 268 211 l 153 211 l 102 0 l -43 0 l 204 885 l 632 885 l 632 758 l 408 758 l 408 514 l 599 514 l 599 387 l 408 387 l 408 126 l 632 126 l 632 0 l 268 0 m 182 335 l 268 335 l 268 685 l 182 335 m 482 1085 l 189 920 l 129 1013 l 403 1207 l 482 1085 z "},"ǽ":{"ha":758,"x_min":-14,"x_max":642,"o":"m 306 89 q 244 15 279 45 q 155 -16 210 -16 q 83 0 114 -16 q 30 41 52 16 q -3 101 8 66 q -14 172 -14 135 q 4 268 -14 227 q 51 338 21 310 q 119 379 81 366 q 201 393 158 393 q 227 393 216 393 q 253 389 237 392 l 253 429 q 234 501 253 479 q 184 522 215 522 q 132 510 161 522 q 79 457 103 497 l -5 538 q 84 622 32 596 q 178 647 136 647 q 264 628 227 647 q 319 559 302 608 q 377 626 343 606 q 458 647 411 647 q 558 613 522 647 q 613 525 595 579 q 637 402 632 471 q 642 262 642 334 l 379 262 q 403 146 379 178 q 457 114 427 114 q 495 126 479 114 q 517 168 510 139 l 635 129 q 569 20 611 56 q 457 -16 526 -16 q 416 -11 437 -16 q 374 6 395 -5 q 336 38 354 18 q 306 89 318 58 m 501 386 q 484 494 498 467 q 443 522 469 522 q 398 492 414 522 q 379 386 382 461 l 501 386 m 253 265 q 235 267 244 267 q 210 268 225 268 q 151 244 176 268 q 125 179 125 221 q 139 129 125 144 q 175 113 153 113 q 233 146 212 113 q 253 224 253 179 l 253 265 m 482 832 l 189 667 l 129 760 l 403 954 l 482 832 z "},"Ǿ":{"ha":758,"x_min":-28,"x_max":664,"o":"m -22 443 q -3 614 -22 532 q 56 760 16 697 q 160 862 96 823 q 317 900 225 900 q 470 865 407 900 q 574 768 533 829 l 664 859 l 664 708 l 623 667 q 656 443 656 564 q 637 272 656 354 q 579 125 619 189 q 474 23 539 61 q 317 -16 410 -16 q 168 17 229 -16 q 65 107 106 50 l -28 14 l -28 164 l 14 205 q -14 319 -5 258 q -22 443 -22 379 m 118 443 q 119 380 118 411 q 126 319 121 350 l 475 668 q 413 745 452 715 q 317 774 375 774 q 169 686 220 774 q 118 443 118 599 m 317 111 q 415 140 376 111 q 475 217 453 170 q 506 323 497 264 q 515 443 515 383 q 513 497 515 471 q 509 551 511 524 l 164 205 q 223 137 187 163 q 317 111 260 111 m 482 1085 l 189 920 l 129 1013 l 403 1207 l 482 1085 z "},"ǿ":{"ha":758,"x_min":-16,"x_max":647,"o":"m 0 122 l 26 144 q -4 223 7 180 q -16 315 -16 267 q 9 449 -16 387 q 77 554 33 510 q 182 623 121 599 q 317 647 243 647 q 439 626 383 647 q 539 570 496 606 l 632 647 l 632 510 l 606 488 q 636 407 625 450 q 647 315 647 364 q 624 181 647 241 q 556 77 600 121 q 452 9 513 33 q 317 -16 392 -16 q 193 5 249 -16 q 93 61 136 25 l 0 -16 l 0 122 m 507 315 q 494 396 507 358 l 197 149 q 251 121 221 131 q 317 111 281 111 q 396 126 361 111 q 456 170 432 142 q 494 234 481 197 q 507 315 507 271 m 125 315 q 138 236 125 271 l 433 482 q 317 521 386 521 q 237 505 272 521 q 176 462 201 489 q 138 396 151 435 q 125 315 125 358 m 482 832 l 189 667 l 129 760 l 403 954 l 482 832 z "},"Ș":{"ha":758,"x_min":18,"x_max":610,"o":"m 610 243 q 589 134 610 182 q 533 53 568 86 q 448 2 497 20 q 343 -16 399 -16 q 231 7 281 -16 q 144 81 180 29 l 144 0 l 18 0 l 18 289 l 144 289 q 160 212 144 245 q 200 156 175 179 q 258 122 225 134 q 329 110 292 110 q 431 139 392 110 q 469 232 469 168 q 457 289 469 265 q 424 331 446 313 q 370 364 401 350 q 297 393 338 378 q 201 430 249 410 q 115 480 153 450 q 53 554 77 510 q 29 664 29 597 q 51 766 29 722 q 107 840 72 810 q 190 885 143 869 q 290 900 237 900 q 395 874 351 900 q 463 806 439 848 l 463 885 l 589 885 l 589 610 l 463 610 q 421 731 463 688 q 311 775 380 775 q 210 747 250 775 q 170 667 170 718 q 180 622 170 640 q 211 588 191 603 q 261 559 231 572 q 332 530 292 546 q 431 490 382 513 q 520 435 481 468 q 585 356 559 403 q 610 243 610 310 m 464 -74 l 334 -253 l 204 -253 l 275 -74 l 464 -74 z "},"ș":{"ha":758,"x_min":-7,"x_max":615,"o":"m 615 189 q 587 89 615 127 q 516 26 559 50 q 418 -6 472 3 q 313 -16 364 -16 q 141 9 227 -16 q -7 75 56 35 l 52 191 q 188 129 126 147 q 313 111 250 111 q 436 129 397 111 q 475 179 475 147 q 464 205 475 195 q 428 223 453 215 q 362 240 403 232 q 260 258 321 249 q 167 278 211 267 q 90 312 123 290 q 37 367 57 334 q 17 450 17 400 q 43 539 17 501 q 112 601 69 576 q 207 636 154 625 q 313 647 260 647 q 457 628 387 647 q 581 572 528 608 l 525 464 q 422 509 472 497 q 313 521 372 521 q 260 518 288 521 q 210 508 233 515 q 172 487 187 500 q 157 454 157 473 q 201 413 157 429 q 353 382 245 397 q 459 361 411 374 q 542 327 507 349 q 596 272 576 306 q 615 189 615 239 m 464 -74 l 334 -253 l 204 -253 l 275 -74 l 464 -74 z "},"Ț":{"ha":758,"x_min":0,"x_max":631,"o":"m 631 562 l 505 562 l 505 758 l 386 758 l 386 126 l 526 126 l 526 0 l 106 0 l 106 126 l 245 126 l 245 758 l 125 758 l 125 562 l 0 562 l 0 885 l 631 885 l 631 562 m 464 -74 l 334 -253 l 204 -253 l 275 -74 l 464 -74 z "},"ț":{"ha":758,"x_min":0,"x_max":639,"o":"m 639 201 q 561 43 628 102 q 392 -16 493 -16 q 290 3 336 -16 q 212 54 244 21 q 161 132 179 86 q 143 232 143 178 l 143 505 l 0 505 l 0 632 l 143 632 l 143 885 l 283 885 l 283 632 l 549 632 l 549 505 l 283 505 l 283 232 q 313 141 283 171 q 392 111 343 111 q 481 146 452 111 q 515 229 510 180 l 639 201 m 464 -74 l 334 -253 l 204 -253 l 275 -74 l 464 -74 z "},"΄":{"ha":758,"x_min":253,"x_max":419,"o":"m 419 1136 l 363 758 l 253 758 l 253 1136 l 419 1136 z "},"΅":{"ha":758,"x_min":0,"x_max":632,"o":"m 632 758 l 461 758 l 461 929 l 632 929 l 632 758 m 171 758 l 0 758 l 0 929 l 171 929 l 171 758 m 419 1136 l 363 758 l 253 758 l 253 1136 l 419 1136 z "},"Ά":{"ha":758,"x_min":-40,"x_max":673,"o":"m 526 0 l 463 211 l 170 211 l 107 0 l -40 0 l 236 885 l 397 885 l 673 0 l 526 0 m 207 335 l 425 335 l 317 700 l 207 335 m 167 1136 l 111 758 l 1 758 l 1 1136 l 167 1136 z "},"Έ":{"ha":758,"x_min":-125,"x_max":599,"o":"m 41 1136 l -16 758 l -125 758 l -125 1136 l 41 1136 m 599 0 l 33 0 l 33 885 l 599 885 l 599 758 l 174 758 l 174 514 l 505 514 l 505 387 l 174 387 l 174 126 l 599 126 l 599 0 z "},"Ή":{"ha":758,"x_min":-125,"x_max":599,"o":"m 41 1136 l -16 758 l -125 758 l -125 1136 l 41 1136 m 599 0 l 458 0 l 458 387 l 174 387 l 174 0 l 33 0 l 33 885 l 174 885 l 174 514 l 458 514 l 458 885 l 599 885 l 599 0 z "},"Ί":{"ha":758,"x_min":0,"x_max":530,"o":"m 530 0 l 106 0 l 106 126 l 245 126 l 245 758 l 161 758 l 161 885 l 530 885 l 530 758 l 386 758 l 386 126 l 530 126 l 530 0 m 166 1136 l 110 758 l 0 758 l 0 1136 l 166 1136 z "},"Ό":{"ha":758,"x_min":-125,"x_max":656,"o":"m 41 1136 l -16 758 l -125 758 l -125 1136 l 41 1136 m -22 443 q -3 614 -22 532 q 56 760 16 697 q 160 862 96 823 q 317 900 225 900 q 473 862 408 900 q 578 760 538 823 q 637 614 619 697 q 656 443 656 532 q 637 272 656 354 q 579 125 619 189 q 474 23 539 61 q 317 -16 410 -16 q 159 23 224 -16 q 54 125 94 61 q -4 272 14 189 q -22 443 -22 354 m 118 443 q 127 323 118 383 q 158 217 136 264 q 219 140 180 170 q 317 111 257 111 q 415 140 376 111 q 475 217 453 170 q 506 323 497 264 q 515 443 515 383 q 506 562 515 503 q 475 668 497 621 q 414 745 453 715 q 317 774 375 774 q 169 686 220 774 q 118 443 118 599 z "},"Ύ":{"ha":758,"x_min":-126,"x_max":646,"o":"m 646 758 l 582 758 l 386 361 l 386 126 l 528 126 l 528 0 l 104 0 l 104 126 l 245 126 l 245 361 l 50 758 l 33 758 l 33 885 l 265 885 l 265 758 l 204 758 l 317 498 l 428 758 l 367 758 l 367 885 l 646 885 l 646 758 m 40 1136 l -16 758 l -126 758 l -126 1136 l 40 1136 z "},"Ώ":{"ha":758,"x_min":-125,"x_max":646,"o":"m 41 1136 l -16 758 l -125 758 l -125 1136 l 41 1136 m 646 503 q 610 312 646 404 q 490 157 575 220 l 490 126 l 632 126 l 632 0 l 379 0 l 379 243 q 441 288 416 260 q 480 352 465 317 q 500 427 494 387 q 505 503 505 467 q 495 598 505 550 q 463 686 485 647 q 404 749 440 725 q 317 774 368 774 q 231 749 267 774 q 172 686 196 725 q 137 598 149 647 q 126 503 126 550 q 132 427 126 467 q 152 352 138 387 q 191 288 167 317 q 253 243 215 260 l 253 0 l 0 0 l 0 126 l 144 126 l 144 157 q 24 308 62 215 q -14 503 -14 401 q 8 651 -14 579 q 71 779 29 724 q 174 867 113 833 q 317 900 236 900 q 458 867 397 900 q 561 779 519 833 q 624 651 603 724 q 646 503 646 579 z "},"ΐ":{"ha":758,"x_min":0,"x_max":632,"o":"m 530 9 q 422 -16 478 -16 q 294 25 343 -16 q 245 140 245 65 l 245 505 l 126 505 l 126 632 l 386 632 l 386 182 q 404 122 386 136 q 449 109 421 109 q 478 113 464 109 q 501 122 493 117 l 530 9 m 632 758 l 461 758 l 461 929 l 632 929 l 632 758 m 171 758 l 0 758 l 0 929 l 171 929 l 171 758 m 419 1136 l 363 758 l 253 758 l 253 1136 l 419 1136 z "},"Α":{"ha":758,"x_min":-40,"x_max":673,"o":"m 526 0 l 463 211 l 170 211 l 107 0 l -40 0 l 236 885 l 397 885 l 673 0 l 526 0 m 207 335 l 425 335 l 317 700 l 207 335 z "},"Β":{"ha":758,"x_min":33,"x_max":631,"o":"m 631 243 q 549 61 631 122 q 315 0 467 0 l 33 0 l 33 885 l 300 885 q 409 876 355 885 q 505 842 463 867 q 574 771 547 817 q 600 654 600 726 q 566 532 600 587 q 463 452 532 476 q 589 378 547 425 q 631 243 631 330 m 461 636 q 447 699 461 675 q 409 737 432 724 q 357 754 386 750 q 300 758 329 758 l 174 758 l 174 514 l 300 514 q 357 518 329 514 q 409 535 386 522 q 447 573 432 549 q 461 636 461 597 m 492 257 q 445 355 492 323 q 315 387 399 387 l 174 387 l 174 126 l 315 126 q 445 158 399 126 q 492 257 492 191 z "},"Γ":{"ha":758,"x_min":33,"x_max":632,"o":"m 33 885 l 632 885 l 632 758 l 174 758 l 174 0 l 33 0 l 33 885 z "},"Δ":{"ha":758,"x_min":-40,"x_max":673,"o":"m -40 0 l 236 885 l 397 885 l 673 0 l -40 0 m 144 125 l 489 125 l 317 700 l 144 125 z "},"Ε":{"ha":758,"x_min":33,"x_max":599,"o":"m 599 0 l 33 0 l 33 885 l 599 885 l 599 758 l 174 758 l 174 514 l 505 514 l 505 387 l 174 387 l 174 126 l 599 126 l 599 0 z "},"Ζ":{"ha":758,"x_min":33,"x_max":599,"o":"m 599 0 l 33 0 l 33 125 l 429 758 l 160 758 l 160 566 l 33 566 l 33 885 l 587 885 l 587 758 l 203 126 l 475 126 l 475 321 l 599 321 l 599 0 z "},"Η":{"ha":758,"x_min":33,"x_max":599,"o":"m 599 0 l 458 0 l 458 387 l 174 387 l 174 0 l 33 0 l 33 885 l 174 885 l 174 514 l 458 514 l 458 885 l 599 885 l 599 0 z "},"Θ":{"ha":758,"x_min":-22,"x_max":656,"o":"m 155 514 l 475 514 l 475 387 l 155 387 l 155 514 m -22 443 q -3 614 -22 532 q 56 760 16 697 q 160 862 96 823 q 317 900 225 900 q 473 862 408 900 q 578 760 538 823 q 637 614 619 697 q 656 443 656 532 q 637 272 656 354 q 579 125 619 189 q 474 23 539 61 q 317 -16 410 -16 q 159 23 224 -16 q 54 125 94 61 q -4 272 14 189 q -22 443 -22 354 m 118 443 q 127 323 118 383 q 158 217 136 264 q 219 140 180 170 q 317 111 257 111 q 415 140 376 111 q 475 217 453 170 q 506 323 497 264 q 515 443 515 383 q 506 562 515 503 q 475 668 497 621 q 414 745 453 715 q 317 774 375 774 q 169 686 220 774 q 118 443 118 599 z "},"Ι":{"ha":758,"x_min":106,"x_max":530,"o":"m 530 0 l 106 0 l 106 126 l 245 126 l 245 758 l 106 758 l 106 885 l 530 885 l 530 758 l 386 758 l 386 126 l 530 126 l 530 0 z "},"Κ":{"ha":758,"x_min":33,"x_max":629,"o":"m 628 0 l 464 0 l 232 412 l 174 343 l 174 0 l 33 0 l 33 885 l 174 885 l 174 538 l 449 885 l 629 885 l 321 518 l 628 0 z "},"Λ":{"ha":758,"x_min":-40,"x_max":672,"o":"m 525 0 l 317 700 l 107 0 l -40 0 l 236 885 l 396 885 l 672 0 l 525 0 z "},"Μ":{"ha":758,"x_min":33,"x_max":599,"o":"m 599 0 l 458 0 l 458 599 l 370 281 l 261 281 l 174 599 l 174 0 l 33 0 l 33 885 l 200 885 l 315 485 l 431 885 l 599 885 l 599 0 z "},"Ν":{"ha":758,"x_min":33,"x_max":599,"o":"m 599 0 l 436 0 l 174 642 l 174 0 l 33 0 l 33 885 l 210 885 l 458 275 l 458 885 l 599 885 l 599 0 z "},"Ξ":{"ha":758,"x_min":0,"x_max":632,"o":"m 0 227 l 126 227 l 126 126 l 505 126 l 505 227 l 632 227 l 632 0 l 0 0 l 0 227 m 505 758 l 126 758 l 126 657 l 0 657 l 0 885 l 632 885 l 632 657 l 505 657 l 505 758 m 126 514 l 505 514 l 505 387 l 126 387 l 126 514 z "},"Ο":{"ha":758,"x_min":-22,"x_max":656,"o":"m -22 443 q -3 614 -22 532 q 56 760 16 697 q 160 862 96 823 q 317 900 225 900 q 473 862 408 900 q 578 760 538 823 q 637 614 619 697 q 656 443 656 532 q 637 272 656 354 q 579 125 619 189 q 474 23 539 61 q 317 -16 410 -16 q 159 23 224 -16 q 54 125 94 61 q -4 272 14 189 q -22 443 -22 354 m 118 443 q 127 323 118 383 q 158 217 136 264 q 219 140 180 170 q 317 111 257 111 q 415 140 376 111 q 475 217 453 170 q 506 323 497 264 q 515 443 515 383 q 506 562 515 503 q 475 668 497 621 q 414 745 453 715 q 317 774 375 774 q 169 686 220 774 q 118 443 118 599 z "},"Π":{"ha":758,"x_min":33,"x_max":599,"o":"m 599 0 l 458 0 l 458 758 l 174 758 l 174 0 l 33 0 l 33 885 l 599 885 l 599 0 z "},"Ρ":{"ha":758,"x_min":33,"x_max":632,"o":"m 632 621 q 551 423 632 488 q 326 358 471 358 l 174 358 l 174 0 l 33 0 l 33 885 l 325 885 q 551 818 471 885 q 632 621 632 751 m 492 623 q 447 724 492 690 q 326 758 403 758 l 174 758 l 174 485 l 326 485 q 447 519 403 485 q 492 623 492 553 z "},"Σ":{"ha":758,"x_min":29,"x_max":599,"o":"m 599 0 l 29 0 l 29 126 l 229 441 l 29 758 l 29 885 l 599 885 l 599 586 l 472 586 l 472 758 l 200 758 l 395 441 l 200 126 l 472 126 l 472 300 l 599 300 l 599 0 z "},"Τ":{"ha":758,"x_min":0,"x_max":631,"o":"m 631 562 l 505 562 l 505 758 l 386 758 l 386 126 l 526 126 l 526 0 l 106 0 l 106 126 l 245 126 l 245 758 l 125 758 l 125 562 l 0 562 l 0 885 l 631 885 l 631 562 z "},"Υ":{"ha":758,"x_min":-14,"x_max":646,"o":"m 646 758 l 582 758 l 386 361 l 386 126 l 528 126 l 528 0 l 104 0 l 104 126 l 245 126 l 245 361 l 50 758 l -14 758 l -14 885 l 265 885 l 265 758 l 204 758 l 317 498 l 428 758 l 367 758 l 367 885 l 646 885 l 646 758 z "},"Φ":{"ha":758,"x_min":-14,"x_max":648,"o":"m 648 452 q 630 331 648 386 q 576 235 611 277 q 493 165 542 193 q 385 126 444 136 l 385 0 l 245 0 l 245 126 q 56 235 126 149 q -14 452 -14 322 q 4 570 -14 515 q 56 666 22 624 q 138 736 90 708 q 245 777 186 765 l 245 885 l 385 885 l 385 778 q 493 739 444 766 q 576 668 542 711 q 630 570 611 625 q 648 452 648 515 m 509 452 q 476 573 509 521 q 385 646 443 625 l 385 257 q 476 329 443 278 q 509 452 509 380 m 126 452 q 157 331 126 382 q 245 258 187 279 l 245 644 q 157 572 187 624 q 126 452 126 519 z "},"Χ":{"ha":758,"x_min":-16,"x_max":646,"o":"m 646 0 l 357 0 l 357 126 l 407 126 l 314 326 l 221 126 l 271 126 l 271 0 l -16 0 l -16 126 l 61 126 l 233 447 l 64 758 l 0 758 l 0 885 l 281 885 l 281 758 l 224 758 l 314 562 l 406 758 l 350 758 l 350 885 l 632 885 l 632 758 l 564 758 l 395 447 l 567 126 l 646 126 l 646 0 z "},"Ψ":{"ha":758,"x_min":0,"x_max":632,"o":"m 632 581 q 615 431 632 494 q 567 325 599 368 q 489 255 534 281 q 386 221 443 229 l 386 0 l 245 0 l 245 221 q 65 325 131 239 q 0 581 0 411 l 0 885 l 140 885 l 140 581 q 165 435 140 496 q 245 351 189 375 l 245 885 l 386 885 l 386 351 q 468 435 443 375 q 493 581 493 494 l 493 885 l 632 885 l 632 581 z "},"Ϊ":{"ha":758,"x_min":104,"x_max":530,"o":"m 530 0 l 106 0 l 106 126 l 245 126 l 245 758 l 106 758 l 106 885 l 530 885 l 530 758 l 386 758 l 386 126 l 530 126 l 530 0 m 528 966 l 357 966 l 357 1137 l 528 1137 l 528 966 m 275 966 l 104 966 l 104 1137 l 275 1137 l 275 966 z "},"Ϋ":{"ha":758,"x_min":-14,"x_max":646,"o":"m 646 758 l 582 758 l 386 361 l 386 126 l 528 126 l 528 0 l 104 0 l 104 126 l 245 126 l 245 361 l 50 758 l -14 758 l -14 885 l 265 885 l 265 758 l 204 758 l 317 498 l 428 758 l 367 758 l 367 885 l 646 885 l 646 758 m 528 966 l 357 966 l 357 1137 l 528 1137 l 528 966 m 275 966 l 104 966 l 104 1137 l 275 1137 l 275 966 z "},"ά":{"ha":758,"x_min":-14,"x_max":636,"o":"m 126 315 q 134 243 126 279 q 158 178 142 207 q 200 130 175 149 q 261 111 225 111 q 317 130 292 111 q 361 178 342 149 q 394 243 380 207 q 419 315 408 279 q 394 388 408 351 q 361 454 380 425 q 317 502 342 484 q 261 521 292 521 q 200 502 225 521 q 158 454 175 484 q 134 388 142 425 q 126 315 126 351 m -14 315 q 3 439 -14 379 q 54 545 20 498 q 138 619 87 591 q 257 647 189 647 q 386 609 339 647 q 465 497 433 571 l 494 632 l 636 632 l 547 315 l 636 0 l 494 0 l 465 134 q 386 22 433 60 q 257 -16 339 -16 q 138 12 189 -16 q 54 86 87 40 q 3 192 20 132 q -14 315 -14 252 m 419 1136 l 363 758 l 253 758 l 253 1136 l 419 1136 z "},"έ":{"ha":758,"x_min":0,"x_max":608,"o":"m 1 458 q 25 537 1 501 q 90 596 49 572 q 187 634 131 621 q 309 647 243 647 q 480 613 412 647 q 590 511 549 579 l 488 440 q 307 521 436 521 q 187 501 232 521 q 142 447 142 481 q 177 406 142 424 q 283 387 212 387 l 416 387 l 416 261 l 282 261 q 176 239 211 261 q 140 191 140 216 q 188 133 140 154 q 314 111 236 111 q 430 134 380 111 q 498 193 479 157 l 608 119 q 495 18 566 52 q 317 -16 425 -16 q 191 -2 249 -16 q 91 36 134 11 q 24 97 49 61 q 0 179 0 134 q 38 268 0 228 q 139 321 77 309 q 37 372 72 332 q 1 458 1 412 m 419 1136 l 363 758 l 253 758 l 253 1136 l 419 1136 z "},"ή":{"ha":758,"x_min":-14,"x_max":599,"o":"m 237 525 q 302 612 253 578 q 411 647 351 647 q 554 584 509 647 q 599 392 599 521 l 599 -253 l 458 -253 l 458 392 q 436 495 458 469 q 379 521 414 521 q 287 471 321 521 q 253 325 253 421 l 253 0 l 113 0 l 113 463 q 97 506 113 492 q 58 521 82 521 q 35 519 45 521 q 14 514 25 517 l -14 628 q 39 642 8 637 q 100 647 69 647 q 151 640 126 647 q 194 617 175 632 q 224 579 212 603 q 237 525 236 555 m 419 1136 l 363 758 l 253 758 l 253 1136 l 419 1136 z "},"ί":{"ha":758,"x_min":126,"x_max":530,"o":"m 530 9 q 422 -16 478 -16 q 294 25 343 -16 q 245 140 245 65 l 245 505 l 126 505 l 126 632 l 386 632 l 386 182 q 404 122 386 136 q 449 109 421 109 q 478 113 464 109 q 501 122 493 117 l 530 9 m 419 1136 l 363 758 l 253 758 l 253 1136 l 419 1136 z "},"ΰ":{"ha":758,"x_min":0,"x_max":632,"o":"m 317 -16 q 201 1 253 -16 q 111 50 149 17 q 54 130 74 82 q 33 243 33 178 l 33 632 l 174 632 l 174 243 q 216 144 174 176 q 319 111 258 111 q 401 133 368 111 q 455 189 435 154 q 483 266 475 224 q 492 349 492 309 q 480 482 492 422 q 440 595 468 542 l 575 646 q 617 506 603 581 q 632 347 632 431 q 614 219 632 283 q 558 102 596 154 q 460 17 519 50 q 317 -16 400 -16 m 632 758 l 461 758 l 461 929 l 632 929 l 632 758 m 171 758 l 0 758 l 0 929 l 171 929 l 171 758 m 419 1136 l 363 758 l 253 758 l 253 1136 l 419 1136 z "},"α":{"ha":758,"x_min":-14,"x_max":636,"o":"m 126 315 q 134 243 126 279 q 158 178 142 207 q 200 130 175 149 q 261 111 225 111 q 317 130 292 111 q 361 178 342 149 q 394 243 380 207 q 419 315 408 279 q 394 388 408 351 q 361 454 380 425 q 317 502 342 484 q 261 521 292 521 q 200 502 225 521 q 158 454 175 484 q 134 388 142 425 q 126 315 126 351 m -14 315 q 3 439 -14 379 q 54 545 20 498 q 138 619 87 591 q 257 647 189 647 q 386 609 339 647 q 465 497 433 571 l 494 632 l 636 632 l 547 315 l 636 0 l 494 0 l 465 134 q 386 22 433 60 q 257 -16 339 -16 q 138 12 189 -16 q 54 86 87 40 q 3 192 20 132 q -14 315 -14 252 z "},"β":{"ha":758,"x_min":33,"x_max":637,"o":"m 363 -16 q 258 1 302 -16 q 174 50 214 17 l 174 -253 l 33 -253 l 33 628 q 56 738 33 688 q 116 824 78 789 q 207 880 154 860 q 321 900 260 900 q 438 879 386 900 q 526 825 490 859 q 580 749 561 791 q 599 664 599 707 q 559 537 599 593 q 446 456 519 481 q 587 374 536 428 q 637 236 637 319 q 617 135 637 180 q 561 56 597 89 q 473 3 524 22 q 363 -16 422 -16 m 338 111 q 455 147 414 111 q 497 248 497 183 q 453 349 497 311 q 319 387 410 387 l 253 387 l 253 514 l 315 514 q 425 552 392 514 q 458 648 458 590 q 451 690 458 668 q 428 731 444 713 q 385 762 411 750 q 321 774 358 774 q 267 765 293 774 q 219 738 240 755 q 186 692 199 720 q 174 628 174 665 l 174 186 q 338 111 232 111 z "},"γ":{"ha":758,"x_min":0,"x_max":610,"o":"m 610 632 q 581 467 599 551 q 535 298 562 382 q 470 135 509 215 q 379 -17 432 56 l 379 -253 l 240 -253 l 240 -17 l 0 632 l 150 632 l 325 131 q 414 358 383 229 q 463 632 446 486 l 610 632 z "},"δ":{"ha":758,"x_min":26,"x_max":606,"o":"m 26 275 q 74 424 26 349 q 221 561 121 498 q 158 626 183 590 q 134 717 134 663 q 148 787 134 754 q 188 846 161 821 q 253 885 214 871 q 343 900 293 900 q 437 889 393 900 q 522 850 481 878 l 464 745 q 399 775 432 766 q 343 785 367 785 q 291 769 311 785 q 271 725 271 753 q 296 667 271 693 q 358 614 321 640 q 438 557 395 587 q 519 488 482 528 q 581 397 555 449 q 606 275 606 345 q 585 157 606 210 q 526 65 564 104 q 434 5 488 26 q 314 -16 380 -16 q 195 5 249 -16 q 104 65 142 26 q 46 157 66 104 q 26 275 26 210 m 465 275 q 454 346 465 314 q 424 403 443 378 q 380 449 406 428 q 329 488 355 469 q 205 390 244 441 q 167 273 167 338 q 207 157 167 203 q 314 111 248 111 q 426 157 387 111 q 465 275 465 203 z "},"ε":{"ha":758,"x_min":0,"x_max":608,"o":"m 1 458 q 25 537 1 501 q 90 596 49 572 q 187 634 131 621 q 309 647 243 647 q 480 613 412 647 q 590 511 549 579 l 488 440 q 307 521 436 521 q 187 501 232 521 q 142 447 142 481 q 177 406 142 424 q 283 387 212 387 l 416 387 l 416 261 l 282 261 q 176 239 211 261 q 140 191 140 216 q 188 133 140 154 q 314 111 236 111 q 430 134 380 111 q 498 193 479 157 l 608 119 q 495 18 566 52 q 317 -16 425 -16 q 191 -2 249 -16 q 91 36 134 11 q 24 97 49 61 q 0 179 0 134 q 38 268 0 228 q 139 321 77 309 q 37 372 72 332 q 1 458 1 412 z "},"ζ":{"ha":758,"x_min":0,"x_max":632,"o":"m 372 1 q 99 89 197 9 q 0 322 0 168 q 30 463 0 399 q 113 581 60 526 q 239 679 167 635 q 396 758 311 722 l 126 758 l 126 885 l 632 885 l 632 758 q 402 669 496 718 q 250 565 309 621 q 166 447 192 509 q 140 322 140 386 q 389 122 140 136 q 564 65 507 115 q 621 -64 621 16 q 608 -132 621 -98 q 570 -192 596 -165 q 503 -235 543 -218 q 408 -253 463 -252 l 392 -132 q 460 -110 440 -126 q 481 -64 481 -93 q 451 -16 481 -31 q 372 1 421 -1 z "},"η":{"ha":758,"x_min":-14,"x_max":599,"o":"m 237 525 q 302 612 253 578 q 411 647 351 647 q 554 584 509 647 q 599 392 599 521 l 599 -253 l 458 -253 l 458 392 q 436 495 458 469 q 379 521 414 521 q 287 471 321 521 q 253 325 253 421 l 253 0 l 113 0 l 113 463 q 97 506 113 492 q 58 521 82 521 q 35 519 45 521 q 14 514 25 517 l -14 628 q 39 642 8 637 q 100 647 69 647 q 151 640 126 647 q 194 617 175 632 q 224 579 212 603 q 237 525 236 555 z "},"θ":{"ha":758,"x_min":28,"x_max":607,"o":"m 607 441 q 590 256 607 340 q 539 112 574 172 q 449 18 504 52 q 317 -16 393 -16 q 185 18 239 -16 q 95 112 131 52 q 44 256 60 172 q 28 441 28 340 q 44 626 28 542 q 95 771 60 710 q 185 866 131 832 q 317 900 239 900 q 449 866 395 900 q 539 772 504 832 q 591 627 575 711 q 607 441 607 542 m 317 111 q 387 134 358 111 q 433 196 415 157 q 458 284 450 235 q 468 387 467 334 l 167 387 q 176 284 168 334 q 202 196 184 235 q 248 134 220 157 q 317 111 275 111 m 317 775 q 249 752 277 775 q 203 692 221 729 q 178 609 186 656 q 168 514 170 562 l 467 514 q 457 609 465 562 q 431 692 449 656 q 385 752 412 729 q 317 775 357 775 z "},"ι":{"ha":758,"x_min":126,"x_max":530,"o":"m 530 9 q 422 -16 478 -16 q 294 25 343 -16 q 245 140 245 65 l 245 505 l 126 505 l 126 632 l 386 632 l 386 182 q 404 122 386 136 q 449 109 421 109 q 478 113 464 109 q 501 122 493 117 l 530 9 z "},"κ":{"ha":758,"x_min":33,"x_max":631,"o":"m 631 0 l 449 0 l 237 256 l 174 191 l 174 0 l 33 0 l 33 632 l 174 632 l 174 364 l 427 632 l 619 632 l 328 342 l 631 0 z "},"λ":{"ha":758,"x_min":-4,"x_max":618,"o":"m 485 -25 l 315 478 l 142 0 l -4 0 l 237 648 l 212 710 q 126 766 189 766 q 83 762 107 766 q 29 747 58 758 l 0 876 q 66 895 35 889 q 126 900 98 900 q 266 869 207 900 q 354 755 325 838 l 618 21 l 485 -25 z "},"μ":{"ha":758,"x_min":33,"x_max":637,"o":"m 428 109 q 385 20 416 56 q 296 -16 354 -16 q 217 7 244 -16 q 174 65 189 29 l 174 -253 l 33 -253 l 33 632 l 174 632 l 174 236 q 180 176 174 200 q 200 137 187 151 q 231 117 212 122 q 269 111 249 111 q 347 156 314 111 q 379 272 379 200 l 379 632 l 519 632 l 519 170 q 535 124 519 138 q 574 111 550 111 q 619 121 597 111 l 637 1 q 605 -11 624 -5 q 551 -16 586 -16 q 510 -8 530 -16 q 471 15 489 0 q 441 54 453 31 q 428 109 429 77 z "},"ν":{"ha":758,"x_min":0,"x_max":604,"o":"m 237 0 l 0 632 l 150 632 l 322 147 q 410 366 380 245 q 457 632 440 486 l 604 632 q 575 469 593 551 q 532 307 558 387 q 467 149 505 227 q 376 0 429 72 l 237 0 z "},"ξ":{"ha":758,"x_min":1,"x_max":623,"o":"m 142 258 q 157 190 142 215 q 203 152 172 165 q 281 132 235 138 q 390 122 328 126 q 566 65 509 115 q 623 -64 623 16 q 610 -132 623 -98 q 571 -192 597 -165 q 504 -235 545 -218 q 410 -253 464 -252 l 393 -132 q 462 -110 441 -126 q 482 -64 482 -93 q 452 -16 482 -31 q 374 1 422 -1 q 217 20 286 5 q 99 64 147 35 q 26 139 52 93 q 1 253 1 186 q 46 379 1 326 q 192 457 92 432 q 122 489 151 467 q 74 541 93 511 q 46 603 56 570 q 37 668 37 636 q 60 764 37 721 q 122 837 83 807 q 211 883 161 867 q 315 900 261 900 q 424 888 368 900 q 522 852 479 876 l 473 736 q 399 765 437 755 q 315 774 361 774 q 217 739 256 774 q 178 652 178 704 q 215 553 178 591 q 335 514 252 514 l 489 514 l 489 387 l 335 387 q 192 348 243 387 q 142 258 142 309 z "},"ο":{"ha":758,"x_min":-16,"x_max":646,"o":"m 646 315 q 622 181 646 241 q 555 77 599 121 q 451 9 511 33 q 315 -16 390 -16 q 180 9 241 -16 q 76 77 119 33 q 8 181 32 121 q -16 315 -16 241 q 8 449 -16 387 q 76 554 32 510 q 180 623 119 599 q 315 647 241 647 q 451 623 390 647 q 555 554 511 599 q 622 449 599 510 q 646 315 646 387 m 505 315 q 492 396 505 358 q 455 462 479 435 q 395 505 431 489 q 315 521 359 521 q 235 505 271 521 q 176 462 200 489 q 138 396 151 435 q 125 315 125 358 q 138 234 125 271 q 176 170 151 197 q 235 126 200 142 q 315 111 271 111 q 395 126 359 111 q 455 170 431 142 q 492 234 479 197 q 505 315 505 271 z "},"ρ":{"ha":758,"x_min":33,"x_max":632,"o":"m 632 315 q 610 181 632 241 q 548 77 587 121 q 456 9 509 33 q 340 -16 403 -16 q 248 1 288 -16 q 174 50 208 17 l 172 -253 l 33 -253 l 33 315 q 50 437 33 378 q 102 544 66 497 q 192 618 138 590 q 321 647 245 647 q 450 623 392 647 q 548 554 507 599 q 610 449 589 510 q 632 315 632 387 m 492 315 q 481 396 492 358 q 449 461 471 433 q 397 505 428 489 q 323 521 366 521 q 216 473 258 521 q 174 315 174 425 l 174 179 q 329 111 236 111 q 399 127 368 111 q 450 170 429 143 q 481 235 471 197 q 492 315 492 272 z "},"ς":{"ha":758,"x_min":1,"x_max":623,"o":"m 142 322 q 390 122 142 136 q 566 65 509 115 q 623 -64 623 16 q 610 -132 623 -98 q 571 -192 597 -165 q 504 -235 545 -218 q 410 -253 464 -252 l 393 -132 q 462 -110 441 -126 q 482 -64 482 -93 q 452 -16 482 -31 q 374 1 422 -1 q 100 89 199 9 q 1 322 1 168 q 26 453 1 393 q 94 556 50 513 q 199 623 138 599 q 334 647 260 647 q 480 624 412 647 q 608 541 547 602 l 524 441 q 441 502 484 482 q 334 521 399 521 q 196 467 250 521 q 142 322 142 414 z "},"σ":{"ha":758,"x_min":-14,"x_max":690,"o":"m 486 505 q 535 469 513 492 q 575 419 558 447 q 603 360 593 392 q 612 293 612 328 q 590 167 612 224 q 525 70 567 110 q 426 6 484 29 q 300 -17 368 -17 q 173 6 231 -17 q 74 72 115 29 q 9 174 32 115 q -14 307 -14 233 q 11 439 -14 379 q 80 542 36 500 q 186 608 125 585 q 319 632 248 632 l 690 632 l 690 505 l 486 505 m 314 505 q 174 451 222 505 q 126 307 126 397 q 139 229 126 265 q 174 167 151 193 q 229 125 197 140 q 300 110 261 110 q 375 124 343 110 q 429 164 407 139 q 461 222 450 189 q 472 293 472 256 q 439 424 472 364 q 345 505 407 484 l 314 505 z "},"τ":{"ha":758,"x_min":0,"x_max":632,"o":"m 0 632 l 632 632 l 632 505 l 386 505 l 386 184 q 404 125 386 139 q 449 111 421 111 q 478 115 464 111 q 501 125 493 119 l 530 9 q 422 -16 478 -16 q 294 25 343 -16 q 245 140 245 65 l 245 505 l 0 505 l 0 632 z "},"υ":{"ha":758,"x_min":33,"x_max":632,"o":"m 317 -16 q 201 1 253 -16 q 111 50 149 17 q 54 130 74 82 q 33 243 33 178 l 33 632 l 174 632 l 174 243 q 216 144 174 176 q 319 111 258 111 q 401 133 368 111 q 455 189 435 154 q 483 266 475 224 q 492 349 492 309 q 480 482 492 422 q 440 595 468 542 l 575 646 q 617 506 603 581 q 632 347 632 431 q 614 219 632 283 q 558 102 596 154 q 460 17 519 50 q 317 -16 400 -16 z "},"φ":{"ha":758,"x_min":-14,"x_max":648,"o":"m 385 647 q 485 623 437 647 q 569 557 533 599 q 627 458 606 515 q 648 335 648 401 q 578 102 648 192 q 386 -8 507 12 l 386 -253 l 245 -253 l 245 -8 q 138 30 186 1 q 56 100 90 58 q 4 197 22 142 q -14 315 -14 252 q 20 482 -14 404 q 117 607 54 559 l 201 498 q 146 421 165 469 q 126 315 126 374 q 157 195 126 248 q 245 122 187 143 l 245 503 q 282 610 245 574 q 385 647 318 647 m 386 122 q 476 199 444 144 q 509 335 509 254 q 479 462 509 414 q 415 510 450 510 q 386 458 386 510 l 386 122 z "},"χ":{"ha":758,"x_min":-5,"x_max":632,"o":"m 476 -268 l 313 56 l 157 -253 l -5 -253 l 233 183 l 22 589 l 146 648 l 313 311 l 471 632 l 632 632 l 392 183 l 602 -205 l 476 -268 z "},"ψ":{"ha":758,"x_min":0,"x_max":632,"o":"m 632 328 q 615 178 632 241 q 567 72 599 115 q 489 3 534 28 q 386 -31 443 -22 l 386 -253 l 245 -253 l 245 -31 q 65 73 131 -12 q 0 328 0 158 l 0 632 l 140 632 l 140 328 q 165 182 140 243 q 245 98 189 122 l 245 758 l 386 758 l 386 98 q 468 182 443 122 q 493 328 493 241 l 493 632 l 632 632 l 632 328 z "},"ω":{"ha":758,"x_min":-11,"x_max":644,"o":"m 386 505 l 386 275 q 449 111 386 111 q 494 153 484 111 q 504 293 504 195 q 501 367 504 328 q 493 447 498 407 q 478 524 488 486 q 457 595 469 561 l 586 644 q 611 569 600 612 q 629 478 623 525 q 640 383 636 431 q 644 293 644 335 q 635 168 644 225 q 604 71 625 111 q 548 7 582 31 q 464 -16 514 -16 q 371 19 410 -16 q 317 110 332 54 q 262 19 301 54 q 170 -16 224 -16 q 85 7 119 -16 q 30 71 52 31 q -1 168 8 111 q -11 293 -11 225 q -7 383 -11 335 q 4 478 -3 431 q 22 569 11 525 q 47 644 33 612 l 176 595 q 155 524 164 561 q 140 447 146 486 q 132 367 135 407 q 129 293 129 328 q 139 153 129 195 q 184 111 150 111 q 245 275 245 111 l 245 505 l 386 505 z "},"ϊ":{"ha":758,"x_min":104,"x_max":530,"o":"m 530 9 q 422 -16 478 -16 q 294 25 343 -16 q 245 140 245 65 l 245 505 l 126 505 l 126 632 l 386 632 l 386 182 q 404 122 386 136 q 449 109 421 109 q 478 113 464 109 q 501 122 493 117 l 530 9 m 528 760 l 357 760 l 357 931 l 528 931 l 528 760 m 275 760 l 104 760 l 104 931 l 275 931 l 275 760 z "},"ϋ":{"ha":758,"x_min":33,"x_max":632,"o":"m 317 -16 q 201 1 253 -16 q 111 50 149 17 q 54 130 74 82 q 33 243 33 178 l 33 632 l 174 632 l 174 243 q 216 144 174 176 q 319 111 258 111 q 401 133 368 111 q 455 189 435 154 q 483 266 475 224 q 492 349 492 309 q 480 482 492 422 q 440 595 468 542 l 575 646 q 617 506 603 581 q 632 347 632 431 q 614 219 632 283 q 558 102 596 154 q 460 17 519 50 q 317 -16 400 -16 m 528 759 l 357 759 l 357 930 l 528 930 l 528 759 m 275 759 l 104 759 l 104 930 l 275 930 l 275 759 z "},"ό":{"ha":758,"x_min":-16,"x_max":646,"o":"m 646 315 q 622 181 646 241 q 555 77 599 121 q 451 9 511 33 q 315 -16 390 -16 q 180 9 241 -16 q 76 77 119 33 q 8 181 32 121 q -16 315 -16 241 q 8 449 -16 387 q 76 554 32 510 q 180 623 119 599 q 315 647 241 647 q 451 623 390 647 q 555 554 511 599 q 622 449 599 510 q 646 315 646 387 m 505 315 q 492 396 505 358 q 455 462 479 435 q 395 505 431 489 q 315 521 359 521 q 235 505 271 521 q 176 462 200 489 q 138 396 151 435 q 125 315 125 358 q 138 234 125 271 q 176 170 151 197 q 235 126 200 142 q 315 111 271 111 q 395 126 359 111 q 455 170 431 142 q 492 234 479 197 q 505 315 505 271 m 419 1136 l 363 758 l 253 758 l 253 1136 l 419 1136 z "},"ύ":{"ha":758,"x_min":33,"x_max":632,"o":"m 317 -16 q 201 1 253 -16 q 111 50 149 17 q 54 130 74 82 q 33 243 33 178 l 33 632 l 174 632 l 174 243 q 216 144 174 176 q 319 111 258 111 q 401 133 368 111 q 455 189 435 154 q 483 266 475 224 q 492 349 492 309 q 480 482 492 422 q 440 595 468 542 l 575 646 q 617 506 603 581 q 632 347 632 431 q 614 219 632 283 q 558 102 596 154 q 460 17 519 50 q 317 -16 400 -16 m 419 1136 l 363 758 l 253 758 l 253 1136 l 419 1136 z "},"ώ":{"ha":758,"x_min":-11,"x_max":644,"o":"m 386 505 l 386 275 q 449 111 386 111 q 494 153 484 111 q 504 293 504 195 q 501 367 504 328 q 493 447 498 407 q 478 524 488 486 q 457 595 469 561 l 586 644 q 611 569 600 612 q 629 478 623 525 q 640 383 636 431 q 644 293 644 335 q 635 168 644 225 q 604 71 625 111 q 548 7 582 31 q 464 -16 514 -16 q 371 19 410 -16 q 317 110 332 54 q 262 19 301 54 q 170 -16 224 -16 q 85 7 119 -16 q 30 71 52 31 q -1 168 8 111 q -11 293 -11 225 q -7 383 -11 335 q 4 478 -3 431 q 22 569 11 525 q 47 644 33 612 l 176 595 q 155 524 164 561 q 140 447 146 486 q 132 367 135 407 q 129 293 129 328 q 139 153 129 195 q 184 111 150 111 q 245 275 245 111 l 245 505 l 386 505 m 419 1136 l 363 758 l 253 758 l 253 1136 l 419 1136 z "},"Ё":{"ha":758,"x_min":33,"x_max":599,"o":"m 599 0 l 33 0 l 33 885 l 599 885 l 599 758 l 174 758 l 174 514 l 505 514 l 505 387 l 174 387 l 174 126 l 599 126 l 599 0 m 528 966 l 357 966 l 357 1137 l 528 1137 l 528 966 m 275 966 l 104 966 l 104 1137 l 275 1137 l 275 966 z "},"Ђ":{"ha":758,"x_min":-93,"x_max":599,"o":"m -93 885 l 300 885 l 300 758 l 174 758 l 174 473 q 252 601 195 555 q 392 647 309 647 q 544 584 489 647 q 599 390 599 521 l 599 187 q 583 93 599 132 q 540 31 567 54 q 476 -4 513 7 q 399 -16 440 -16 q 315 1 342 -16 l 334 122 q 355 114 343 117 q 386 111 367 111 q 458 187 458 111 l 458 390 q 431 492 458 464 q 350 521 403 521 q 223 458 272 521 q 174 283 174 395 l 174 0 l 33 0 l 33 758 l -93 758 l -93 885 z "},"Ѓ":{"ha":758,"x_min":33,"x_max":599,"o":"m 599 758 l 174 758 l 174 0 l 33 0 l 33 885 l 599 885 l 599 758 m 482 1084 l 189 918 l 129 1011 l 403 1206 l 482 1084 z "},"Є":{"ha":758,"x_min":-14,"x_max":646,"o":"m 646 271 q 602 153 629 205 q 536 62 575 100 q 445 5 497 25 q 326 -16 393 -16 q 169 23 233 -16 q 63 125 104 61 q 5 272 23 189 q -14 443 -14 354 q -6 559 -14 502 q 19 667 2 616 q 62 760 36 718 q 126 834 89 803 q 211 882 163 865 q 318 900 258 900 q 377 892 347 900 q 433 870 407 885 q 478 832 458 854 q 505 781 497 810 l 505 885 l 632 885 l 632 584 l 505 584 q 495 642 505 608 q 463 705 485 675 q 407 754 440 735 q 326 774 373 774 q 240 752 276 774 q 182 695 205 731 q 146 612 159 659 q 129 514 134 565 l 475 514 l 475 387 l 128 387 q 143 284 132 334 q 178 196 155 234 q 237 134 201 157 q 326 111 273 111 q 458 166 412 111 q 533 314 506 222 l 646 271 z "},"Ѕ":{"ha":758,"x_min":18,"x_max":610,"o":"m 610 243 q 589 134 610 182 q 533 53 568 86 q 448 2 497 20 q 343 -16 399 -16 q 231 7 281 -16 q 144 81 180 29 l 144 0 l 18 0 l 18 289 l 144 289 q 160 212 144 245 q 200 156 175 179 q 258 122 225 134 q 329 110 292 110 q 431 139 392 110 q 469 232 469 168 q 457 289 469 265 q 424 331 446 313 q 370 364 401 350 q 297 393 338 378 q 201 430 249 410 q 115 480 153 450 q 53 554 77 510 q 29 664 29 597 q 51 766 29 722 q 107 840 72 810 q 190 885 143 869 q 290 900 237 900 q 395 874 351 900 q 463 806 439 848 l 463 885 l 589 885 l 589 610 l 463 610 q 421 731 463 688 q 311 775 380 775 q 210 747 250 775 q 170 667 170 718 q 180 622 170 640 q 211 588 191 603 q 261 559 231 572 q 332 530 292 546 q 431 490 382 513 q 520 435 481 468 q 585 356 559 403 q 610 243 610 310 z "},"І":{"ha":758,"x_min":106,"x_max":530,"o":"m 530 0 l 106 0 l 106 126 l 245 126 l 245 758 l 106 758 l 106 885 l 530 885 l 530 758 l 386 758 l 386 126 l 530 126 l 530 0 z "},"Ї":{"ha":758,"x_min":104,"x_max":530,"o":"m 530 0 l 106 0 l 106 126 l 245 126 l 245 758 l 106 758 l 106 885 l 530 885 l 530 758 l 386 758 l 386 126 l 530 126 l 530 0 m 528 966 l 357 966 l 357 1137 l 528 1137 l 528 966 m 275 966 l 104 966 l 104 1137 l 275 1137 l 275 966 z "},"Ј":{"ha":758,"x_min":-1,"x_max":599,"o":"m 599 338 q 527 77 599 170 q 309 -16 456 -16 q 111 46 191 -16 q -1 232 31 109 l 125 279 q 189 156 144 200 q 309 111 233 111 q 383 130 354 111 q 429 180 412 149 q 452 252 446 211 q 458 338 458 293 l 458 885 l 599 885 l 599 338 z "},"Љ":{"ha":758,"x_min":-125,"x_max":696,"o":"m 555 262 q 521 366 555 332 q 428 400 486 400 l 393 400 l 393 126 l 428 126 q 521 160 486 126 q 555 262 555 195 m 393 526 l 427 526 q 625 462 554 526 q 696 264 696 397 q 625 67 696 134 q 427 0 554 0 l 253 0 l 253 758 l 140 758 l 140 187 q 126 93 140 132 q 87 31 111 54 q 31 -4 62 7 q -36 -16 -1 -16 q -90 -11 -69 -16 q -125 1 -110 -5 l -103 117 q -85 113 -96 114 q -66 111 -75 111 q 0 187 0 111 l 0 885 l 393 885 l 393 526 z "},"Њ":{"ha":758,"x_min":0,"x_max":696,"o":"m 0 0 l 0 885 l 140 885 l 140 526 l 253 526 l 253 885 l 393 885 l 393 526 l 427 526 q 625 462 554 526 q 696 264 696 397 q 625 67 696 134 q 427 0 554 0 l 253 0 l 253 400 l 140 400 l 140 0 l 0 0 m 555 262 q 521 366 555 332 q 428 400 486 400 l 393 400 l 393 126 l 428 126 q 521 160 486 126 q 555 262 555 195 z "},"Ћ":{"ha":758,"x_min":-93,"x_max":599,"o":"m -93 885 l 300 885 l 300 758 l 174 758 l 174 473 q 252 601 195 555 q 392 647 309 647 q 544 584 489 647 q 599 390 599 521 l 599 0 l 458 0 l 458 390 q 431 492 458 464 q 350 521 403 521 q 223 458 272 521 q 174 283 174 395 l 174 0 l 33 0 l 33 758 l -93 758 l -93 885 z "},"Ќ":{"ha":758,"x_min":33,"x_max":629,"o":"m 628 0 l 464 0 l 232 412 l 174 343 l 174 0 l 33 0 l 33 885 l 174 885 l 174 538 l 449 885 l 629 885 l 321 518 l 628 0 m 482 1084 l 189 918 l 129 1011 l 403 1206 l 482 1084 z "},"Ў":{"ha":758,"x_min":-4,"x_max":627,"o":"m 627 885 l 354 129 q 265 16 323 47 q 126 -16 207 -16 q 66 -10 98 -16 q 0 8 35 -4 l 29 138 q 83 122 58 126 q 126 118 107 118 q 212 175 189 118 l 237 236 l -4 885 l 142 885 l 315 407 l 476 885 l 627 885 m 539 1044 q 317 953 447 953 q 94 1044 186 953 l 176 1125 q 317 1061 240 1061 q 457 1125 393 1061 l 539 1044 z "},"Џ":{"ha":758,"x_min":33,"x_max":599,"o":"m 599 0 l 386 0 l 386 -216 l 245 -216 l 245 0 l 33 0 l 33 885 l 174 885 l 174 126 l 458 126 l 458 885 l 599 885 l 599 0 z "},"А":{"ha":758,"x_min":-40,"x_max":673,"o":"m 526 0 l 463 211 l 170 211 l 107 0 l -40 0 l 236 885 l 397 885 l 673 0 l 526 0 m 207 335 l 425 335 l 317 700 l 207 335 z "},"Б":{"ha":758,"x_min":33,"x_max":632,"o":"m 599 758 l 174 758 l 174 526 l 326 526 q 551 462 471 526 q 632 264 632 397 q 551 67 632 134 q 325 0 471 0 l 33 0 l 33 885 l 599 885 l 599 758 m 492 262 q 447 366 492 332 q 326 400 403 400 l 174 400 l 174 126 l 326 126 q 447 160 403 126 q 492 262 492 195 z "},"В":{"ha":758,"x_min":33,"x_max":631,"o":"m 631 243 q 549 61 631 122 q 315 0 467 0 l 33 0 l 33 885 l 300 885 q 409 876 355 885 q 505 842 463 867 q 574 771 547 817 q 600 654 600 726 q 566 532 600 587 q 463 452 532 476 q 589 378 547 425 q 631 243 631 330 m 461 636 q 447 699 461 675 q 409 737 432 724 q 357 754 386 750 q 300 758 329 758 l 174 758 l 174 514 l 300 514 q 357 518 329 514 q 409 535 386 522 q 447 573 432 549 q 461 636 461 597 m 492 257 q 445 355 492 323 q 315 387 399 387 l 174 387 l 174 126 l 315 126 q 445 158 399 126 q 492 257 492 191 z "},"Г":{"ha":758,"x_min":33,"x_max":599,"o":"m 599 758 l 174 758 l 174 0 l 33 0 l 33 885 l 599 885 l 599 758 z "},"Д":{"ha":758,"x_min":0,"x_max":632,"o":"m 0 126 q 63 188 39 157 q 101 274 87 218 q 121 421 115 329 q 126 667 126 514 l 126 885 l 529 885 l 529 126 l 632 126 l 632 -216 l 505 -216 l 505 0 l 126 0 l 126 -216 l 0 -216 l 0 126 m 267 667 q 264 462 267 547 q 251 314 261 376 q 219 207 240 252 q 158 126 197 163 l 389 126 l 389 758 l 267 758 l 267 667 z "},"Е":{"ha":758,"x_min":33,"x_max":599,"o":"m 599 0 l 33 0 l 33 885 l 599 885 l 599 758 l 174 758 l 174 514 l 505 514 l 505 387 l 174 387 l 174 126 l 599 126 l 599 0 z "},"Ж":{"ha":758,"x_min":-74,"x_max":705,"o":"m 245 0 l 245 351 l 222 392 l 62 0 l -74 0 l 150 500 l -74 885 l 66 885 l 245 533 l 245 885 l 386 885 l 386 533 l 566 885 l 705 885 l 482 500 l 705 0 l 570 0 l 410 392 l 386 351 l 386 0 l 245 0 z "},"З":{"ha":758,"x_min":18,"x_max":624,"o":"m 624 240 q 600 135 624 182 q 537 54 576 87 q 445 3 497 21 q 336 -16 393 -16 q 217 2 273 -16 q 119 55 161 19 q 50 146 77 91 q 18 278 24 201 l 150 300 q 207 161 157 212 q 336 111 257 111 q 443 146 404 111 q 484 240 484 182 q 430 350 484 313 q 272 387 376 387 l 272 514 q 353 523 317 514 q 414 550 389 532 q 453 595 439 568 q 467 658 467 622 q 458 704 467 682 q 433 741 450 725 q 393 765 417 756 q 336 774 368 774 q 262 759 294 774 q 209 719 231 745 q 175 659 186 693 q 164 585 164 624 l 37 585 l 37 885 l 164 885 l 164 781 q 192 832 172 810 q 237 870 211 854 q 292 892 262 885 q 351 900 322 900 q 449 883 403 900 q 530 834 495 865 q 586 758 566 802 q 607 658 607 713 q 595 582 607 617 q 561 521 583 547 q 506 479 538 495 q 433 460 474 463 q 514 436 479 456 q 574 387 550 416 q 611 319 599 357 q 624 240 624 281 z "},"И":{"ha":758,"x_min":33,"x_max":599,"o":"m 33 885 l 174 885 l 174 275 l 422 885 l 599 885 l 599 0 l 458 0 l 458 642 l 196 0 l 33 0 l 33 885 z "},"Й":{"ha":758,"x_min":33,"x_max":599,"o":"m 33 885 l 174 885 l 174 275 l 422 885 l 599 885 l 599 0 l 458 0 l 458 642 l 196 0 l 33 0 l 33 885 m 539 1043 q 317 951 447 951 q 94 1043 186 951 l 176 1124 q 317 1060 240 1060 q 457 1124 393 1060 l 539 1043 z "},"К":{"ha":758,"x_min":33,"x_max":629,"o":"m 628 0 l 464 0 l 232 412 l 174 343 l 174 0 l 33 0 l 33 885 l 174 885 l 174 538 l 449 885 l 629 885 l 321 518 l 628 0 z "},"Л":{"ha":758,"x_min":-64,"x_max":599,"o":"m 599 885 l 599 0 l 458 0 l 458 758 l 220 758 l 220 187 q 203 93 220 132 q 160 31 187 54 q 97 -4 134 7 q 20 -16 61 -16 q -64 1 -37 -16 l -46 122 q -24 114 -36 117 q 7 111 -12 111 q 79 187 79 111 l 79 885 l 599 885 z "},"М":{"ha":758,"x_min":33,"x_max":599,"o":"m 599 0 l 458 0 l 458 599 l 370 281 l 261 281 l 174 599 l 174 0 l 33 0 l 33 885 l 200 885 l 315 485 l 431 885 l 599 885 l 599 0 z "},"Н":{"ha":758,"x_min":33,"x_max":599,"o":"m 599 0 l 458 0 l 458 387 l 174 387 l 174 0 l 33 0 l 33 885 l 174 885 l 174 514 l 458 514 l 458 885 l 599 885 l 599 0 z "},"О":{"ha":758,"x_min":-22,"x_max":656,"o":"m -22 443 q -3 614 -22 532 q 56 760 16 697 q 160 862 96 823 q 317 900 225 900 q 473 862 408 900 q 578 760 538 823 q 637 614 619 697 q 656 443 656 532 q 637 272 656 354 q 579 125 619 189 q 474 23 539 61 q 317 -16 410 -16 q 159 23 224 -16 q 54 125 94 61 q -4 272 14 189 q -22 443 -22 354 m 118 443 q 127 323 118 383 q 158 217 136 264 q 219 140 180 170 q 317 111 257 111 q 415 140 376 111 q 475 217 453 170 q 506 323 497 264 q 515 443 515 383 q 506 562 515 503 q 475 668 497 621 q 414 745 453 715 q 317 774 375 774 q 169 686 220 774 q 118 443 118 599 z "},"П":{"ha":758,"x_min":33,"x_max":599,"o":"m 599 0 l 458 0 l 458 758 l 174 758 l 174 0 l 33 0 l 33 885 l 599 885 l 599 0 z "},"Р":{"ha":758,"x_min":33,"x_max":632,"o":"m 632 621 q 551 423 632 488 q 326 358 471 358 l 174 358 l 174 0 l 33 0 l 33 885 l 325 885 q 551 818 471 885 q 632 621 632 751 m 492 623 q 447 724 492 690 q 326 758 403 758 l 174 758 l 174 485 l 326 485 q 447 519 403 485 q 492 623 492 553 z "},"С":{"ha":758,"x_min":-14,"x_max":646,"o":"m 646 271 q 602 153 629 205 q 536 62 575 100 q 445 5 497 25 q 326 -16 393 -16 q 169 23 233 -16 q 63 125 104 61 q 4 272 22 189 q -14 443 -14 354 q 4 614 -14 532 q 63 760 22 697 q 165 862 103 823 q 318 900 228 900 q 377 892 347 900 q 433 870 407 885 q 478 832 458 854 q 505 781 497 810 l 505 885 l 632 885 l 632 550 l 505 550 q 495 632 505 591 q 463 703 485 672 q 406 754 440 734 q 326 774 372 774 q 229 745 267 774 q 168 668 191 715 q 135 562 144 621 q 126 443 126 503 q 135 323 126 383 q 167 217 144 264 q 228 140 189 170 q 326 111 267 111 q 459 166 412 111 q 533 314 505 221 l 646 271 z "},"Т":{"ha":758,"x_min":0,"x_max":631,"o":"m 631 562 l 505 562 l 505 758 l 386 758 l 386 126 l 526 126 l 526 0 l 106 0 l 106 126 l 245 126 l 245 758 l 125 758 l 125 562 l 0 562 l 0 885 l 631 885 l 631 562 z "},"У":{"ha":758,"x_min":-4,"x_max":627,"o":"m 627 885 l 354 129 q 265 16 323 47 q 126 -16 207 -16 q 66 -10 98 -16 q 0 8 35 -4 l 29 138 q 83 122 58 126 q 126 118 107 118 q 212 175 189 118 l 237 236 l -4 885 l 142 885 l 315 407 l 476 885 l 627 885 z "},"Ф":{"ha":758,"x_min":-14,"x_max":648,"o":"m 648 452 q 630 331 648 386 q 576 235 611 277 q 493 165 542 193 q 385 126 444 136 l 385 0 l 245 0 l 245 126 q 56 235 126 149 q -14 452 -14 322 q 4 570 -14 515 q 56 666 22 624 q 138 736 90 708 q 245 777 186 765 l 245 885 l 385 885 l 385 778 q 493 739 444 766 q 576 668 542 711 q 630 570 611 625 q 648 452 648 515 m 509 452 q 476 573 509 521 q 385 646 443 625 l 385 257 q 476 329 443 278 q 509 452 509 380 m 126 452 q 157 331 126 382 q 245 258 187 279 l 245 644 q 157 572 187 624 q 126 452 126 519 z "},"Х":{"ha":758,"x_min":-16,"x_max":646,"o":"m 646 0 l 357 0 l 357 126 l 407 126 l 314 326 l 221 126 l 271 126 l 271 0 l -16 0 l -16 126 l 61 126 l 233 447 l 64 758 l 0 758 l 0 885 l 281 885 l 281 758 l 224 758 l 314 562 l 406 758 l 350 758 l 350 885 l 632 885 l 632 758 l 564 758 l 395 447 l 567 126 l 646 126 l 646 0 z "},"Ц":{"ha":758,"x_min":33,"x_max":715,"o":"m 715 126 l 715 -216 l 589 -216 l 589 0 l 33 0 l 33 885 l 174 885 l 174 126 l 458 126 l 458 885 l 599 885 l 599 126 l 715 126 z "},"Ч":{"ha":758,"x_min":33,"x_max":599,"o":"m 33 885 l 174 885 l 174 494 q 201 393 174 421 q 282 364 229 364 q 409 427 359 364 q 458 602 458 490 l 458 885 l 599 885 l 599 0 l 458 0 l 458 411 q 380 283 437 329 q 240 237 323 237 q 88 301 143 237 q 33 494 33 364 l 33 885 z "},"Ш":{"ha":758,"x_min":-14,"x_max":646,"o":"m 245 885 l 386 885 l 386 126 l 505 126 l 505 885 l 646 885 l 646 0 l -14 0 l -14 885 l 126 885 l 126 126 l 245 126 l 245 885 z "},"Щ":{"ha":758,"x_min":-14,"x_max":758,"o":"m -14 0 l -14 885 l 126 885 l 126 126 l 245 126 l 245 885 l 386 885 l 386 126 l 505 126 l 505 885 l 646 885 l 646 126 l 758 126 l 758 -216 l 632 -216 l 632 0 l -14 0 z "},"Ъ":{"ha":758,"x_min":0,"x_max":632,"o":"m 0 885 l 253 885 l 253 526 l 359 526 q 561 462 489 526 q 632 264 632 397 q 561 67 632 134 q 358 0 489 0 l 113 0 l 113 758 l 0 758 l 0 885 m 492 262 q 456 366 492 332 q 363 400 421 400 l 253 400 l 253 126 l 363 126 q 456 160 421 126 q 492 262 492 195 z "},"Ы":{"ha":758,"x_min":-14,"x_max":646,"o":"m 429 264 q 358 67 429 134 q 160 0 288 0 l -14 0 l -14 885 l 126 885 l 126 526 l 160 526 q 358 462 288 526 q 429 264 429 397 m 289 262 q 254 366 289 332 q 161 400 220 400 l 126 400 l 126 126 l 161 126 q 254 160 220 126 q 289 262 289 195 m 505 885 l 646 885 l 646 0 l 505 0 l 505 885 z "},"Ь":{"ha":758,"x_min":33,"x_max":632,"o":"m 632 264 q 551 67 632 134 q 325 0 471 0 l 33 0 l 33 885 l 174 885 l 174 526 l 326 526 q 551 462 471 526 q 632 264 632 397 m 492 262 q 447 366 492 332 q 326 400 403 400 l 174 400 l 174 126 l 326 126 q 447 160 403 126 q 492 262 492 195 z "},"Э":{"ha":758,"x_min":-14,"x_max":646,"o":"m 99 314 q 174 166 126 222 q 306 111 220 111 q 395 134 359 111 q 454 196 431 157 q 489 284 477 234 q 504 387 500 334 l 157 387 l 157 514 l 503 514 q 486 612 498 565 q 450 695 473 659 q 392 752 427 731 q 306 774 356 774 q 225 754 259 774 q 170 705 192 735 q 137 642 147 675 q 127 584 127 608 l 0 584 l 0 885 l 127 885 l 127 781 q 154 832 135 810 q 199 870 174 854 q 255 892 225 885 q 314 900 285 900 q 421 882 374 900 q 506 834 469 865 q 570 760 543 803 q 613 667 596 718 q 638 559 630 616 q 646 443 646 502 q 627 272 646 354 q 569 125 609 189 q 464 23 528 61 q 306 -16 399 -16 q 187 5 239 -16 q 96 62 135 25 q 30 153 57 100 q -14 271 3 205 l 99 314 z "},"Ю":{"ha":758,"x_min":-14,"x_max":652,"o":"m -14 885 l 126 885 l 126 514 l 239 514 q 444 900 254 900 q 652 441 652 900 q 444 -16 652 -16 q 237 387 250 -16 l 126 387 l 126 0 l -14 0 l -14 885 m 378 441 q 380 307 378 368 q 390 202 383 245 q 411 135 397 158 q 444 111 424 111 q 477 135 464 111 q 498 202 490 158 q 508 307 505 245 q 511 441 511 368 q 508 576 511 515 q 498 681 505 637 q 477 749 490 725 q 444 774 464 774 q 411 749 424 774 q 390 681 397 725 q 380 576 383 637 q 378 441 378 515 z "},"Я":{"ha":758,"x_min":-12,"x_max":599,"o":"m 240 366 q 145 391 189 372 q 69 441 102 410 q 18 518 36 473 q 0 621 0 562 q 81 818 0 751 q 307 885 161 885 l 599 885 l 599 0 l 458 0 l 458 358 l 395 358 l 165 0 l -12 0 l 240 366 m 140 623 q 185 519 140 553 q 307 485 229 485 l 458 485 l 458 758 l 307 758 q 185 724 229 758 q 140 623 140 690 z "},"а":{"ha":758,"x_min":-3,"x_max":597,"o":"m -3 182 q 27 279 -3 237 q 105 349 57 321 q 217 390 154 376 q 345 404 279 404 q 406 403 380 404 q 458 399 432 401 l 458 424 q 420 498 458 473 q 319 522 382 522 q 203 506 262 522 q 92 460 144 490 l 35 570 q 169 626 97 606 q 319 647 240 647 q 421 635 371 647 q 510 597 471 624 q 574 529 550 571 q 597 424 597 486 l 597 0 l 458 0 l 458 93 q 360 13 425 41 q 221 -16 296 -16 q 134 -3 175 -16 q 63 35 93 9 q 15 97 33 60 q -3 182 -3 134 m 257 110 q 335 120 298 110 q 399 150 371 131 q 443 195 427 168 q 458 253 458 221 l 458 277 q 396 283 425 282 q 345 283 367 283 q 189 256 241 283 q 136 189 136 229 q 257 110 136 110 z "},"б":{"ha":758,"x_min":0,"x_max":632,"o":"m 149 301 q 194 163 149 215 q 319 111 240 111 q 443 163 395 111 q 492 301 492 215 q 446 440 492 389 q 319 492 400 492 q 191 440 233 492 q 149 301 149 389 m 0 441 q 21 627 0 543 q 82 772 43 711 q 174 866 121 832 q 293 900 228 900 q 346 894 325 900 q 384 879 367 888 q 415 865 400 871 q 450 859 429 859 q 497 868 478 859 q 545 900 517 878 l 608 807 q 541 754 583 777 q 450 732 498 732 q 398 738 418 732 q 363 753 379 745 q 332 767 347 761 q 293 774 317 774 q 234 758 261 774 q 186 708 207 742 q 154 620 165 673 q 142 490 142 567 q 216 585 168 553 q 321 618 264 618 q 444 598 387 618 q 543 538 501 578 q 608 439 585 498 q 632 301 632 380 q 608 176 632 235 q 543 76 585 118 q 444 9 501 33 q 321 -16 387 -16 q 81 96 161 -16 q 0 441 0 207 z "},"в":{"ha":758,"x_min":33,"x_max":631,"o":"m 631 174 q 567 44 631 87 q 386 0 504 0 l 33 0 l 33 632 l 361 632 q 447 626 404 632 q 524 601 490 619 q 579 551 558 583 q 600 467 600 518 q 570 381 600 419 q 478 325 541 343 q 593 275 555 314 q 631 174 631 236 m 461 450 q 453 483 461 471 q 430 503 444 496 q 398 512 416 510 q 363 514 380 514 l 174 514 l 174 387 l 363 387 q 398 390 380 387 q 430 399 416 392 q 453 418 444 406 q 461 450 461 431 m 492 195 q 464 244 492 228 q 386 261 436 261 l 174 261 l 174 126 l 386 126 q 464 143 436 126 q 492 195 492 160 z "},"г":{"ha":758,"x_min":33,"x_max":632,"o":"m 33 632 l 632 632 l 632 514 l 174 514 l 174 0 l 33 0 l 33 632 z "},"д":{"ha":758,"x_min":0,"x_max":632,"o":"m 0 126 q 63 174 39 147 q 101 243 87 201 q 121 345 115 285 q 126 488 126 404 l 126 632 l 529 632 l 529 126 l 632 126 l 632 -216 l 505 -216 l 505 0 l 126 0 l 126 -216 l 0 -216 l 0 126 m 267 460 q 264 372 267 421 q 251 276 261 323 q 219 189 240 229 q 158 126 197 149 l 389 126 l 389 514 l 267 514 l 267 460 z "},"е":{"ha":758,"x_min":-14,"x_max":659,"o":"m 129 262 q 191 154 139 197 q 330 111 243 111 q 449 133 399 111 q 536 189 500 154 l 608 90 q 479 7 547 29 q 330 -16 411 -16 q 194 9 257 -16 q 85 77 131 33 q 13 181 39 121 q -14 315 -14 241 q 11 448 -14 387 q 78 553 35 509 q 183 622 122 597 q 318 647 244 647 q 457 621 395 647 q 564 545 519 595 q 633 424 608 496 q 659 262 659 353 l 129 262 m 500 386 q 437 484 489 447 q 318 521 385 521 q 199 484 252 521 q 135 386 146 447 l 500 386 z "},"ж":{"ha":758,"x_min":-74,"x_max":705,"o":"m 245 0 l 245 232 l 222 261 l 77 0 l -74 0 l 136 355 l -74 632 l 81 632 l 245 396 l 245 632 l 386 632 l 386 396 l 558 632 l 705 632 l 496 355 l 705 0 l 562 0 l 410 261 l 386 232 l 386 0 l 245 0 z "},"з":{"ha":758,"x_min":-1,"x_max":607,"o":"m 606 458 q 570 372 606 412 q 468 321 534 332 q 569 268 530 309 q 607 179 607 228 q 583 97 607 134 q 516 36 558 61 q 416 -2 473 11 q 290 -16 358 -16 q 112 18 182 -16 q -1 119 41 52 l 109 193 q 177 134 127 157 q 293 111 227 111 q 419 133 371 111 q 467 191 467 154 q 431 239 467 216 q 325 261 396 261 l 224 261 l 224 387 l 323 387 q 430 406 395 387 q 465 447 465 424 q 420 501 465 481 q 300 521 375 521 q 119 440 171 521 l 17 511 q 126 613 58 579 q 298 647 195 647 q 420 634 364 647 q 517 596 476 621 q 582 537 558 572 q 606 458 606 501 z "},"и":{"ha":758,"x_min":33,"x_max":599,"o":"m 33 632 l 174 632 l 174 197 l 422 632 l 599 632 l 599 0 l 458 0 l 458 460 l 196 0 l 33 0 l 33 632 z "},"й":{"ha":758,"x_min":33,"x_max":599,"o":"m 33 632 l 174 632 l 174 197 l 422 632 l 599 632 l 599 0 l 458 0 l 458 460 l 196 0 l 33 0 l 33 632 m 539 791 q 317 700 447 700 q 94 791 186 700 l 176 872 q 317 808 240 808 q 457 872 393 808 l 539 791 z "},"к":{"ha":758,"x_min":33,"x_max":631,"o":"m 631 0 l 449 0 l 237 256 l 174 191 l 174 0 l 33 0 l 33 632 l 174 632 l 174 364 l 427 632 l 619 632 l 328 342 l 631 0 z "}}}
